SplineFontDB: 3.0
FontName: arial-black-hollow
FullName: arial-black-hollow
FamilyName: Arial-Hollow
Weight: Black
Copyright: created by XanPetty as a demonstration. not for commercial use.
Version: 0.1.0
ItalicAngle: 0
UnderlinePosition: 0
UnderlineWidth: 0
Ascent: 800
Descent: 200
InvalidEm: 0
LayerCount: 2
Layer: 0 1 "Back" 1
Layer: 1 1 "Fore" 0
XUID: [1021 575 -53711584 14727247]
FSType: 0
OS2Version: 0
OS2_WeightWidthSlopeOnly: 0
OS2_UseTypoMetrics: 0
CreationTime: 1530566282
ModificationTime: 1530779189
PfmFamily: 17
TTFWeight: 700
TTFWidth: 5
LineGap: 90
VLineGap: 90
Panose: 2 0 8 3 0 0 0 0 0 0
OS2TypoAscent: 0
OS2TypoAOffset: 1
OS2TypoDescent: 0
OS2TypoDOffset: 1
OS2TypoLinegap: 90
OS2WinAscent: 0
OS2WinAOffset: 1
OS2WinDescent: 0
OS2WinDOffset: 1
HheadAscent: 0
HheadAOffset: 1
HheadDescent: 0
HheadDOffset: 1
OS2Vendor: 'PfEd'
Lookup: 258 0 0 "Pairwise Positioning (kerning) in Latin lookup 0" { "Pairwise Positioning (kerning) in Latin lookup 0-1" [150,15,0] "Pairwise Positioning (kerning) in Latin lookup 0-2" [150,15,0] "Pairwise Positioning (kerning) in Latin lookup 0-3" [150,15,0] "Pairwise Positioning (kerning) in Latin lookup 0-4" [150,15,0] "Pairwise Positioning (kerning) in Latin lookup 0-5" [150,15,0] } ['    ' ('DFLT' <'dflt' > 'latn' <'dflt' > ) ]
MarkAttachClasses: 1
DEI: 91125
KernClass2: 1 1 "Pairwise Positioning (kerning) in Latin lookup 0-5"
 0 {}
KernClass2: 1 1 "Pairwise Positioning (kerning) in Latin lookup 0-4"
 0 {}
KernClass2: 1 1 "Pairwise Positioning (kerning) in Latin lookup 0-3"
 0 {}
KernClass2: 1 1 "Pairwise Positioning (kerning) in Latin lookup 0-2"
 0 {}
LangName: 1033
Encoding: ISO8859-1
UnicodeInterp: none
NameList: AGL For New Fonts
DisplaySize: -48
AntiAlias: 1
FitToEm: 0
WidthSeparation: 150
WinInfo: 60 10 7
BeginPrivate: 0
EndPrivate
TeXData: 1 0 0 314572 157286 104857 534097 1048576 104857 783286 444596 497025 792723 393216 433062 380633 303038 157286 324010 404750 52429 2506097 1059062 262144
BeginChars: 256 121

StartChar: y
Encoding: 121 121 0
Width: 687
Flags: W
HStem: -168 69<131.402 325.607> 527 54<108.113 218.271 487.353 563.215>
VStem: 55 76<-94.1387 -16.5> 214 64<36.9446 124.605> 564 93<477.346 562.5>
LayerCount: 2
Fore
SplineSet
318.5 -155 m 128,-1,1
 261 -168 261 -168 194 -168 c 128,-1,2
 127 -168 127 -168 103 -153 c 0,3,4
 55 -123 55 -123 55 -49 c 0,5,6
 55 0 55 0 67.5 13 c 128,-1,7
 80 26 80 26 137 26 c 128,-1,8
 194 26 194 26 212 40 c 0,9,10
 214 42 214 42 214 44 c 0,11,12
 214 84 214 84 122 306.5 c 128,-1,13
 30 529 30 529 30 556 c 0,14,15
 30 577 30 577 118 577 c 0,16,17
 205 577 205 577 238 569 c 128,-1,18
 271 561 271 561 276.5 556.5 c 128,-1,19
 282 552 282 552 292 538 c 128,-1,20
 302 524 302 524 306 510 c 0,21,22
 336 404 336 404 353 392 c 1,23,24
 370 392 370 392 394 498 c 0,25,26
 399 521 399 521 401.5 532 c 128,-1,27
 404 543 404 543 411.5 554.5 c 128,-1,28
 419 566 419 566 426 570 c 0,29,30
 432 572 432 572 450 576 c 128,-1,31
 468 580 468 580 528 580 c 0,32,33
 534 580 534 580 541 580 c 0,34,35
 546 580 546 580 551 580 c 0,36,37
 555 580 555 580 560 580 c 0,38,-1
 621 574 l 0,39,40
 657 566 657 566 657 556 c 0,41,42
 657 518 657 518 538.5 210.5 c 128,-1,43
 420 -97 420 -97 398 -119.5 c 128,-1,0
 376 -142 376 -142 318.5 -155 c 128,-1,1
321 -81 m 0,44,45
 352 -61 352 -61 386 13 c 128,-1,46
 420 87 420 87 492 286.5 c 128,-1,47
 564 486 564 486 564 506.5 c 128,-1,48
 564 527 564 527 546 527 c 0,49,50
 500 527 500 527 477.5 493.5 c 128,-1,51
 455 460 455 460 432 379 c 0,52,53
 390 233 390 233 351.5 233 c 128,-1,54
 313 233 313 233 269 378 c 0,55,56
 241 474 241 474 221.5 502.5 c 128,-1,57
 202 531 202 531 165 531 c 2,58,-1
 106 531 l 1,59,-1
 194 322 l 2,60,61
 278 121 278 121 278 56 c 0,62,63
 278 22 278 22 261 2 c 128,-1,64
 244 -18 244 -18 209.5 -31 c 128,-1,65
 175 -44 175 -44 153 -58.5 c 128,-1,66
 131 -73 131 -73 131 -81 c 0,67,68
 131 -99 131 -99 213.5 -99 c 128,-1,69
 296 -99 296 -99 321 -81 c 0,44,45
EndSplineSet
Validated: 1
EndChar

StartChar: braceleft
Encoding: 123 123 1
Width: 449
Flags: W
HStem: -150 72<228.019 369.518> 701 49<255.812 364.832>
VStem: 30 74<261.244 369.137> 128 48<457.368 605.065> 225 96<260.418 365.639> 370 49<-72.2842 -12.4979 605.98 695.797>
LayerCount: 2
Fore
SplineSet
225 -135 m 4,0,1
 128 -101 128 -101 128 60 c 0,2,3
 128 118 128 118 117 148 c 128,-1,4
 106 178 106 178 79 195 c 0,5,6
 30 225 30 225 30 316 c 0,7,8
 30 365 30 365 41.5 392 c 128,-1,9
 53 419 53 419 80 433.5 c 128,-1,10
 107 448 107 448 117.5 476 c 128,-1,11
 128 504 128 504 128 564 c 0,12,13
 128 665 128 665 171.5 707.5 c 128,-1,14
 215 750 215 750 318 750 c 2,15,-1
 419 750 l 1,16,-1
 419 655 l 2,17,18
 419 560 419 560 385 547 c 0,19,20
 364 539 364 539 344 468.5 c 128,-1,21
 324 398 324 398 321 323 c 1,22,-1
 321 309 l 2,23,24
 321 235 321 235 343 151 c 128,-1,25
 365 67 365 67 386 67 c 0,26,27
 419 67 419 67 419 -42 c 0,28,29
 419 -117 419 -117 411 -133.5 c 128,-1,30
 403 -150 403 -150 362 -150 c 2,31,-1
 340 -150 l 1,32,33
 263 -148 263 -148 225 -135 c 4,0,1
227 -56 m 0,34,35
 259 -78 259 -78 314.5 -78 c 128,-1,36
 370 -78 370 -78 370 -54.5 c 132,-1,37
 370 -31 370 -31 322 19 c 0,38,39
 302 39 302 39 287.5 74.5 c 128,-1,40
 273 110 273 110 273 140.5 c 128,-1,41
 273 171 273 171 264.5 207 c 128,-1,42
 256 243 256 243 240.5 267.5 c 128,-1,43
 225 292 225 292 225 311 c 128,-1,44
 225 330 225 330 243 359 c 0,45,46
 273 407 273 407 273 469 c 128,-1,47
 273 531 273 531 290 567 c 128,-1,48
 307 603 307 603 337 603 c 0,49,50
 351 603 351 603 360.5 617.5 c 128,-1,51
 370 632 370 632 370 652 c 0,52,53
 370 701 370 701 322 701 c 0,54,55
 262 701 262 701 219 644.5 c 128,-1,56
 176 588 176 588 176 509 c 0,57,58
 176 468 176 468 166 432.5 c 128,-1,59
 156 397 156 397 140 384 c 0,60,61
 104 354 104 354 104 310.5 c 128,-1,62
 104 267 104 267 137 255 c 0,63,64
 170 242 170 242 181 104 c 0,65,66
 186 43 186 43 199 -1.5 c 128,-1,67
 212 -46 212 -46 227 -56 c 0,34,35
EndSplineSet
Validated: 1
EndChar

StartChar: braceright
Encoding: 125 125 2
Width: 451
Flags: W
HStem: -152 73<109.741 236.066> 696 54<106.109 213.469>
VStem: 30 75<-70.7675 0.524584 605.88 695.796> 134 113<273.365 358.68> 275 73<-36.0693 192.979> 373 48<266.565 351.537>
LayerCount: 2
Fore
SplineSet
293.5 -89.5 m 128,-1,1
 239 -152 239 -152 152 -152 c 128,-1,2
 65 -152 65 -152 47.5 -134.5 c 132,-1,3
 30 -117 30 -117 30 -72.5 c 128,-1,4
 30 -28 30 -28 44.5 13.5 c 128,-1,5
 59 55 59 55 86.5 73.5 c 128,-1,6
 114 92 114 92 123.5 129.5 c 128,-1,7
 133 167 133 167 134 277 c 1,8,-1
 134 304 l 2,9,10
 134 438 134 438 118.5 496.5 c 128,-1,11
 103 555 103 555 67 555 c 0,12,13
 33 555 33 555 33 652 c 2,14,-1
 33 750 l 1,15,-1
 137 750 l 2,16,17
 246 750 246 750 288 712 c 128,-1,18
 330 674 330 674 342 565 c 0,19,20
 347 516 347 516 360.5 474.5 c 128,-1,21
 374 433 374 433 388 425 c 0,22,23
 421 405 421 405 421 316 c 0,24,25
 421 275 421 275 411.5 243 c 128,-1,26
 402 211 402 211 385 205 c 0,27,28
 348 190 348 190 348 81.5 c 128,-1,0
 348 -27 348 -27 293.5 -89.5 c 128,-1,1
246 -50 m 4,29,30
 258 -38 258 -38 266.5 5 c 128,-1,31
 275 48 275 48 275 106 c 128,-1,32
 275 164 275 164 285 195 c 128,-1,33
 295 226 295 226 319.5 241 c 128,-1,34
 344 256 344 256 358.5 274 c 128,-1,35
 373 292 373 292 373 305 c 128,-1,36
 373 318 373 318 358.5 341 c 128,-1,37
 344 364 344 364 324 384 c 0,38,39
 275 433 275 433 275 521 c 128,-1,40
 275 609 275 609 255 641 c 128,-1,41
 235 673 235 673 172 689 c 0,42,43
 147 696 147 696 131.5 696 c 128,-1,44
 116 696 116 696 110.5 687.5 c 128,-1,45
 105 679 105 679 105 658 c 128,-1,46
 105 637 105 637 116 618.5 c 128,-1,47
 127 600 127 600 142 595 c 0,48,49
 178 581 178 581 178 496 c 0,50,51
 178 461 178 461 190 424.5 c 128,-1,52
 202 388 202 388 224.5 364.5 c 128,-1,53
 247 341 247 341 247 326.5 c 128,-1,54
 247 312 247 312 224.5 273 c 128,-1,55
 202 234 202 234 190 189.5 c 128,-1,56
 178 145 178 145 178 109 c 0,57,58
 178 24 178 24 142 10 c 0,59,60
 127 4 127 4 116 -11 c 128,-1,61
 105 -26 105 -26 105 -42.5 c 128,-1,62
 105 -59 105 -59 123 -69 c 128,-1,63
 141 -79 141 -79 167 -79 c 0,64,65
 217 -79 217 -79 246 -50 c 4,29,30
EndSplineSet
Validated: 1
EndChar

StartChar: bar
Encoding: 124 124 3
Width: 230
Flags: W
HStem: -117 49<103.049 120.951> 711 49<103.049 120.951>
VStem: 39 49<107.065 536.218> 136 73<83.7844 559.442>
LayerCount: 2
Fore
SplineSet
39 -117 m 5,0,1
 39 760 l 1,2,3
 209 760 l 1,4,5
 209 -117 l 1,6,7
 39 -117 l 5,0,1
112 -68 m 128,-1,9
 136 -68 136 -68 136 321.5 c 132,-1,10
 136 711 136 711 112 711 c 128,-1,11
 88 711 88 711 88 321.5 c 128,-1,8
 88 -68 88 -68 112 -68 c 128,-1,9
EndSplineSet
Validated: 1
EndChar

StartChar: s
Encoding: 115 115 4
Width: 605
Flags: W
HStem: -22 58<169.725 413.762> 124 52<114.316 175.436> 283 118<249.891 401.387> 459 56<203.018 426.297>
VStem: 30 83<78.2931 145> 54 55<293.586 395.054> 453 108<376 428.086> 513 62<113.368 210.509>
LayerCount: 2
Fore
SplineSet
94 29 m 0,0,1
 68 50 68 50 49 78.5 c 128,-1,2
 30 107 30 107 30 131 c 128,-1,3
 30 155 30 155 48 165 c 128,-1,4
 66 175 66 175 121 176.5 c 128,-1,5
 176 178 176 178 176 185 c 0,6,7
 176 188 176 188 163 191 c 0,8,9
 101 206 101 206 77.5 239.5 c 128,-1,10
 54 273 54 273 54 346 c 0,11,12
 54 439 54 439 109 477 c 128,-1,13
 164 515 164 515 299 515 c 0,14,15
 375 515 375 515 419.5 504 c 128,-1,16
 464 493 464 493 500 464 c 0,17,18
 561 415 561 415 561 387 c 128,-1,19
 561 359 561 359 522 329 c 0,20,21
 498 311 498 311 498 303.5 c 128,-1,22
 498 296 498 296 510 296 c 0,23,24
 537 295 537 295 556 255.5 c 128,-1,25
 575 216 575 216 575 172 c 0,26,27
 575 50 575 50 472 6 c 0,28,29
 407 -22 407 -22 282 -22 c 128,-1,30
 157 -22 157 -22 94 29 c 0,0,1
340 400 m 2,31,-1
 371 399 l 1,32,33
 453 399 453 399 453 417 c 128,-1,34
 453 435 453 435 370 454 c 0,35,36
 347 459 347 459 324 459 c 0,37,38
 260 459 260 459 195 434.5 c 128,-1,39
 130 410 130 410 118 379 c 0,40,41
 109 358 109 358 109 340 c 0,42,43
 109 299 109 299 164 270 c 128,-1,44
 219 241 219 241 353 211 c 0,45,46
 385 204 385 204 402 186.5 c 128,-1,47
 419 169 419 169 419 146.5 c 128,-1,48
 419 124 419 124 397 104 c 0,49,50
 369 79 369 79 314.5 79 c 128,-1,51
 260 79 260 79 237.5 101.5 c 128,-1,52
 215 124 215 124 164 124 c 128,-1,53
 113 124 113 124 113 107 c 0,54,55
 113 104 113 104 116 99 c 0,56,57
 134 69 134 69 182 52.5 c 128,-1,58
 230 36 230 36 289 36 c 0,59,60
 409 36 409 36 469 90 c 0,61,62
 513 129 513 129 513 165 c 0,63,64
 513 242 513 242 324 283 c 0,65,66
 258 297 258 297 235 312 c 128,-1,67
 212 327 212 327 212 355.5 c 128,-1,68
 212 384 212 384 226 392.5 c 128,-1,69
 240 401 240 401 280 401 c 128,-1,70
 320 401 320 401 340 400 c 2,31,-1
EndSplineSet
Validated: 1
EndChar

StartChar: t
Encoding: 116 116 5
Width: 464
Flags: W
HStem: -24 55<202.462 354.542> 318 73<328.075 366.141> 464 49<52 115 328.01 365.662> 597 86<205.996 297>
VStem: 30 48<394.651 459.832> 273 48<176.74 312.52 519.736 596.988> 364 70<-2 95.9934> 370 48<397.15 457.331>
LayerCount: 2
Fore
SplineSet
213.5 -14 m 128,-1,1
 160 -4 160 -4 144 12 c 128,-1,2
 128 28 128 28 112.5 78 c 128,-1,3
 97 128 97 128 89.5 183.5 c 128,-1,4
 82 239 82 239 71 282.5 c 128,-1,5
 60 326 60 326 51 332 c 0,6,7
 30 344 30 344 30 427 c 0,8,9
 30 462 30 462 36 487.5 c 128,-1,10
 42 513 42 513 52 513 c 128,-1,11
 62 513 62 513 73 527.5 c 128,-1,12
 84 542 84 542 91 562 c 0,13,14
 103 600 103 600 169 641.5 c 128,-1,15
 235 683 235 683 284 683 c 0,16,17
 321 683 321 683 321 598 c 0,18,19
 321 546 321 546 330.5 529.5 c 128,-1,20
 340 513 340 513 370 513 c 128,-1,21
 400 513 400 513 409 494.5 c 128,-1,22
 418 476 418 476 418 415 c 128,-1,23
 418 354 418 354 409 336 c 128,-1,24
 400 318 400 318 371 318 c 128,-1,25
 342 318 342 318 331.5 302.5 c 128,-1,26
 321 287 321 287 321 245 c 128,-1,27
 321 203 321 203 331 187.5 c 128,-1,28
 341 172 341 172 367 172 c 0,29,30
 412 172 412 172 427 96 c 0,31,32
 434 65 434 65 434 36.5 c 128,-1,33
 434 8 434 8 429 -2 c 0,34,35
 414 -24 414 -24 340.5 -24 c 128,-1,0
 267 -24 267 -24 213.5 -14 c 128,-1,1
363 65 m 0,36,37
 364 67 364 67 364 73.5 c 128,-1,38
 364 80 364 80 352 90 c 128,-1,39
 340 100 340 100 322 105 c 0,40,41
 291 113 291 113 282 140 c 128,-1,42
 273 167 273 167 273 256 c 128,-1,43
 273 345 273 345 281 368 c 128,-1,44
 289 391 289 391 315 391 c 128,-1,45
 341 391 341 391 355.5 401.5 c 128,-1,46
 370 412 370 412 370 427.5 c 128,-1,47
 370 443 370 443 355.5 453.5 c 128,-1,48
 341 464 341 464 317 464 c 128,-1,49
 293 464 293 464 283 479 c 128,-1,50
 273 494 273 494 273 532.5 c 128,-1,51
 273 571 273 571 270 584 c 128,-1,52
 267 597 267 597 256.5 597 c 128,-1,53
 246 597 246 597 216.5 583.5 c 128,-1,54
 187 570 187 570 169 548.5 c 128,-1,55
 151 527 151 527 151 508.5 c 128,-1,56
 151 490 151 490 140.5 477 c 128,-1,57
 130 464 130 464 115 464 c 128,-1,58
 100 464 100 464 89 453 c 128,-1,59
 78 442 78 442 78 427 c 128,-1,60
 78 412 78 412 89 401.5 c 128,-1,61
 100 391 100 391 115 391 c 0,62,63
 136 391 136 391 143.5 361 c 128,-1,64
 151 331 151 331 151 246 c 0,65,66
 151 102 151 102 191 62 c 0,67,68
 222 31 222 31 286.5 31 c 128,-1,69
 351 31 351 31 363 65 c 0,36,37
EndSplineSet
Validated: 1
EndChar

StartChar: u
Encoding: 117 117 6
Width: 618
Flags: W
HStem: -23 45<422.757 504.709> 461 49<112.62 191.061 402.69 505.504>
VStem: 30 73<96.6125 454.822> 200 73<175.831 455.555> 341 54<197.232 454.727> 348 241<350.893 509.354> 516 73<28.6661 454.582>
LayerCount: 2
Fore
SplineSet
299 173 m 1,0,1
 302 174 302 174 303 174 c 0,2,3
 333 185 333 185 341 347 c 2,4,-1
 348 509 l 1,5,-1
 588 509 l 1,6,-1
 588 -24 l 1,7,-1
 356 -23 l 2,8,9
 208 -23 208 -23 157 -14.5 c 128,-1,10
 106 -6 106 -6 77 23.5 c 128,-1,11
 48 53 48 53 39 102.5 c 128,-1,12
 30 152 30 152 30 290 c 2,13,-1
 30 509 l 1,14,-1
 273 509 l 1,15,-1
 273 337 l 2,16,17
 273 173 273 173 299 173 c 1,0,1
143 67 m 0,18,19
 180 25 180 25 209 25 c 128,-1,20
 238 25 238 25 296.5 59 c 128,-1,21
 355 93 355 93 386.5 93 c 128,-1,22
 418 93 418 93 418 59 c 0,23,24
 418 43 418 43 432.5 32.5 c 128,-1,25
 447 22 447 22 467 22 c 0,26,27
 501 22 501 22 508.5 55.5 c 128,-1,28
 516 89 516 89 516 246.5 c 128,-1,29
 516 404 516 404 508 432.5 c 128,-1,30
 500 461 500 461 455 461 c 0,31,32
 424 461 424 461 412 453 c 0,33,34
 400 444 400 444 398 424 c 0,35,36
 394 384 394 384 394 288 c 0,37,38
 394 188 394 188 372 141.5 c 128,-1,39
 350 95 350 95 293 95 c 0,40,41
 200 95 200 95 200 325 c 0,42,43
 200 414 200 414 191.5 437.5 c 128,-1,44
 183 461 183 461 151 461 c 0,45,46
 127 461 127 461 120 452 c 128,-1,47
 113 443 113 443 110.5 433 c 128,-1,48
 108 423 108 423 106 401 c 0,49,50
 103 368 103 368 103 278.5 c 128,-1,51
 103 189 103 189 112 140 c 128,-1,52
 121 91 121 91 143 67 c 0,18,19
EndSplineSet
Validated: 1
EndChar

StartChar: v
Encoding: 118 118 7
Width: 667
Flags: W
HStem: 0 49<280.93 372.384> 487 49<103.815 209.49 457.282 539.929>
LayerCount: 2
Fore
SplineSet
202 55 m 0,0,1
 199 63 199 63 182.5 104.5 c 128,-1,2
 166 146 166 146 145 199.5 c 128,-1,3
 124 253 124 253 77 371 c 128,-1,4
 30 489 30 489 30 512 c 0,5,6
 30 522 30 522 65.5 529 c 128,-1,7
 101 536 101 536 151 536 c 2,8,-1
 271 536 l 1,9,-1
 335 316 l 1,10,-1
 394 536 l 1,11,-1
 516 536 l 2,12,13
 566 536 566 536 601.5 530.5 c 128,-1,14
 637 525 637 525 637 518 c 0,15,16
 637 499 637 499 537 250 c 2,17,-1
 437 0 l 1,18,-1
 330 0 l 2,19,20
 264 0 264 0 239.5 10.5 c 128,-1,21
 215 21 215 21 202 55 c 0,0,1
389 91 m 128,-1,23
 416 133 416 133 479.5 289 c 128,-1,24
 543 445 543 445 543 463 c 128,-1,25
 543 481 543 481 535 484 c 128,-1,26
 527 487 527 487 506 487 c 0,27,28
 471 487 471 487 453 460.5 c 128,-1,29
 435 434 435 434 410 341 c 0,30,31
 370 195 370 195 333.5 195 c 128,-1,32
 297 195 297 195 257 341 c 0,33,34
 231 435 231 435 213.5 461 c 128,-1,35
 196 487 196 487 160 487 c 2,36,-1
 104 487 l 1,37,-1
 149 372 l 2,38,39
 244 131 244 131 267 90 c 128,-1,40
 290 49 290 49 326 49 c 128,-1,22
 362 49 362 49 389 91 c 128,-1,23
EndSplineSet
Validated: 1
EndChar

StartChar: w
Encoding: 119 119 8
Width: 950
Flags: W
HStem: -17 49<256.903 344.288> 471 49<423.809 514.584>
LayerCount: 2
Fore
SplineSet
209.5 14 m 128,-1,1
 190 28 190 28 149 140 c 128,-1,2
 108 252 108 252 69 360 c 128,-1,3
 30 468 30 468 30 493 c 128,-1,4
 30 518 30 518 43.5 525.5 c 128,-1,5
 57 533 57 533 78 533 c 128,-1,6
 99 533 99 533 137 531 c 128,-1,7
 175 529 175 529 189.5 528 c 128,-1,8
 204 527 204 527 221.5 521.5 c 128,-1,9
 239 516 239 516 244.5 511.5 c 128,-1,10
 250 507 250 507 258.5 491.5 c 128,-1,11
 267 476 267 476 270.5 462.5 c 128,-1,12
 274 449 274 449 281 418 c 2,13,-1
 307 311 l 1,14,-1
 337 424 l 2,15,16
 346 458 346 458 349.5 471.5 c 128,-1,17
 353 485 353 485 362.5 502 c 128,-1,18
 372 519 372 519 376.5 522.5 c 128,-1,19
 381 526 381 526 398.5 531 c 128,-1,20
 416 536 416 536 429 536 c 2,21,-1
 475 536 l 2,22,23
 555 536 555 536 573.5 522.5 c 128,-1,24
 592 509 592 509 614 433 c 2,25,-1
 645 330 l 1,26,-1
 672 427 l 2,27,28
 686 478 686 478 697.5 495.5 c 128,-1,29
 709 513 709 513 731 520 c 128,-1,30
 753 527 753 527 803.5 530 c 128,-1,31
 854 533 854 533 874 533 c 128,-1,32
 894 533 894 533 907 525 c 128,-1,33
 920 517 920 517 920 494 c 0,34,35
 920 452 920 452 843 241 c 1,36,-1
 761 12 l 1,37,-1
 650 5 l 1,38,-1
 539 -3 l 1,39,-1
 482 207 l 1,40,-1
 446 104 l 2,41,42
 419 26 419 26 402 14 c 0,43,44
 386 2 386 2 361 1 c 128,-1,45
 336 0 336 0 306 0 c 0,46,0
 229 0 229 0 209.5 14 c 128,-1,1
400 184 m 0,47,48
 442 314 442 314 481 314 c 0,49,50
 522 314 522 314 558 176 c 0,51,52
 579 98 579 98 596 73.5 c 128,-1,53
 613 49 613 49 650 49 c 128,-1,54
 687 49 687 49 713.5 103 c 128,-1,55
 740 157 740 157 794 308.5 c 128,-1,56
 848 460 848 460 848 464 c 0,57,58
 848 487 848 487 814 487 c 128,-1,59
 780 487 780 487 763.5 459.5 c 128,-1,60
 747 432 747 432 726 347 c 0,61,62
 690 200 690 200 652.5 200 c 128,-1,63
 615 200 615 200 573 340 c 0,64,65
 546 431 546 431 527.5 459 c 128,-1,66
 509 487 509 487 476 487 c 128,-1,67
 443 487 443 487 424.5 459.5 c 128,-1,68
 406 432 406 432 383 356 c 128,-1,69
 360 280 360 280 338 237.5 c 128,-1,70
 316 195 316 195 303 195 c 128,-1,71
 290 195 290 195 272.5 225.5 c 128,-1,72
 255 256 255 256 232 345 c 128,-1,73
 209 434 209 434 205 448 c 128,-1,74
 201 462 201 462 184 474.5 c 128,-1,75
 167 487 167 487 148 487 c 0,76,77
 119 487 119 487 119 465 c 0,78,79
 119 436 119 436 172.5 283 c 128,-1,80
 226 130 226 130 249.5 89.5 c 128,-1,81
 273 49 273 49 305 49 c 128,-1,82
 337 49 337 49 355.5 75.5 c 128,-1,83
 374 102 374 102 400 184 c 0,47,48
EndSplineSet
Validated: 1
EndChar

StartChar: x
Encoding: 120 120 9
Width: 667
Flags: W
HStem: 16 48<114.736 197.71 445.051 564.158> 503 49<101.281 223.438 442.539 541.967>
VStem: 30 84<39.5 113.797> 152 70<243.954 336.987>
LayerCount: 2
Fore
SplineSet
54.5 24 m 128,-1,1
 30 32 30 32 30 50.5 c 128,-1,2
 30 69 30 69 48 107 c 128,-1,3
 66 145 66 145 109 208.5 c 128,-1,4
 152 272 152 272 152 290.5 c 128,-1,5
 152 309 152 309 92.5 397.5 c 128,-1,6
 33 486 33 486 33 511.5 c 128,-1,7
 33 537 33 537 62 544.5 c 128,-1,8
 91 552 91 552 168.5 552 c 128,-1,9
 246 552 246 552 272.5 542.5 c 128,-1,10
 299 533 299 533 310 501 c 2,11,-1
 326 450 l 1,12,-1
 362 501 l 2,13,14
 382 531 382 531 414 541.5 c 128,-1,15
 446 552 446 552 507.5 552 c 128,-1,16
 569 552 569 552 603 544.5 c 128,-1,17
 637 537 637 537 637 526 c 0,18,19
 637 499 637 499 567 397 c 2,20,-1
 497 295 l 1,21,-1
 566 198 l 2,22,23
 637 98 637 98 637 67 c 128,-1,24
 637 36 637 36 608.5 26 c 128,-1,25
 580 16 580 16 513.5 16 c 128,-1,26
 447 16 447 16 415 26.5 c 128,-1,27
 383 37 383 37 361 67 c 1,28,-1
 325 119 l 1,29,-1
 293 67 l 2,30,31
 274 36 274 36 244.5 26 c 128,-1,32
 215 16 215 16 147 16 c 128,-1,0
 79 16 79 16 54.5 24 c 128,-1,1
197.5 85.5 m 128,-1,34
 227 107 227 107 248.5 137.5 c 128,-1,35
 270 168 270 168 295.5 189.5 c 128,-1,36
 321 211 321 211 335 211 c 128,-1,37
 349 211 349 211 370 189.5 c 128,-1,38
 391 168 391 168 406 138 c 0,39,40
 444 64 444 64 505 64 c 2,41,-1
 566 64 l 1,42,-1
 504 155 l 2,43,44
 446 241 446 241 446 292.5 c 128,-1,45
 446 344 446 344 493 421 c 2,46,-1
 544 503 l 1,47,-1
 494 503 l 2,48,49
 474 503 474 503 447 485 c 128,-1,50
 420 467 420 467 403.5 442 c 128,-1,51
 387 417 387 417 367 399 c 128,-1,52
 347 381 347 381 334 381 c 128,-1,53
 321 381 321 381 300.5 399 c 128,-1,54
 280 417 280 417 263 442 c 0,55,56
 223 503 223 503 162 503 c 2,57,-1
 101 503 l 1,58,-1
 162 422 l 1,59,60
 222 344 222 344 222 297 c 128,-1,61
 222 250 222 250 180 190 c 0,62,63
 114 93 114 93 114 77 c 0,64,65
 114 64 114 64 141 64 c 128,-1,33
 168 64 168 64 197.5 85.5 c 128,-1,34
EndSplineSet
Validated: 1
EndChar

StartChar: z
Encoding: 122 122 10
Width: 596
VWidth: 25141
Flags: W
HStem: -9 49<111.675 512.418> 113 49<368.291 512.156> 357 49<133.573 231.722> 479 43<135.055 490.519> 509 20G<56 305>
VStem: 30 75<51.4716 131.542> 56 73<415.475 467.146> 494 67<413.718 466.367> 518 48<52.1094 101.431>
LayerCount: 2
Fore
SplineSet
48 8 m 0,0,1
 30 26 30 26 30 56 c 0,2,3
 30 137 30 137 132 248 c 2,4,-1
 233 357 l 1,5,-1
 145 357 l 2,6,7
 81 357 81 357 68.5 369 c 128,-1,8
 56 381 56 381 56 443 c 2,9,-1
 56 529 l 1,10,-1
 305 522 l 2,11,12
 479 517 479 517 518 508.5 c 128,-1,13
 557 500 557 500 561 465 c 1,14,-1
 561 459 l 2,15,16
 561 408 561 408 468 288 c 1,17,-1
 368 162 l 1,18,-1
 467 162 l 2,19,20
 540 162 540 162 553 150.5 c 128,-1,21
 566 139 566 139 566 77 c 2,22,-1
 566 -9 l 1,23,-1
 315 -9 l 2,24,25
 212 -9 212 -9 133.5 -4 c 128,-1,26
 55 1 55 1 48 8 c 0,0,1
518 77 m 0,27,28
 518 97 518 97 491.5 105 c 128,-1,29
 465 113 465 113 399.5 113 c 128,-1,30
 334 113 334 113 306.5 121 c 128,-1,31
 279 129 279 129 279 150 c 0,32,33
 279 186 279 186 384 303 c 0,34,35
 430 354 430 354 462 397.5 c 128,-1,36
 494 441 494 441 494 452 c 0,37,38
 494 479 494 479 311 479 c 0,39,40
 203 479 203 479 166 471.5 c 128,-1,41
 129 464 129 464 129 442 c 0,42,43
 129 423 129 423 151 414.5 c 128,-1,44
 173 406 173 406 226 406 c 0,45,46
 319 406 319 406 319 373 c 0,47,48
 319 338 319 338 214 235 c 0,49,50
 169 191 169 191 137 146.5 c 128,-1,51
 105 102 105 102 105 85 c 128,-1,52
 105 68 105 68 111 60 c 0,53,54
 117 54 117 54 141 48 c 0,55,56
 173 40 173 40 305 40 c 129,-1,58
 437 40 437 40 477.5 47 c 128,-1,59
 518 54 518 54 518 77 c 0,27,28
EndSplineSet
Validated: 1
EndChar

StartChar: asciitilde
Encoding: 126 126 11
Width: 618
VWidth: 25256
Flags: W
HStem: 268 51<339.019 457.353> 323 62<125.378 268.851> 412 61<352.298 485.879> 476 56<144.163 261.795> 491 20G<531.903 557.685>
VStem: 30 51<333.263 424.403> 513 75<358.382 454.728>
LayerCount: 2
Fore
SplineSet
541 511 m 0,0,1
 588 511 588 511 588 431.5 c 128,-1,2
 588 352 588 352 541.5 310 c 128,-1,3
 495 268 495 268 421.5 268 c 128,-1,4
 348 268 348 268 282 295.5 c 128,-1,5
 216 323 216 323 190.5 323 c 128,-1,6
 165 323 165 323 118.5 297.5 c 128,-1,7
 72 272 72 272 55.5 272 c 128,-1,8
 39 272 39 272 34.5 292 c 128,-1,9
 30 312 30 312 30 367 c 0,10,11
 30 468 30 468 72.5 500 c 128,-1,12
 115 532 115 532 197.5 532 c 128,-1,13
 280 532 280 532 347 497 c 0,14,15
 394 473 394 473 419 473 c 128,-1,16
 444 473 444 473 479 492 c 128,-1,17
 514 511 514 511 541 511 c 0,0,1
121 380 m 1,18,-1
 185 385 l 1,19,20
 257 385 257 385 312 355 c 0,21,22
 320 351 320 351 330 345.5 c 128,-1,23
 340 340 340 340 345 337 c 128,-1,24
 350 334 350 334 357 330.5 c 128,-1,25
 364 327 364 327 368 325.5 c 128,-1,26
 372 324 372 324 376 322 c 0,27,28
 384 319 384 319 392.5 319 c 128,-1,29
 401 319 401 319 457 340.5 c 128,-1,30
 513 362 513 362 513 384 c 0,31,32
 513 397 513 397 491 404.5 c 128,-1,33
 469 412 469 412 431.5 412 c 128,-1,34
 394 412 394 412 347 423.5 c 128,-1,35
 300 435 300 435 260 455.5 c 128,-1,36
 220 476 220 476 199 476 c 128,-1,37
 178 476 178 476 129.5 444.5 c 128,-1,38
 81 413 81 413 81 395 c 0,39,40
 81 380 81 380 121 380 c 1,18,-1
EndSplineSet
Validated: 1
EndChar

StartChar: g
Encoding: 103 103 12
Width: 637
VWidth: 18263
Flags: W
HStem: -37 69<285.735 349.419> 520 45<441.396 522.764>
VStem: 49 73<-49.2912 5.16908> 534 73<60.9387 501.966>
LayerCount: 2
Fore
SplineSet
551 -71 m 128,-1,1
 520 -114 520 -114 455 -136.5 c 128,-1,2
 390 -159 390 -159 313.5 -159 c 128,-1,3
 237 -159 237 -159 180 -145 c 128,-1,4
 123 -131 123 -131 86 -87.5 c 128,-1,5
 49 -44 49 -44 49 18.5 c 128,-1,6
 49 81 49 81 89 81 c 0,7,8
 116 81 116 81 116 87.5 c 128,-1,9
 116 94 116 94 87 128 c 0,10,11
 30 191 30 191 30 317 c 0,12,13
 30 393 30 393 54 457 c 128,-1,14
 78 521 78 521 118.5 542 c 128,-1,15
 159 563 159 563 383 565 c 2,16,-1
 607 566 l 1,17,-1
 607 298 l 2,18,19
 607 140 607 140 594.5 56 c 128,-1,0
 582 -28 582 -28 551 -71 c 128,-1,1
486 -41 m 0,20,21
 517 -9 517 -9 525.5 44 c 128,-1,22
 534 97 534 97 534 270 c 128,-1,23
 534 443 534 443 527 481.5 c 128,-1,24
 520 520 520 520 486 520 c 0,25,26
 466 520 466 520 451.5 509 c 128,-1,27
 437 498 437 498 437 483 c 0,28,29
 437 449 437 449 414 449 c 0,30,31
 389 449 389 449 328 483.5 c 128,-1,32
 267 518 267 518 247.5 518 c 128,-1,33
 228 518 228 518 177 480 c 0,34,35
 97 421 97 421 97 314 c 0,36,37
 97 226 97 226 158 165 c 0,38,39
 207 114 207 114 246 114 c 0,40,41
 250 114 250 114 273 122 c 128,-1,42
 296 130 296 130 339 141 c 128,-1,43
 382 152 382 152 391 152 c 0,44,45
 411 152 411 152 411 118 c 0,46,47
 411 12 411 12 391 -14 c 0,48,49
 378 -31 378 -31 331 -37 c 0,50,51
 324 -38 324 -38 311 -38 c 0,52,53
 255 -38 255 -38 232.5 -15.5 c 128,-1,54
 210 7 210 7 165.5 7 c 128,-1,55
 121 7 121 7 121 -15 c 0,56,57
 121 -49 121 -49 177.5 -69 c 128,-1,58
 234 -89 234 -89 309 -89 c 0,59,60
 438 -89 438 -89 486 -41 c 0,20,21
246.5 193 m 128,-1,62
 232 205 232 205 218 242 c 128,-1,63
 204 279 204 279 204 320.5 c 128,-1,64
 204 362 204 362 225 395 c 0,65,66
 255 442 255 442 320 442 c 0,67,68
 409 442 409 442 409 316 c 0,69,70
 409 299 409 299 408 290 c 0,71,72
 403 221 403 221 390 204.5 c 128,-1,73
 377 188 377 188 322 183 c 0,74,75
 300 181 300 181 280.5 181 c 128,-1,61
 261 181 261 181 246.5 193 c 128,-1,62
352 314 m 128,-1,77
 352 336 352 336 342.5 348 c 128,-1,78
 333 360 333 360 318 360 c 128,-1,79
 303 360 303 360 289 345 c 0,80,81
 269 324 269 324 269 282 c 0,82,83
 269 254 269 254 292 254 c 0,84,85
 322 254 322 254 337 273 c 128,-1,76
 352 292 352 292 352 314 c 128,-1,77
351 55 m 0,86,87
 353 59 353 59 353 60 c 0,88,89
 353 67 353 67 341.5 67 c 128,-1,90
 330 67 330 67 316 64 c 0,91,92
 268 52 268 52 268 41 c 0,93,94
 268 32 268 32 302.5 32 c 128,-1,95
 337 32 337 32 351 55 c 0,86,87
EndSplineSet
Validated: 1
EndChar

StartChar: j
Encoding: 106 106 13
Width: 395
VWidth: 25229
Flags: W
HStem: 487 97<206.579 306.304>
VStem: 128 68<138.291 477.579> 135 61<591.944 651.028> 317 49<96.7198 462.893 591.944 651.028>
LayerCount: 2
Fore
SplineSet
259 -171 m 128,-1,1
 200 -187 200 -187 129 -187 c 0,2,3
 126 -187 126 -187 123 -187 c 128,-1,4
 120 -187 120 -187 118 -187 c 128,-1,5
 116 -187 116 -187 113 -187 c 0,6,7
 110.8 -187.04 110.8 -187.04 108.656 -187.04 c 0,8,9
 57.2 -187.04 57.2 -187.04 38 -164 c 0,10,11
 30 -154 30 -154 30 -136 c 128,-1,12
 30 -118 30 -118 36 -88 c 128,-1,13
 42 -58 42 -58 57 -27.5 c 128,-1,14
 72 3 72 3 89 16.5 c 128,-1,15
 106 30 106 30 115 105 c 128,-1,16
 124 180 124 180 128 368 c 2,17,-1
 135 695 l 1,18,-1
 366 709 l 1,19,-1
 366 311 l 2,20,21
 366 -87 366 -87 335 -131 c 0,22,0
 318 -155 318 -155 259 -171 c 128,-1,1
156 -118 m 0,23,24
 252 -118 252 -118 284.5 -51.5 c 128,-1,25
 317 15 317 15 317 221.5 c 128,-1,26
 317 428 317 428 309.5 457.5 c 128,-1,27
 302 487 302 487 256.5 487 c 128,-1,28
 211 487 211 487 203.5 456.5 c 128,-1,29
 196 426 196 426 196 254 c 128,-1,30
 196 82 196 82 187.5 36 c 128,-1,31
 179 -10 179 -10 147 -30 c 0,32,33
 98 -61 98 -61 98 -88 c 0,34,35
 98 -118 98 -118 156 -118 c 0,23,24
317 621 m 0,36,37
 317 658 317 658 256 658 c 0,38,39
 228 658 228 658 212 648 c 128,-1,40
 196 638 196 638 196 621 c 128,-1,41
 196 604 196 604 212 594.5 c 128,-1,42
 228 585 228 585 256 585 c 128,-1,43
 284 585 284 585 300.5 594.5 c 128,-1,44
 317 604 317 604 317 621 c 0,36,37
EndSplineSet
Validated: 524289
EndChar

StartChar: p
Encoding: 112 112 14
Width: 639
VWidth: 21603
Flags: W
HStem: -165 49<115.82 192.072> 493 46<115.82 195.681>
VStem: 30 73<-50.5613 427.144> 200 73<-111.384 -4.64615> 358 61<210.324 328.542>
LayerCount: 2
Fore
SplineSet
30 -165 m 1,0,-1
 30 540 l 1,1,-1
 241 539 l 2,2,3
 339 539 339 539 391.5 534.5 c 128,-1,4
 444 530 444 530 483.5 514 c 128,-1,5
 523 498 523 498 541.5 473 c 128,-1,6
 560 448 560 448 584.5 389.5 c 128,-1,7
 609 331 609 331 609 262 c 0,8,9
 609 153 609 153 542 79.5 c 128,-1,10
 475 6 475 6 367 6 c 0,11,12
 299 6 299 6 286 -6 c 128,-1,13
 273 -18 273 -18 273 -80 c 2,14,-1
 273 -165 l 1,15,-1
 30 -165 l 1,0,-1
191 -98 m 128,-1,17
 200 -80 200 -80 200 -19 c 128,-1,18
 200 42 200 42 212.5 69 c 128,-1,19
 225 96 225 96 253 96 c 128,-1,20
 281 96 281 96 322 78.5 c 128,-1,21
 363 61 363 61 387.5 61 c 128,-1,22
 412 61 412 61 454 88 c 0,23,24
 495 115 495 115 516.5 164.5 c 128,-1,25
 538 214 538 214 538 272.5 c 128,-1,26
 538 331 538 331 515.5 382 c 128,-1,27
 493 433 493 433 450 461.5 c 128,-1,28
 407 490 407 490 387.5 490 c 128,-1,29
 368 490 368 490 308.5 456 c 128,-1,30
 249 422 249 422 223 422 c 0,31,32
 200 422 200 422 200 456 c 0,33,34
 200 472 200 472 185.5 482.5 c 128,-1,35
 171 493 171 493 148 493 c 128,-1,36
 125 493 125 493 117 475 c 0,37,38
 103 445 103 445 103 198 c 128,-1,39
 103 -49 103 -49 111 -81 c 128,-1,40
 119 -113 119 -113 140 -115 c 0,41,42
 144 -116 144 -116 151 -116 c 0,43,16
 182 -116 182 -116 191 -98 c 128,-1,17
249 176 m 0,44,45
 202 223 202 223 202 269 c 128,-1,46
 202 315 202 315 239.5 368.5 c 128,-1,47
 277 422 277 422 320.5 422 c 128,-1,48
 364 422 364 422 391 380.5 c 128,-1,49
 418 339 418 339 418 270 c 0,50,51
 418 178 418 178 372 153 c 0,52,53
 331 130 331 130 316 130 c 128,-1,54
 301 130 301 130 288.5 139.5 c 128,-1,55
 276 149 276 149 249 176 c 0,44,45
358 275 m 128,-1,57
 358 302 358 302 345 321 c 128,-1,58
 332 340 332 340 312.5 340 c 128,-1,59
 293 340 293 340 282 310 c 0,60,61
 275 293 275 293 275 269 c 128,-1,62
 275 245 275 245 287.5 224 c 128,-1,63
 300 203 300 203 318 203 c 0,64,65
 337 203 337 203 347.5 225.5 c 128,-1,56
 358 248 358 248 358 275 c 128,-1,57
EndSplineSet
Validated: 1
EndChar

StartChar: q
Encoding: 113 113 15
Width: 618
VWidth: 24913
Flags: W
HStem: 505 37<437.628 513.842>
VStem: 358 49<-98.5046 29.8307> 528 61<-103.703 423.961>
LayerCount: 2
Fore
SplineSet
358 -155 m 1,0,1
 358 31 l 1,2,-1
 255 22 l 2,3,4
 232 20 232 20 202.5 20 c 128,-1,5
 173 20 173 20 148 32.5 c 128,-1,6
 123 45 123 45 88 82 c 128,-1,7
 53 119 53 119 41.5 158.5 c 128,-1,8
 30 198 30 198 30 292.5 c 128,-1,9
 30 387 30 387 41.5 421.5 c 128,-1,10
 53 456 53 456 94.5 492 c 128,-1,11
 136 528 136 528 171 538 c 128,-1,12
 206 548 206 548 258 548 c 0,13,14
 324 548 324 548 376 547 c 2,15,-1
 588 542 l 1,16,-1
 588 -140 l 1,17,18
 512 -145 512 -145 358 -155 c 1,0,1
479 505 m 0,19,20
 459 505 459 505 445 494.5 c 128,-1,21
 431 484 431 484 431 469 c 0,22,23
 431 435 431 435 408 435 c 128,-1,24
 385 435 385 435 314 470 c 0,25,26
 265 495 265 495 239 495 c 128,-1,27
 213 495 213 495 189 482 c 0,28,29
 141 457 141 457 115 404.5 c 128,-1,30
 89 352 89 352 89 290 c 0,31,32
 89 188 89 188 153 124 c 0,33,34
 181 96 181 96 196.5 85.5 c 128,-1,35
 212 75 212 75 236 75 c 128,-1,36
 260 75 260 75 313.5 92 c 128,-1,37
 367 109 367 109 370 110 c 0,38,39
 376 111 376 111 381 111 c 0,40,41
 396 111 396 111 401 90 c 128,-1,42
 406 69 406 69 406 0 c 128,-1,43
 406 -69 406 -69 415.5 -86.5 c 128,-1,44
 425 -104 425 -104 467 -104 c 2,45,-1
 528 -104 l 1,46,-1
 528 201 l 2,47,48
 528 438 528 438 518 476 c 1,49,50
 500 503 500 503 479 505 c 0,19,20
299 142 m 0,51,52
 260 142 260 142 221 203 c 0,53,54
 197 239 197 239 197 290.5 c 128,-1,55
 197 342 197 342 230 386.5 c 128,-1,56
 263 431 263 431 308 431 c 0,57,58
 378 431 378 431 398 335 c 0,59,60
 404 308 404 308 404 279 c 0,61,62
 404 198 404 198 367 171 c 0,63,64
 327 142 327 142 299 142 c 0,51,52
346 264 m 0,65,66
 351 279 351 279 351 295 c 128,-1,67
 351 311 351 311 346 325 c 0,68,69
 334 355 334 355 308 355 c 0,70,71
 280 355 280 355 268 321 c 0,72,73
 261 302 261 302 261 273.5 c 128,-1,74
 261 245 261 245 276.5 229.5 c 128,-1,75
 292 214 292 214 306 214 c 0,76,77
 330 214 330 214 346 264 c 0,65,66
EndSplineSet
Validated: 1
EndChar

StartChar: e
Encoding: 101 101 16
Width: 656
VWidth: 18358
Flags: W
HStem: 515 20G<264.396 400.553>
VStem: 223 219<299.856 397.3>
LayerCount: 2
Fore
SplineSet
153 32 m 0,0,1
 94 66 94 66 62.5 128.5 c 128,-1,2
 31 191 31 191 30 261 c 0,3,4
 30 264 30 264 30 267 c 0,5,6
 30 333 30 333 46 367 c 0,7,8
 62 402 62 402 114 454.5 c 128,-1,9
 166 507 166 507 201.5 521 c 128,-1,10
 237 535 237 535 319 535 c 0,11,12
 559 535 559 535 611 380 c 0,13,14
 627 331 627 331 627 273 c 0,15,16
 627 237 627 237 621 199 c 0,17,18
 605 97 605 97 559 56 c 0,19,20
 529 29 529 29 447 14 c 0,21,22
 384 3 384 3 319 3 c 0,23,24
 299 3 299 3 279 4 c 0,25,26
 192 9 192 9 153 32 c 0,0,1
438 74 m 0,27,28
 470 85 470 85 492.5 99.5 c 128,-1,29
 515 114 515 114 515 123 c 0,30,31
 515 137 515 137 491 143 c 0,32,33
 480 145 480 145 470 145 c 0,34,35
 456 145 456 145 441 142 c 0,36,37
 414 136 414 136 404.5 120.5 c 128,-1,38
 395 105 395 105 365 99 c 0,39,40
 352 97 352 97 340 97 c 0,41,42
 322 97 322 97 302 101 c 0,43,44
 269 108 269 108 255 123 c 128,-1,45
 241 138 241 138 232 163 c 128,-1,46
 223 188 223 188 223 211 c 0,47,48
 223 251 223 251 247.5 259 c 128,-1,49
 272 267 272 267 358 267 c 128,-1,50
 444 267 444 267 476 269 c 128,-1,51
 508 271 508 271 529.5 277 c 128,-1,52
 551 283 551 283 558.5 292.5 c 128,-1,53
 566 302 566 302 562 318 c 0,54,55
 556 345 556 345 505 406 c 0,56,57
 466 451 466 451 403 469 c 0,58,59
 368 479 368 479 333 479 c 0,60,61
 304 479 304 479 275 472 c 0,62,63
 210 458 210 458 165 415 c 0,64,65
 103 357 103 357 100 269 c 0,66,67
 100 266 100 266 100 263 c 0,68,69
 100 180 100 180 162 124 c 0,70,71
 226 66 226 66 286 54 c 0,72,73
 302 51 302 51 320 51 c 0,74,75
 322.04 50.96 322.04 50.96 324.1056 50.96 c 0,76,77
 373.68 50.96 373.68 50.96 438 74 c 0,27,28
223 335 m 0,78,79
 223 379 223 379 254.5 408.5 c 128,-1,80
 286 438 286 438 333 438 c 128,-1,81
 380 438 380 438 411 408.5 c 128,-1,82
 442 379 442 379 442 335 c 0,83,84
 442 308 442 308 420.5 299.5 c 128,-1,85
 399 291 399 291 343 291 c 128,-1,86
 287 291 287 291 264.5 295 c 128,-1,87
 242 299 242 299 232.5 308 c 128,-1,88
 223 317 223 317 223 335 c 0,78,79
320 343 m 0,89,90
 333 342 333 342 343 341 c 0,91,92
 365 341 365 341 365 349 c 0,93,94
 365 360 365 360 346 361 c 0,95,96
 329 362 329 362 316 357 c 0,97,98
 304 352 304 352 304 348 c 0,99,100
 303 345 303 345 320 343 c 0,89,90
EndSplineSet
Validated: 524289
EndChar

StartChar: f
Encoding: 102 102 17
Width: 479
VWidth: 24994
Flags: W
HStem: 497 171<251.509 348.066>
VStem: 30 73<424.801 497.083> 103 231<22.3145 171.5> 103 49<64.3971 345.824 550.156 587.284> 273 68<64.2603 326.473>
LayerCount: 2
Fore
SplineSet
103 177 m 2,0,1
 103 273 103 273 95 312.5 c 128,-1,2
 87 352 87 352 66 360 c 0,3,4
 30 374 30 374 30 460 c 0,5,6
 30 505 30 505 38.5 525.5 c 128,-1,7
 47 546 47 546 64 546 c 128,-1,8
 81 546 81 546 92 559.5 c 128,-1,9
 103 573 103 573 103 591 c 0,10,11
 103 655 103 655 161 686 c 0,12,13
 210 713 210 713 292 713 c 0,14,15
 308 713 308 713 325 712 c 0,16,17
 362 710 362 710 374.5 709.5 c 128,-1,18
 387 709 387 709 401.5 706 c 128,-1,19
 416 703 416 703 421 702.5 c 128,-1,20
 426 702 426 702 434 694.5 c 128,-1,21
 442 687 442 687 443.5 684 c 128,-1,22
 445 681 445 681 447.5 667 c 128,-1,23
 450 653 450 653 449 645 c 128,-1,24
 448 637 448 637 446 614.5 c 128,-1,25
 444 592 444 592 441.5 577.5 c 128,-1,26
 439 563 439 563 436.5 543.5 c 128,-1,27
 434 524 434 524 433.5 521.5 c 128,-1,28
 433 519 433 519 432 514 c 0,29,30
 431 505 431 505 427 478.5 c 128,-1,31
 423 452 423 452 408.5 412 c 128,-1,32
 394 372 394 372 380 361 c 128,-1,33
 366 350 366 350 355 299.5 c 128,-1,34
 344 249 344 249 341 179 c 2,35,-1
 334 22 l 1,36,-1
 103 7 l 1,37,-1
 103 177 l 2,0,1
264.5 82.5 m 128,-1,39
 273 106 273 106 273 209 c 128,-1,40
 273 312 273 312 276.5 346.5 c 128,-1,41
 280 381 280 381 289.5 396 c 128,-1,42
 299 411 299 411 320 417 c 128,-1,43
 341 423 341 423 355.5 436.5 c 128,-1,44
 370 450 370 450 370 464 c 128,-1,45
 370 478 370 478 355.5 487.5 c 128,-1,46
 341 497 341 497 321 497 c 0,47,48
 273.979591837 497 273.979591837 497 273.979591837 530.586005831 c 0,49,50
 273.979591837 531.285714286 273.979591837 531.285714286 274 532 c 0,51,52
 274 559 274 559 310 583 c 0,53,54
 321 590 321 590 335 595 c 0,55,56
 371 609 371 609 380 626 c 0,57,58
 383 631 383 631 382 637 c 0,59,60
 382 648 382 648 368 656 c 0,61,62
 348 668 348 668 303 668 c 128,-1,63
 258 668 258 668 204.5 622 c 0,64,65
 151.981651376 576.844036697 151.981651376 576.844036697 151.981651376 535.542631092 c 0,66,67
 151.981651376 534.770642202 151.981651376 534.770642202 152 534 c 0,68,69
 152 519 152 519 144.5 508 c 128,-1,70
 137 497 137 497 127 497 c 128,-1,71
 117 497 117 497 110 486.5 c 128,-1,72
 103 476 103 476 103 461 c 128,-1,73
 103 446 103 446 110 435 c 128,-1,74
 117 424 117 424 127.5 424 c 128,-1,75
 138 424 138 424 144.5 372.5 c 128,-1,76
 151 321 151 321 151.5 214.5 c 128,-1,77
 152 108 152 108 160 83.5 c 128,-1,78
 168 59 168 59 212 59 c 128,-1,38
 256 59 256 59 264.5 82.5 c 128,-1,39
EndSplineSet
Validated: 524289
EndChar

StartChar: h
Encoding: 104 104 18
Width: 618
VWidth: 25126
Flags: W
HStem: 2 49<115.844 190.956 404.793 506.036> 660 49<115.844 191.803>
VStem: 30 73<116.832 594.537> 200 73<56.0621 303.129 528.841 655.088> 341 49<63.1638 318.338> 348 241<2.38379 162.765> 516 73<56.8114 420.619>
LayerCount: 2
Fore
SplineSet
30 2 m 1,0,1
 30 709 l 1,2,3
 273 709 l 1,4,5
 273 526 l 1,6,-1
 379 534 l 2,7,8
 403 536 403 536 422 536 c 0,9,10
 457 536 457 536 475 530 c 0,11,12
 503 520 503 520 536 476 c 0,13,14
 553 454 553 454 563 435 c 128,-1,15
 573 416 573 416 579 384 c 0,16,17
 589 333 589 333 589 206 c 2,18,-1
 589 2 l 1,19,-1
 348 2 l 1,20,-1
 341 167 l 2,21,22
 338 235 338 235 328.5 283 c 128,-1,23
 319 331 319 331 309 331 c 128,-1,24
 299 331 299 331 290 283 c 128,-1,25
 281 235 281 235 278 167 c 2,26,-1
 271 2 l 1,27,-1
 30 2 l 1,0,1
323 388 m 0,28,29
 353 384 353 384 364.5 372.5 c 128,-1,30
 376 361 376 361 379 340 c 0,31,32
 385 299 385 299 388 240.5 c 128,-1,33
 391 182 391 182 392 163 c 128,-1,34
 393 144 393 144 395 124 c 128,-1,35
 397 104 397 104 398.5 94.5 c 128,-1,36
 400 85 400 85 404 75 c 128,-1,37
 408 65 408 65 411.5 61.5 c 128,-1,38
 415 58 415 58 423 55 c 0,39,40
 432 51 432 51 455 51 c 0,41,42
 456 51 l 1,43,44
 499 51 499 51 507.5 75.5 c 128,-1,45
 516 100 516 100 516 194 c 128,-1,46
 516 288 516 288 514.5 317.5 c 128,-1,47
 513 347 513 347 510.5 371.5 c 128,-1,48
 508 396 508 396 500 410 c 0,49,50
 486 435 486 435 451.5 458 c 128,-1,51
 417 481 417 481 395.5 481 c 128,-1,52
 374 481 374 481 329 457.5 c 128,-1,53
 284 434 284 434 261 429 c 0,54,55
 254 427 254 427 248 427 c 0,56,57
 234 427 234 427 224 435 c 0,58,59
 210 447 210 447 205 474 c 128,-1,60
 200 501 200 501 200 541 c 128,-1,61
 200 581 200 581 199 599 c 128,-1,62
 198 617 198 617 195 630 c 128,-1,63
 192 643 192 643 186 649 c 0,64,65
 175 660 175 660 150 660 c 128,-1,66
 125 660 125 660 117 642 c 0,67,68
 104 613 104 613 103 428 c 2,69,-1
 103 356 l 2,70,71
 103 118 103 118 111.5 86 c 128,-1,72
 120 54 120 54 140 52 c 0,73,74
 144 51 144 51 159 51 c 128,-1,75
 174 51 174 51 183.5 60.5 c 128,-1,76
 193 70 193 70 196.5 95.5 c 128,-1,77
 200 121 200 121 200 189 c 128,-1,78
 200 257 200 257 213 305 c 0,79,80
 236 390 236 390 305 390 c 0,81,82
 314 389 314 389 323 388 c 0,28,29
EndSplineSet
Validated: 1
EndChar

StartChar: i
Encoding: 105 105 19
Width: 299
VWidth: 25169
Flags: W
HStem: 18 49<109.8 210.826> 505 97<109.65 210.826>
VStem: 32 68<165.04 498.853 609.366 668.45> 221 49<72.3386 498.853 609.366 668.45>
LayerCount: 2
Fore
SplineSet
37 50 m 0,0,1
 32 63 32 63 31 165 c 0,2,3
 30 201 30 201 30 240 c 0,4,5
 30 313 30 313 32 397 c 2,6,-1
 39 712 l 1,7,-1
 270 727 l 1,8,-1
 270 18 l 1,9,-1
 159 18 l 2,10,11
 49 18 49 18 37 50 c 0,0,1
221 204 m 0,12,13
 221 228 221 228 221 340 c 128,-1,14
 221 452 221 452 213 477.5 c 128,-1,15
 205 503 205 503 180 504 c 0,16,17
 174 504 174 504 149 504.5 c 128,-1,18
 124 505 124 505 112.5 490 c 128,-1,19
 101 475 101 475 100 367 c 0,20,21
 100 343 100 343 100 231 c 128,-1,22
 100 119 100 119 107.5 94 c 128,-1,23
 115 69 115 69 141 67 c 0,24,25
 147 67 147 67 172 67 c 128,-1,26
 197 67 197 67 208.5 81.5 c 128,-1,27
 220 96 220 96 221 204 c 0,12,13
213.5 619.5 m 128,-1,29
 221 628 221 628 221 642 c 128,-1,30
 221 656 221 656 205 665.5 c 128,-1,31
 189 675 189 675 160.5 675 c 128,-1,32
 132 675 132 675 116 665.5 c 128,-1,33
 100 656 100 656 100 639 c 128,-1,34
 100 622 100 622 116 612 c 128,-1,35
 132 602 132 602 155.5 602 c 128,-1,36
 179 602 179 602 192.5 606.5 c 128,-1,28
 206 611 206 611 213.5 619.5 c 128,-1,29
EndSplineSet
Validated: 33
EndChar

StartChar: k
Encoding: 107 107 20
Width: 654
VWidth: 24742
Flags: W
HStem: -14 49<115.82 194.796 428.801 533.955> 133 97<279.528 318.119> 644 49<115.82 190.534>
VStem: 30 73<100.807 578.512> 200 73<41.1206 132.306 464.504 638.952>
LayerCount: 2
Fore
SplineSet
30 -14 m 1,0,1
 30 693 l 1,2,3
 273 693 l 1,4,-1
 273 567 l 2,5,6
 273 470 273 470 280 463 c 0,7,8
 282 461 282 461 285 461 c 0,9,10
 295 461 295 461 317.5 482 c 128,-1,11
 340 503 340 503 383 511 c 128,-1,12
 426 519 426 519 456 522 c 0,13,14
 480 524 480 524 502 524 c 0,15,16
 508 524 508 524 513 524 c 0,17,18
 541 523 541 523 563 520 c 0,19,20
 612 513 612 513 613 493 c 0,21,22
 613 476 613 476 587 443 c 128,-1,23
 561 410 561 410 542 390 c 2,24,-1
 470 315 l 1,25,-1
 554 173 l 2,26,27
 588 115 588 115 609 67 c 0,28,29
 625 29 625 29 625 15 c 0,30,31
 625 11 625 11 624 9 c 0,32,33
 618 0 618 0 579.5 -7 c 128,-1,34
 541 -14 541 -14 488.5 -14 c 128,-1,35
 436 -14 436 -14 411.5 -9 c 128,-1,36
 387 -4 387 -4 373.5 10 c 128,-1,37
 360 24 360 24 346.5 57 c 128,-1,38
 333 90 333 90 318 111.5 c 128,-1,39
 303 133 303 133 294 133 c 128,-1,40
 285 133 285 133 279 111.5 c 128,-1,41
 273 90 273 90 273 64 c 128,-1,42
 273 38 273 38 272.5 28.5 c 128,-1,43
 272 19 272 19 267 9 c 128,-1,44
 262 -1 262 -1 257 -4 c 128,-1,45
 252 -7 252 -7 235 -10 c 0,46,47
 216 -13 216 -13 151 -14 c 2,48,-1
 30 -14 l 1,0,1
307 230 m 0,49,50
 320 230 320 230 342 201.5 c 128,-1,51
 364 173 364 173 385.5 124.5 c 128,-1,52
 407 76 407 76 429 55.5 c 128,-1,53
 451 35 451 35 485 35 c 128,-1,54
 519 35 519 35 528.5 41.5 c 128,-1,55
 538 48 538 48 536 53 c 0,56,57
 528 71 528 71 459 202 c 2,58,-1
 391 333 l 1,59,60
 458 403 458 403 525 474 c 1,61,-1
 466 474 l 2,62,63
 438 474 438 474 405.5 453.5 c 128,-1,64
 373 433 373 433 343 397 c 0,65,66
 287 329 287 329 253 329 c 0,67,68
 199 329 199 329 200 497 c 0,69,70
 200 566 200 566 196.5 594.5 c 128,-1,71
 193 623 193 623 183.5 633.5 c 128,-1,72
 174 644 174 644 149.5 644 c 128,-1,73
 125 644 125 644 117 626 c 0,74,75
 103 595 103 595 103 348.5 c 128,-1,76
 103 102 103 102 111.5 70 c 128,-1,77
 120 38 120 38 140 36 c 0,78,79
 144 35 144 35 159 35 c 128,-1,80
 174 35 174 35 187 46.5 c 128,-1,81
 200 58 200 58 200 78 c 0,82,83
 200 120 200 120 238.5 175 c 128,-1,84
 277 230 277 230 307 230 c 0,49,50
EndSplineSet
Validated: 33
EndChar

StartChar: l
Encoding: 108 108 21
Width: 302
VWidth: 25250
Flags: W
HStem: 0 49<102.852 224.238> 658 49<102.852 224.238>
VStem: 30 73<48.7305 657.886> 224 49<48.7305 657.886>
LayerCount: 2
Fore
SplineSet
30 0 m 1,0,1
 30 707 l 1,2,3
 273 707 l 1,4,5
 273 0 l 1,6,7
 30 0 l 1,0,1
224 49 m 1,8,9
 224 658 l 1,10,11
 103 658 l 1,12,13
 103 49 l 1,14,15
 224 49 l 1,8,9
EndSplineSet
Validated: 1
EndChar

StartChar: m
Encoding: 109 109 22
Width: 909
VWidth: 24915
Flags: W
HStem: 0 49<113.739 191.365 718.306 823.072> 487 46<113.739 195.681>
VStem: 30 241<0 160.381> 30 73<55.364 480.671> 200 77<54.095 311.782> 341 53<54.0597 313.626> 348 228<11.9513 158.531> 516 68<54.7152 326.961> 637 73<54.6579 333.325> 831 49<54.2286 362.078>
LayerCount: 2
Fore
SplineSet
30 533 m 1,0,-1
 410 531 l 2,1,2
 509 530 509 530 558 531 c 0,3,4
 571 531 571 531 580 531 c 0,5,6
 581 531 581 531 582 531 c 0,7,8
 627 531 627 531 689 524 c 0,9,10
 753 517 753 517 772 514.5 c 128,-1,11
 791 512 791 512 822.5 491 c 128,-1,12
 854 470 854 470 858 457.5 c 128,-1,13
 862 445 862 445 871 403 c 0,14,15
 880 363 880 363 881 335 c 2,16,-1
 880 219 l 1,17,-1
 880 0 l 1,18,-1
 637 0 l 1,19,-1
 637 171 l 2,20,21
 637 318 637 318 617 336 c 0,22,23
 609 343 609 343 602 320 c 0,24,25
 588 280 588 280 584 177 c 2,26,-1
 576 12 l 1,27,28
 462 5 462 5 348 -3 c 1,29,-1
 341 163 l 2,30,31
 335 292 335 292 315 321 c 0,32,33
 312 325 312 325 309 325 c 0,34,35
 301 325 301 325 293 295 c 0,36,37
 282 256 282 256 277 164 c 2,38,-1
 271 0 l 1,39,-1
 30 0 l 1,40,-1
 30 533 l 1,0,-1
272 402 m 0,41,42
 299 411 299 411 320 411 c 0,43,44
 354 411 354 411 369 387 c 0,45,46
 394 349 394 349 394 221.5 c 128,-1,47
 394 94 394 94 402.5 71.5 c 128,-1,48
 411 49 411 49 455 49 c 128,-1,49
 499 49 499 49 507.5 71 c 128,-1,50
 516 93 516 93 516 174 c 128,-1,51
 516 255 516 255 517 281 c 128,-1,52
 518 307 518 307 520.5 328 c 128,-1,53
 523 349 523 349 531 360 c 0,54,55
 545 380 545 380 576 394 c 0,56,57
 607 409 607 409 631 409 c 0,58,59
 680 409 680 409 697 345 c 0,60,61
 710 297 710 297 710 194.5 c 128,-1,62
 710 92 710 92 718.5 70.5 c 128,-1,63
 727 49 727 49 771 49 c 0,64,65
 802 49 802 49 810.5 55 c 128,-1,66
 819 61 819 61 822.5 67.5 c 128,-1,67
 826 74 826 74 828 91 c 0,68,69
 831 113 831 113 831 179 c 0,70,71
 831 369 831 369 774 437 c 0,72,73
 743 474 743 474 697 474 c 0,74,75
 657 474 657 474 606 447 c 0,76,77
 558 422 558 422 534 422 c 0,78,79
 533 422 l 0,80,81
 509 423 509 423 453 453 c 0,82,83
 397 483 397 483 376.5 483.5 c 128,-1,84
 356 484 356 484 312 455 c 0,85,86
 255 419 255 419 227 419 c 0,87,88
 201 419 201 419 200 451 c 0,89,90
 200 466 200 466 186 476.5 c 128,-1,91
 172 487 172 487 151 487 c 0,92,93
 117 487 117 487 110 453.5 c 128,-1,94
 103 420 103 420 103 258.5 c 128,-1,95
 103 97 103 97 114 69 c 0,96,97
 125 49 125 49 154 49 c 0,98,99
 155 49 l 0,100,101
 183 49 183 49 191 69 c 0,102,103
 200 90 200 90 200.5 185 c 128,-1,104
 201 280 201 280 217.5 335 c 128,-1,105
 234 390 234 390 272 402 c 0,41,42
EndSplineSet
Validated: 33
EndChar

StartChar: n
Encoding: 110 110 23
Width: 618
VWidth: 25098
Flags: W
HStem: -0 49<113.739 191.365 403.227 505.953> 487 45<113.739 195.681>
VStem: 30 241<0 160.381> 30 73<55.3438 480.671> 200 77<54.0711 315.911> 341 54<54.0597 313.626> 348 241<-0.0244141 160.38> 516 73<54.2551 416.369>
LayerCount: 2
Fore
SplineSet
30 533 m 1,0,-1
 260 532 l 2,1,2
 419 532 419 532 441 527.5 c 128,-1,3
 463 523 463 523 478 519.5 c 128,-1,4
 493 516 493 516 503 508 c 0,5,6
 553 467 553 467 570 414 c 0,7,8
 588 361 588 361 589 204 c 2,9,-1
 589 -0 l 1,10,-1
 348 -0 l 1,11,-1
 341 164 l 2,12,13
 337 259 337 259 326.5 294 c 128,-1,14
 316 329 316 329 309 329 c 0,15,16
 299 329 299 329 290 280.5 c 128,-1,17
 281 232 281 232 277 164 c 2,18,-1
 271 0 l 1,19,-1
 30 0 l 1,20,-1
 30 533 l 1,0,-1
272 402 m 0,21,22
 299 411 299 411 320 411 c 0,23,24
 354 411 354 411 369 387 c 0,25,26
 394 349 394 349 394.5 221.5 c 128,-1,27
 395 94 395 94 403 71.5 c 128,-1,28
 411 49 411 49 455 49 c 128,-1,29
 499 49 499 49 507.5 73 c 128,-1,30
 516 97 516 97 516 191.5 c 128,-1,31
 516 286 516 286 514.5 315.5 c 128,-1,32
 513 345 513 345 510.5 369.5 c 128,-1,33
 508 394 508 394 500 408 c 0,34,35
 486 433 486 433 450.5 456 c 128,-1,36
 415 479 415 479 393.5 479.5 c 128,-1,37
 372 480 372 480 326.5 457 c 128,-1,38
 281 434 281 434 259 425.5 c 128,-1,39
 237 417 237 417 223 416.5 c 128,-1,40
 209 416 209 416 204.5 424.5 c 128,-1,41
 200 433 200 433 200 449.5 c 128,-1,42
 200 466 200 466 186 476.5 c 128,-1,43
 172 487 172 487 151 487 c 0,44,45
 117 487 117 487 110 453.5 c 128,-1,46
 103 420 103 420 103 302.5 c 128,-1,47
 103 185 103 185 104 147 c 128,-1,48
 105 109 105 109 110.5 83.5 c 128,-1,49
 116 58 116 58 124.5 53.5 c 128,-1,50
 133 49 133 49 158 49 c 128,-1,51
 183 49 183 49 191.5 69.5 c 128,-1,52
 200 90 200 90 200.5 185 c 128,-1,53
 201 280 201 280 217.5 335 c 128,-1,54
 234 390 234 390 272 402 c 0,21,22
EndSplineSet
Validated: 33
EndChar

StartChar: o
Encoding: 111 111 24
Width: 651
VWidth: 25099
Flags: W
HStem: 0 21G<267.45 386.224> 0 21G<267.45 386.224> 474 62<218.909 427.634>
LayerCount: 2
Fore
SplineSet
174.5 28.5 m 128,-1,1
 149 45 149 45 115 78.5 c 128,-1,2
 81 112 81 112 68 128 c 128,-1,3
 55 144 55 144 44.5 159.5 c 128,-1,4
 34 175 34 175 32 194 c 0,5,6
 31 207 31 207 31 222 c 0,7,8
 31 249 31 249 35 286 c 0,9,10
 63 536 63 536 332 536 c 0,11,12
 416 536 416 536 454.5 523 c 128,-1,13
 493 510 493 510 545 463.5 c 128,-1,14
 597 417 597 417 610 385 c 0,15,16
 622 355 622 355 621 282 c 0,17,18
 621 275 621 275 621 267 c 0,19,20
 620 182 620 182 606.5 148.5 c 128,-1,21
 593 115 593 115 543 70 c 128,-1,22
 493 25 493 25 454 12.5 c 128,-1,23
 415 0 415 0 339.5 0 c 128,-1,24
 264 0 264 0 232 6 c 128,-1,0
 200 12 200 12 174.5 28.5 c 128,-1,1
482 110 m 0,25,26
 535 145 535 145 553 207 c 0,27,28
 561 235 561 235 561 264 c 0,29,30
 561 298 561 298 549 333 c 0,31,32
 520 416 520 416 440 448 c 0,33,34
 375 474 375 474 313 474 c 128,-1,35
 251 474 251 474 201 442.5 c 128,-1,36
 151 411 151 411 126 364 c 0,37,38
 103 320 103 320 103 267 c 0,39,40
 103 263 103 263 103 258 c 0,41,42
 105 200 105 200 140 150 c 0,43,44
 195 71 195 71 292 60 c 0,45,46
 307 58 307 58 321 58 c 0,47,48
 403 58 403 58 482 110 c 0,25,26
304 125 m 0,49,50
 272 130 272 130 249.5 144 c 128,-1,51
 227 158 227 158 218 204 c 0,52,53
 213 229 213 229 213 255 c 0,54,55
 213 277 213 277 217 300 c 0,56,57
 224 350 224 350 245 375 c 0,58,59
 273 409 273 409 327 413 c 0,60,61
 332 413 332 413 337 413 c 0,62,63
 384 413 384 413 410 386 c 0,64,65
 440 356 440 356 440 267.5 c 128,-1,66
 440 179 440 179 412 151 c 0,67,68
 395 134 395 134 366 127 c 0,69,70
 348 123 348 123 329 123 c 0,71,72
 317 123 317 123 304 125 c 0,49,50
363 320 m 0,73,74
 343 336 343 336 325 336 c 0,75,76
 317 336 317 336 310 333 c 0,77,78
 275 320 275 320 272 275 c 0,79,80
 272 271 272 271 272 268 c 0,81,82
 272 228 272 228 301 199 c 0,83,84
 317 183 317 183 328 183 c 0,85,86
 330 183 330 183 331 183 c 0,87,88
 343 185 343 185 368 219 c 0,89,90
 392 252 392 252 392 266 c 0,91,92
 392 297 392 297 363 320 c 0,73,74
EndSplineSet
Validated: 33
EndChar

StartChar: r
Encoding: 114 114 25
Width: 473
VWidth: 25000
Flags: W
HStem: 0 49<113.753 192.715> 341 49<300.71 350.577> 487 46<113.753 195.706>
VStem: 30 73<55.364 480.691> 200 73<53.8301 287.107>
LayerCount: 2
Fore
SplineSet
30 0 m 1,0,1
 30 534 l 1,2,-1
 236 533 l 2,3,4
 378 532 378 532 401 525 c 128,-1,5
 424 518 424 518 429 514.5 c 128,-1,6
 434 511 434 511 439 501.5 c 128,-1,7
 444 492 444 492 444 484.5 c 128,-1,8
 444 477 444 477 442 461 c 0,9,10
 440 444 440 444 427 396 c 0,11,12
 412 341 412 341 358 341 c 0,13,14
 323 341 323 341 305 323.5 c 128,-1,15
 287 306 287 306 280 262.5 c 128,-1,16
 273 219 273 219 273 132 c 2,17,-1
 273 0 l 1,18,-1
 30 0 l 1,0,1
200 128 m 0,19,20
 200 234 200 234 229.5 312 c 128,-1,21
 259 390 259 390 299 390 c 0,22,23
 319 390 319 390 337.5 401 c 128,-1,24
 356 412 356 412 362 427 c 0,25,26
 370 447 370 447 369 460 c 0,27,28
 369 475 369 475 358 480 c 0,29,30
 353 482 353 482 349 482 c 0,31,32
 332 482 332 482 306 459 c 0,33,34
 274 430 274 430 251 421 c 0,35,36
 238 416 238 416 228 416 c 0,37,38
 220 416 220 416 214 419 c 0,39,40
 200 427 200 427 200 446.5 c 128,-1,41
 200 466 200 466 186 476.5 c 128,-1,42
 172 487 172 487 151 487 c 0,43,44
 117 487 117 487 110 453.5 c 128,-1,45
 103 420 103 420 103 268 c 128,-1,46
 103 116 103 116 110.5 82.5 c 128,-1,47
 118 49 118 49 149 49 c 128,-1,48
 180 49 180 49 190 65 c 128,-1,49
 200 81 200 81 200 128 c 0,19,20
EndSplineSet
Validated: 33
EndChar

StartChar: bracketleft
Encoding: 91 91 26
Width: 399
VWidth: 26374
Flags: W
HStem: -135 49<102.827 292.164> 11 49<259.312 291.345> 547 49<259.312 291.855> 693 49<102.827 292.164>
VStem: 30 73<-86.2451 693.467> 200 49<90.0679 517.144> 297 73<-78.3876 4.05321 603.168 685.601>
LayerCount: 2
Fore
SplineSet
30 -135 m 1,0,1
 30 742 l 1,2,3
 370 742 l 1,4,-1
 370 645 l 2,5,6
 370 610 370 610 368.5 592.5 c 128,-1,7
 367 575 367 575 360 563.5 c 128,-1,8
 353 552 353 552 342 549.5 c 128,-1,9
 331 547 331 547 302.5 547 c 128,-1,10
 274 547 274 547 265 536 c 0,11,12
 250 518 250 518 249 409 c 0,13,14
 249 380 249 380 249 248.5 c 128,-1,15
 249 117 249 117 256.5 90 c 128,-1,16
 264 63 264 63 287 61 c 0,17,18
 293 60 293 60 309 60 c 0,19,20
 350 60 350 60 360 44 c 128,-1,21
 370 28 370 28 370 -38 c 2,22,-1
 370 -135 l 1,23,-1
 30 -135 l 1,0,1
297 -38 m 0,24,25
 297 11 297 11 249 11 c 0,26,27
 222 11 222 11 214 29 c 0,28,29
 200 59 200 59 200 295 c 128,-1,30
 200 531 200 531 210 568 c 1,31,32
 227 596 227 596 249 596 c 0,33,34
 297 596 297 596 297 643 c 0,35,36
 297 644 297 644 297 645 c 0,37,38
 297 675 297 675 279 684 c 128,-1,39
 261 693 261 693 200 693 c 2,40,-1
 103 693 l 1,41,-1
 103 -86 l 1,42,-1
 200 -86 l 2,43,44
 261 -86 261 -86 279 -77 c 128,-1,45
 297 -68 297 -68 297 -38 c 0,24,25
EndSplineSet
Validated: 1
EndChar

StartChar: bracketright
Encoding: 93 93 27
Width: 375
VWidth: 25327
Flags: W
HStem: -136 195<45.8399 131.896> -136 49<91.3287 305.09> 692 49<95.7834 305.09>
VStem: 38 49<-79.1968 0.617273> 135 68<69.6276 528.331> 305 49<-87.2695 692.442>
LayerCount: 2
Fore
SplineSet
38 -39 m 2,0,1
 38 22 38 22 47 40.5 c 128,-1,2
 56 59 56 59 88.5 59 c 128,-1,3
 121 59 121 59 128 95.5 c 128,-1,4
 135 132 135 132 135 302.5 c 128,-1,5
 135 473 135 473 128 509.5 c 128,-1,6
 121 546 121 546 88.5 546 c 128,-1,7
 56 546 56 546 47 564 c 128,-1,8
 38 582 38 582 38 644 c 2,9,-1
 38 741 l 1,10,-1
 354 741 l 1,11,-1
 354 -136 l 1,12,-1
 38 -136 l 1,13,-1
 38 -39 l 2,0,1
305 -87 m 1,14,-1
 305 692 l 1,15,-1
 196 692 l 2,16,17
 143 692 143 692 113 680 c 128,-1,18
 83 668 83 668 83 649 c 0,19,20
 83 620 83 620 148 595 c 0,21,22
 174 585 174 585 184 576 c 0,23,24
 206 556 206 556 206 453 c 0,25,26
 206 398 206 398 202 248 c 128,-1,27
 198 98 198 98 189.5 59 c 128,-1,28
 181 20 181 20 141 15 c 0,29,30
 87 7 87 7 87 -40 c 0,31,32
 87 -70 87 -70 107 -78.5 c 128,-1,33
 127 -87 127 -87 196 -87 c 2,34,-1
 305 -87 l 1,14,-1
EndSplineSet
Validated: 1
EndChar

StartChar: underscore
Encoding: 95 95 28
Width: 569
VWidth: 24672
Flags: W
HStem: 0 97<36.2599 533.652>
LayerCount: 2
Fore
SplineSet
68 7.5 m 128,-1,1
 30 15 30 15 30 46 c 128,-1,3
 30 77 30 77 48 85 c 0,4,5
 75 97 75 97 224 97 c 0,6,7
 235 97 235 97 248 97 c 2,8,-1
 285 97 l 2,9,10
 483 97 483 97 516 87 c 1,11,12
 539 74 539 74 540 49 c 0,13,14
 540 15 540 15 502 7.5 c 128,-1,15
 464 0 464 0 285 0 c 128,-1,0
 106 0 106 0 68 7.5 c 128,-1,1
EndSplineSet
Validated: 1
EndChar

StartChar: W
Encoding: 87 87 29
Width: 1002
VWidth: 19677
Flags: W
HStem: 646 49<104.84 208.745 437.803 570.103 789.063 901.359>
VStem: 30 73<537.751 671.308>
LayerCount: 2
Fore
SplineSet
165 17 m 0,0,1
 149 66 149 66 89.5 348 c 128,-1,2
 30 630 30 630 30 654 c 128,-1,3
 30 678 30 678 55.5 686 c 128,-1,4
 81 694 81 694 150 695 c 2,5,-1
 270 695 l 1,6,7
 277 660 277 660 292 591 c 128,-1,8
 307 522 307 522 314 487 c 1,9,-1
 343 560 l 2,10,11
 372 633 372 633 382 664 c 0,12,13
 387 678 387 678 422 686 c 128,-1,14
 457 694 457 694 512 695 c 2,15,-1
 631 695 l 1,16,-1
 661 579 l 2,17,18
 684 492 684 492 692 490 c 0,19,20
 697 489 697 489 702.5 506 c 128,-1,21
 708 523 708 523 716 572.5 c 128,-1,22
 724 622 724 622 726 630.5 c 128,-1,23
 728 639 728 639 730 651 c 128,-1,24
 732 663 732 663 736.5 667.5 c 128,-1,25
 741 672 741 672 744 678.5 c 128,-1,26
 747 685 747 685 756 686.5 c 128,-1,27
 765 688 765 688 771 691 c 128,-1,28
 777 694 777 694 793 694 c 128,-1,29
 809 694 809 694 820.5 694 c 128,-1,30
 832 694 832 694 881.5 694.5 c 128,-1,31
 931 695 931 695 947 687 c 0,32,33
 972 676 972 676 972 631 c 0,34,35
 972 624 972 624 972 617 c 0,36,37
 968 560 968 560 908 292 c 2,38,-1
 843 0 l 1,39,40
 801 -2 801 -2 717.5 -7 c 128,-1,41
 634 -12 634 -12 593 -15 c 1,42,-1
 554 118 l 2,43,44
 516 251 516 251 513 284 c 0,45,46
 512 294 512 294 505 276 c 0,47,48
 492 244 492 244 470 158 c 2,49,-1
 428 0 l 1,50,-1
 302 -7 l 2,51,52
 278 -8 278 -8 258 -9 c 0,53,54
 173 -9 173 -9 165 17 c 0,0,1
354.5 53 m 128,-1,56
 372 69 372 69 393.5 144 c 128,-1,57
 415 219 415 219 442 323 c 0,58,59
 469 426 469 426 499 426 c 0,60,61
 514 426 514 426 529 403 c 0,62,63
 570 341 570 341 626 104 c 0,64,65
 636 64 636 64 653 50.5 c 128,-1,66
 670 37 670 37 710.5 37 c 128,-1,67
 751 37 751 37 769 48.5 c 128,-1,68
 787 60 787 60 794 91 c 0,69,70
 831 254 831 254 867.5 430 c 128,-1,71
 904 606 904 606 904 617 c 128,-1,72
 904 628 904 628 896 633 c 0,73,74
 878 645 878 645 844 645.5 c 128,-1,75
 810 646 810 646 796.5 635 c 128,-1,76
 783 624 783 624 783 598 c 0,77,78
 783 546 783 546 768 476 c 128,-1,79
 753 406 753 406 733 355.5 c 128,-1,80
 713 305 713 305 698 305 c 128,-1,81
 683 305 683 305 663 344 c 128,-1,82
 643 383 643 383 614.5 484 c 128,-1,83
 586 585 586 585 576 615 c 0,84,85
 572 628 572 628 550.5 637 c 128,-1,86
 529 646 529 646 503.5 646 c 128,-1,87
 478 646 478 646 457 637 c 128,-1,88
 436 628 436 628 432 615 c 0,89,90
 422 585 422 585 389 466.5 c 128,-1,91
 356 348 356 348 332 319 c 0,92,93
 322 307 322 307 313 307 c 0,94,95
 277 307 277 307 247 475 c 0,96,97
 226 591 226 591 212 618 c 0,98,99
 201 640 201 640 182 644 c 0,100,101
 173 646 173 646 158.5 646 c 128,-1,102
 144 646 144 646 131 643 c 0,103,104
 103 637 103 637 103 625 c 0,105,106
 103 604 103 604 163.5 334 c 128,-1,107
 224 64 224 64 224 50 c 0,108,109
 224 44 224 44 244.5 40.5 c 128,-1,110
 265 37 265 37 301 37 c 128,-1,55
 337 37 337 37 354.5 53 c 128,-1,56
EndSplineSet
Validated: 33
EndChar

StartChar: X
Encoding: 88 88 30
Width: 812
VWidth: 25204
Flags: W
HStem: 16 49<141.568 245.341 565.49 672.675> 674 49<154.53 268.956 551.053 655.601>
LayerCount: 2
Fore
SplineSet
30 40 m 128,-1,1
 30 50 30 50 58.5 101 c 128,-1,2
 87 152 87 152 127 214.5 c 128,-1,3
 167 277 167 277 195.5 327.5 c 128,-1,4
 224 378 224 378 224 385.5 c 128,-1,5
 224 393 224 393 213 414 c 0,6,7
 188 462 188 462 154.5 512.5 c 128,-1,8
 121 563 121 563 108.5 582 c 128,-1,9
 96 601 96 601 85 620.5 c 128,-1,10
 74 640 74 640 68.5 652 c 128,-1,11
 63 664 63 664 60.5 675.5 c 128,-1,12
 58 687 58 687 59.5 693.5 c 128,-1,13
 61 700 61 700 68 706 c 128,-1,14
 75 712 75 712 84 715 c 128,-1,15
 93 718 93 718 109 720 c 0,16,17
 133 723 133 723 191.5 723 c 128,-1,18
 250 723 250 723 278 718 c 128,-1,19
 306 713 306 713 323.5 698.5 c 128,-1,20
 341 684 341 684 365 646 c 2,21,-1
 413 570 l 1,22,-1
 453 646 l 2,23,24
 473 685 473 685 488.5 699.5 c 128,-1,25
 504 714 504 714 522 717 c 0,26,27
 558 723 558 723 611.5 723 c 128,-1,28
 665 723 665 723 695 720 c 0,29,30
 758 713 758 713 758 696 c 0,31,32
 758 685 758 685 732.5 635.5 c 128,-1,33
 707 586 707 586 679 540 c 128,-1,34
 651 494 651 494 643 482 c 128,-1,35
 635 470 635 470 624.5 448 c 128,-1,36
 614 426 614 426 610.5 419 c 128,-1,37
 607 412 607 412 605 392.5 c 128,-1,38
 603 373 603 373 603.5 367 c 128,-1,39
 604 361 604 361 611 340 c 128,-1,40
 618 319 618 319 623.5 310 c 128,-1,41
 629 301 629 301 645 274 c 128,-1,42
 661 247 661 247 672 231 c 128,-1,43
 683 215 683 215 696.5 195.5 c 128,-1,44
 710 176 710 176 710 175 c 0,45,46
 742 128 742 128 762.5 90.5 c 128,-1,47
 783 53 783 53 783 42 c 128,-1,48
 783 31 783 31 744 23.5 c 128,-1,49
 705 16 705 16 654 16 c 128,-1,50
 603 16 603 16 584 16.5 c 128,-1,51
 565 17 565 17 544 20.5 c 128,-1,52
 523 24 523 24 515 28 c 128,-1,53
 507 32 507 32 494.5 44 c 128,-1,54
 482 56 482 56 475.5 67.5 c 128,-1,55
 469 79 469 79 456 104 c 2,56,-1
 409 191 l 1,57,-1
 359 104 l 2,58,59
 345 80 345 80 338 68 c 128,-1,60
 331 56 331 56 318.5 44.5 c 128,-1,61
 306 33 306 33 297.5 29 c 128,-1,62
 289 25 289 25 268 21 c 0,63,64
 243 17 243 17 177 17 c 0,65,66
 176 17 176 17 175 17 c 0,67,68
 111 17 111 17 71 23 c 0,69,0
 30 30 30 30 30 40 c 128,-1,1
187 65 m 0,70,71
 248 65 248 65 299 146 c 0,72,73
 350 227 350 227 388 252 c 0,74,75
 400 260 400 260 410.5 260 c 128,-1,76
 421 260 421 260 449.5 231.5 c 128,-1,77
 478 203 478 203 507.5 156 c 128,-1,78
 537 109 537 109 564.5 87 c 128,-1,79
 592 65 592 65 631 65 c 0,80,81
 674 65 674 65 674 77 c 0,82,83
 674 90 674 90 646 141 c 0,84,85
 615 199 615 199 577 255 c 128,-1,86
 539 311 539 311 529 335 c 0,87,88
 521 354 521 354 520 376 c 0,89,90
 520 382 520 382 521 388 c 0,91,92
 524 418 524 418 539 447 c 128,-1,93
 554 476 554 476 605.5 553.5 c 128,-1,94
 657 631 657 631 657 654 c 0,95,96
 657 674 657 674 605 674 c 0,97,98
 575 674 575 674 549.5 651.5 c 128,-1,99
 524 629 524 629 501.5 590 c 128,-1,100
 479 551 479 551 462 528 c 0,101,102
 425 479 425 479 408 479 c 1,103,104
 391 479 391 479 366.5 508 c 128,-1,105
 342 537 342 537 317.5 584.5 c 128,-1,106
 293 632 293 632 269.5 653 c 128,-1,107
 246 674 246 674 212 674 c 0,108,109
 177 674 177 674 164 670 c 128,-1,110
 151 666 151 666 151 663 c 0,111,112
 151 652 151 652 210.5 558.5 c 128,-1,113
 270 465 270 465 283 427 c 0,114,115
 292 402 292 402 292 380 c 0,116,117
 292 368 292 368 289 356 c 0,118,119
 281 323 281 323 239.5 261 c 128,-1,120
 198 199 198 199 167 141 c 0,121,122
 139 89 139 89 139 77 c 0,123,124
 139 65 139 65 187 65 c 0,70,71
EndSplineSet
Validated: 1
EndChar

StartChar: Y
Encoding: 89 89 31
Width: 812
VWidth: 25198
Flags: W
HStem: 0 49<353.867 458.835> 658 49<123.274 244.017 568.684 689.428>
VStem: 273 73<54.198 307.973> 467 73<54.198 307.973>
LayerCount: 2
Fore
SplineSet
273 147 m 6,0,1
 273 220 273 220 265 259.5 c 128,-1,2
 257 299 257 299 234.5 342.5 c 128,-1,3
 212 386 212 386 156.5 468 c 128,-1,4
 101 550 101 550 65.5 610.5 c 128,-1,5
 30 671 30 671 30 681.5 c 128,-1,6
 30 692 30 692 68 699.5 c 128,-1,7
 106 707 106 707 153.5 707 c 128,-1,8
 201 707 201 707 219.5 706.5 c 128,-1,9
 238 706 238 706 258 702.5 c 128,-1,10
 278 699 278 699 287 695 c 128,-1,11
 296 691 296 691 308 679 c 0,12,13
 323 665 323 665 361 600.5 c 128,-1,14
 399 536 399 536 406.5 536 c 128,-1,15
 414 536 414 536 445.5 590 c 128,-1,16
 477 644 477 644 485 656 c 128,-1,17
 493 668 493 668 505 679.5 c 128,-1,18
 517 691 517 691 526 695 c 128,-1,19
 535 699 535 699 555 702 c 0,20,21
 580 706 580 706 643 706.5 c 128,-1,22
 706 707 706 707 744.5 699.5 c 128,-1,23
 783 692 783 692 783 681.5 c 128,-1,24
 783 671 783 671 747 610.5 c 128,-1,25
 711 550 711 550 656 468 c 128,-1,26
 601 386 601 386 578.5 342.5 c 128,-1,27
 556 299 556 299 548 259.5 c 128,-1,28
 540 220 540 220 540 147 c 2,29,-1
 540 0 l 1,30,-1
 273 0 l 1,31,-1
 273 147 l 6,0,1
467 195 m 4,32,33
 467 305 467 305 523 390 c 128,-1,34
 579 475 579 475 634 567 c 2,35,-1
 690 658 l 1,36,-1
 628 658 l 2,37,38
 592 658 592 658 565.5 634.5 c 128,-1,39
 539 611 539 611 507.5 557 c 128,-1,40
 476 503 476 503 447.5 471 c 128,-1,41
 419 439 419 439 406 439 c 128,-1,42
 393 439 393 439 365 471 c 128,-1,43
 337 503 337 503 305.5 557 c 128,-1,44
 274 611 274 611 247 634.5 c 128,-1,45
 220 658 220 658 185 658 c 2,46,-1
 123 658 l 1,47,-1
 178 567 l 2,48,49
 233 476 233 476 289 390 c 0,50,51
 320 344 320 344 333 295.5 c 128,-1,52
 346 247 346 247 346 195 c 128,-1,53
 346 143 346 143 346 125 c 128,-1,54
 346 107 346 107 348.5 90.5 c 128,-1,55
 351 74 351 74 354 67.5 c 128,-1,56
 357 61 357 61 365 55.5 c 128,-1,57
 373 50 373 50 381.5 49.5 c 128,-1,58
 390 49 390 49 406 49 c 128,-1,59
 422 49 422 49 430.5 49.5 c 128,-1,60
 439 50 439 50 447 55.5 c 128,-1,61
 455 61 455 61 458 67.5 c 128,-1,62
 461 74 461 74 464 91 c 0,63,64
 467 112 467 112 467 195 c 4,32,33
EndSplineSet
Validated: 33
EndChar

StartChar: Z
Encoding: 90 90 32
Width: 739
VWidth: 25169
Flags: W
HStem: 0 49<176.786 582.76> 146 49<393.008 631.317> 512 73<131.552 349.556> 658 49<168.97 595.434>
VStem: 30 73<61.0186 140.117> 79 49<595.277 644.723> 637 73<61.0449 136.34>
LayerCount: 2
Fore
SplineSet
46 16 m 0,0,1
 30 32 30 32 30 110 c 0,2,3
 30 145 30 145 64 195.5 c 128,-1,4
 98 246 98 246 192 343 c 2,5,-1
 354 512 l 1,6,-1
 79 512 l 1,7,-1
 79 707 l 1,8,-1
 383 707 l 2,9,10
 569 707 569 707 631 699.5 c 128,-1,11
 693 692 693 692 701 670 c 0,12,13
 708 651 708 651 708 631 c 0,14,15
 708 594 708 594 685 550 c 0,16,17
 650 482 650 482 539 359 c 2,18,-1
 390 195 l 1,19,-1
 710 195 l 1,20,-1
 710 0 l 1,21,-1
 386 0 l 2,22,23
 173 0 173 0 111 6.5 c 128,-1,24
 49 13 49 13 46 16 c 0,0,1
223 50 m 128,-1,26
 269 49 269 49 423.5 49 c 128,-1,27
 578 49 578 49 612 59 c 0,28,29
 638 67 638 67 638 97 c 0,30,31
 638 106 638 106 635 116 c 0,32,33
 631 132 631 132 610 138 c 0,34,35
 583 146 583 146 467 146 c 1,36,37
 297 146 297 146 297 174 c 0,38,39
 297 186 297 186 347 250 c 128,-1,40
 397 314 397 314 467 391.5 c 128,-1,41
 537 469 537 469 587 536 c 128,-1,42
 637 603 637 603 637 617.5 c 128,-1,43
 637 632 637 632 628.5 639 c 128,-1,44
 620 646 620 646 590 651 c 0,45,46
 543 658 543 658 435 658 c 128,-1,47
 327 658 327 658 290 657.5 c 128,-1,48
 253 657 253 657 223 655 c 128,-1,49
 193 653 193 653 175.5 650.5 c 128,-1,50
 158 648 158 648 147 644 c 0,51,52
 127 637 127 637 128 621 c 0,53,54
 128 600 128 600 158 592.5 c 128,-1,55
 188 585 188 585 258.5 585 c 128,-1,56
 329 585 329 585 361.5 581.5 c 128,-1,57
 394 578 394 578 413 567 c 128,-1,58
 432 556 432 556 432 539.5 c 128,-1,59
 432 523 432 523 413 493 c 0,60,61
 384 444 384 444 294 347 c 128,-1,62
 204 250 204 250 153.5 182 c 128,-1,63
 103 114 103 114 103 96 c 128,-1,64
 103 78 103 78 108.5 70 c 128,-1,65
 114 62 114 62 145.5 56.5 c 128,-1,25
 177 51 177 51 223 50 c 128,-1,26
EndSplineSet
Validated: 1
EndChar

StartChar: backslash
Encoding: 92 92 33
Width: 348
VWidth: 25245
Flags: W
HStem: 687 20G<80.6128 134.895>
LayerCount: 2
Fore
SplineSet
146 170 m 0,0,1
 135 213 135 213 82 429 c 0,2,3
 30 643 30 643 30 676 c 0,4,5
 30 689 30 689 50 698 c 0,6,7
 70 707 70 707 105 707 c 128,-1,8
 140 707 140 707 154 693 c 0,9,10
 177 671 177 671 209 550 c 0,11,12
 316 148 316 148 319 62 c 0,13,14
 319 59 319 59 319 56 c 0,15,16
 319 12 319 12 292 4 c 0,17,18
 280 0 280 0 248.5 0 c 128,-1,19
 217 0 217 0 203 14 c 0,20,21
 180 38 180 38 146 170 c 0,0,1
231 174 m 0,22,23
 214 259 214 259 191 355.5 c 128,-1,24
 168 452 168 452 151 515 c 0,25,26
 115 647 115 647 109 647 c 0,27,28
 107 647 107 647 107 639 c 0,29,30
 107 598 107 598 166 355 c 0,31,32
 205 194 205 194 224 138 c 0,33,34
 241 85 241 85 244 85 c 0,35,36
 245 85 245 85 245 89 c 0,37,38
 245 105 245 105 231 174 c 0,22,23
EndSplineSet
Validated: 1
EndChar

StartChar: a
Encoding: 97 97 34
Width: 645
VWidth: 24899
Flags: W
HStem: 0 21G<262.948 615.497> 0 21G<262.948 615.497>
VStem: 538 69<50.8294 399.892>
LayerCount: 2
Fore
SplineSet
122 326 m 0,0,1
 122 338 122 338 89 338 c 0,2,3
 53 338 53 338 53 379 c 2,4,-1
 53 380 l 2,5,6
 53 422 53 422 100 468 c 1,7,-1
 116 482 l 1,8,9
 159 516 159 516 245 529 c 0,10,11
 291 536 291 536 333.5 536 c 0,12,13
 533.97260274 536 533.97260274 536 580 440 c 0,14,15
 592 416 592 416 597.5 370 c 128,-1,16
 603 324 603 324 607 220 c 2,17,-1
 615 0 l 1,18,-1
 369 0 l 2,19,20
 210 0 210 0 157.5 8.5 c 128,-1,21
 105 17 105 17 75 47 c 0,22,23
 30 92 30 92 30 155 c 128,-1,24
 30 218 30 218 81 269 c 0,25,26
 122 311 122 311 122 326 c 0,0,1
289 93 m 1,27,28
 246 94 246 94 234 107 c 128,-1,29
 222 120 222 120 222 159 c 128,-1,30
 222 198 222 198 231 220 c 128,-1,31
 240 242 240 242 254.5 242.5 c 128,-1,32
 269 243 269 243 269 246.5 c 128,-1,33
 269 250 269 250 258 254 c 128,-1,34
 247 258 247 258 228 258 c 128,-1,35
 209 258 209 258 172 244 c 128,-1,36
 135 230 135 230 116.5 205 c 128,-1,37
 98 180 98 180 98 154.5 c 128,-1,38
 98 129 98 129 112.5 106 c 128,-1,39
 127 83 127 83 156 71 c 0,40,41
 207 50 207 50 234 50 c 128,-1,42
 261 50 261 50 298 66 c 128,-1,43
 335 82 335 82 337 86 c 0,44,45
 338 89 338 89 329 90 c 2,46,-1
 289 93 l 1,27,28
128 391 m 0,47,48
 128 387.333333333 128 387.333333333 133 389 c 0,49,50
 147 389 147 389 215 404 c 0,51,52
 323.8 428 323.8 428 347.4 428 c 128,-1,53
 371 428 371 428 384.5 424.5 c 128,-1,54
 398 421 398 421 414.5 401 c 128,-1,55
 431 381 431 381 431 363.5 c 128,-1,56
 431 346 431 346 420 330 c 0,57,58
 396 294 396 294 336 282 c 0,59,60
 315 278 315 278 315 275 c 0,61,62
 315 270 315 270 368.5 268 c 128,-1,63
 422 266 422 266 431 255 c 0,64,65
 436 250 436 250 436 238 c 128,-1,66
 436 226 436 226 429.5 198.5 c 128,-1,67
 423 171 423 171 410.5 148.5 c 128,-1,68
 398 126 398 126 390.5 123 c 128,-1,69
 383 120 383 120 383 116 c 0,70,71
 383 106 383 106 425.5 78.5 c 128,-1,72
 468 51 468 51 508 48 c 0,73,74
 538 48 538 48 538 211 c 0,75,76
 538 328.777777778 538 328.777777778 526.5 368.388888889 c 128,-1,77
 515 408 515 408 502.5 424 c 128,-1,78
 490 440 490 440 458 455 c 128,-1,79
 426 470 426 470 343 471 c 1,80,-1
 330 471 l 2,81,82
 256 471 256 471 218.5 461.5 c 128,-1,83
 181 452 181 452 155 424.5 c 128,-1,84
 129 397 129 397 128 391 c 0,47,48
349 205 m 0,85,86
 342 205 342 205 333 201 c 0,87,88
 296 187 296 187 296 176 c 0,89,90
 296 168 296 168 310 167.5 c 128,-1,91
 324 167 324 167 335.5 172.5 c 128,-1,92
 347 178 347 178 356 192 c 128,-1,93
 365 206 365 206 349 205 c 0,85,86
EndSplineSet
Validated: 524289
EndChar

StartChar: b
Encoding: 98 98 35
Width: 639
VWidth: 25153
Flags: W
HStem: 1 46<115.837 195.701> 656 49<115.837 192.152>
VStem: 30 73<112.792 590.499> 200 73<543.089 651.267> 358 61<206.932 327.811>
LayerCount: 2
Fore
SplineSet
30 705 m 1,0,1
 273 705 l 1,2,-1
 273 620 l 2,3,4
 273 573 273 573 276.5 562.5 c 128,-1,5
 280 552 280 552 286 546.5 c 128,-1,6
 292 541 292 541 297 539.5 c 128,-1,7
 302 538 302 538 314 536 c 0,8,9
 327 534 327 534 375 534 c 128,-1,10
 423 534 423 534 470.5 512.5 c 128,-1,11
 518 491 518 491 549.5 452.5 c 128,-1,12
 581 414 581 414 597 365 c 0,13,14
 611 323 611 323 611 278 c 0,15,16
 611 212 611 212 580 139 c 0,17,18
 567 107 567 107 555.5 87 c 128,-1,19
 544 67 544 67 525 50.5 c 128,-1,20
 506 34 506 34 484.5 25.5 c 128,-1,21
 463 17 463 17 427 11 c 0,22,23
 369 2 369 2 241 1 c 2,24,-1
 30 0 l 1,25,-1
 30 705 l 1,0,1
223 118 m 0,26,27
 249 117 249 117 301 87.5 c 128,-1,28
 353 58 353 58 370 53 c 0,29,30
 379 50 379 50 387 50 c 128,-1,31
 395 50 395 50 403 53 c 0,32,33
 419 58 419 58 451 79 c 0,34,35
 505 115 505 115 528 201 c 0,36,37
 539 243 539 243 539 281 c 0,38,39
 539 321 539 321 526 356 c 0,40,41
 502 424 502 424 437 457 c 0,42,43
 404 473 404 473 372 473 c 0,44,45
 342 473 342 473 315 458 c 0,46,47
 283 441 283 441 260 441 c 0,48,49
 200 441 200 441 200 558 c 0,50,51
 200 619 200 619 191 637.5 c 128,-1,52
 182 656 182 656 153.5 656 c 128,-1,53
 125 656 125 656 117 638 c 0,54,55
 103 607 103 607 103 360.5 c 128,-1,56
 103 114 103 114 111.5 82 c 128,-1,57
 120 50 120 50 140 48 c 0,58,59
 144 47 144 47 158 47 c 128,-1,60
 172 47 172 47 186 57.5 c 128,-1,61
 200 68 200 68 200 84 c 0,62,63
 200 118 200 118 223 118 c 0,26,27
282 131 m 0,64,65
 256 147 256 147 236 178 c 128,-1,66
 216 209 216 209 210 241 c 0,67,68
 207 256 207 256 208 270 c 0,69,70
 208 286 208 286 211 300 c 0,71,72
 217 327 217 327 231.5 351 c 128,-1,73
 246 375 246 375 268 387 c 0,74,75
 295 402 295 402 321 402 c 0,76,77
 346 402 346 402 370 388 c 0,78,79
 397 374 397 374 407.5 347 c 128,-1,80
 418 320 418 320 418.5 273 c 128,-1,81
 419 226 419 226 407 191.5 c 128,-1,82
 395 157 395 157 375 139.5 c 128,-1,83
 355 122 355 122 332 119 c 0,84,85
 328 118 328 118 323 118 c 0,86,87
 303 118 303 118 282 131 c 0,64,65
358 266 m 1,88,89
 358 289 358 289 349 309 c 128,-1,90
 340 329 340 329 325 334 c 0,91,92
 321 335 321 335 317 336 c 0,93,94
 306 336 306 336 295 323 c 0,95,96
 280 307 280 307 277 281 c 0,97,98
 276 274 276 274 276 267 c 0,99,100
 276 248 276 248 282 228 c 0,101,102
 294 198 294 198 314 198 c 0,103,104
 319 198 319 198 324 199 c 0,105,106
 351 208 351 208 357 251 c 1,107,-1
 358 266 l 1,88,89
EndSplineSet
Validated: 33
EndChar

StartChar: c
Encoding: 99 99 36
Width: 641
VWidth: 25002
Flags: W
HStem: 536 20G<235.395 416.977>
VStem: 30 582<332.605 454.819>
LayerCount: 2
Fore
SplineSet
153 53 m 0,0,1
 76 97 76 97 46 188 c 0,2,3
 30 234 30 234 30 293 c 0,4,5
 30 348 30 348 49 397 c 0,6,7
 69 448 69 448 108 484 c 0,8,9
 187 556 187 556 323.5 556 c 128,-1,10
 460 556 460 556 536 507 c 128,-1,11
 612 458 612 458 612 375 c 0,12,13
 612 360 612 360 585.5 347.5 c 128,-1,14
 559 335 559 335 524 330 c 0,15,16
 501 327 501 327 476 326 c 0,17,18
 464 326 464 326 451 327 c 0,19,20
 414 330 414 330 390.5 343.5 c 128,-1,21
 367 357 367 357 342 358 c 0,22,23
 341 358 l 0,24,25
 316 358 316 358 300 343 c 0,26,27
 283 328 283 328 275 308 c 0,28,29
 271 298 271 298 270 286 c 0,30,31
 270 275 270 275 274 262 c 0,32,33
 282 237 282 237 300.5 221.5 c 128,-1,34
 319 206 319 206 330 204 c 0,35,36
 333 203 333 203 335 203 c 0,37,38
 353 203 353 203 378 228 c 0,39,40
 410 261 410 261 480 261 c 0,41,42
 493 261 493 261 508 259 c 0,43,44
 566 254 566 254 584 241.5 c 128,-1,45
 602 229 602 229 607 190 c 0,46,47
 608 181 608 181 608 171 c 0,48,49
 608 109 608 109 554 74 c 0,50,51
 493 33 493 33 352 26 c 0,52,53
 327 25 327 25 305 25 c 0,54,55
 201 25 201 25 153 53 c 0,0,1
516 187 m 0,56,57
 504 190 504 190 491 191 c 0,58,59
 479 191 479 191 466 188 c 0,60,61
 439 182 439 182 430 166 c 0,62,63
 417 145 417 145 352 143 c 0,64,65
 346 143 346 143 340 143 c 0,66,67
 284 143 284 143 256 161 c 0,68,69
 217 186 217 186 209 256 c 0,70,71
 208 269 208 269 208 281 c 0,72,73
 208 334 208 334 233 374 c 0,74,75
 253 404 253 404 295 422 c 0,76,77
 331 437 331 437 365 437 c 0,78,79
 370 437 370 437 376 437 c 0,80,81
 415 434 415 434 431 408 c 0,82,83
 446 384 446 384 478 385 c 0,84,85
 481 385 481 385 484 385 c 0,86,87
 526 387 526 387 526 413 c 0,88,89
 526 440 526 440 469 467 c 0,90,91
 423 489 423 489 372 496 c 0,92,93
 348 500 348 500 326 500 c 0,94,95
 237 500 237 500 172 443 c 0,96,97
 103 381 103 381 103 293 c 0,98,99
 103 279 103 279 105 264 c 0,100,101
 118 157 118 157 213 102 c 0,102,103
 263 74 263 74 327 71 c 0,104,105
 328 71 328 71 330 71 c 0,106,107
 348 71 348 71 383 80 c 0,108,109
 420 90 420 90 449 102 c 128,-1,110
 478 114 478 114 497 125 c 0,111,112
 539 150 539 150 539 165.5 c 128,-1,113
 539 181 539 181 516 187 c 0,56,57
EndSplineSet
Validated: 33
EndChar

StartChar: d
Encoding: 100 100 37
Width: 618
VWidth: 25262
Flags: W
HStem: 0 37<437.625 513.842>
VStem: 358 49<511.339 640.511> 528 61<118.048 645.705>
LayerCount: 2
Fore
SplineSet
358 697 m 1,0,1
 473 690 473 690 589 682 c 1,2,-1
 589 0 l 1,3,-1
 367 -5 l 2,4,5
 318 -6 318 -6 280 -6 c 0,6,7
 196 -6 196 -6 169 -1 c 0,8,9
 134 6 134 6 119 21 c 0,10,11
 55 80 55 80 42.5 124.5 c 128,-1,12
 30 169 30 169 30 243 c 128,-1,13
 30 317 30 317 35 351.5 c 128,-1,14
 40 386 40 386 52.5 410.5 c 128,-1,15
 65 435 65 435 97 469.5 c 128,-1,16
 129 504 129 504 159 514 c 0,17,18
 180 521 180 521 216 521 c 0,19,20
 234 521 234 521 255 520 c 2,21,-1
 358 511 l 1,22,-1
 358 697 l 1,0,1
417 104 m 0,23,24
 431 96 431 96 431 77 c 128,-1,25
 431 58 431 58 445 47.5 c 128,-1,26
 459 37 459 37 482.5 37 c 128,-1,27
 506 37 506 37 514 55 c 0,28,29
 528 86 528 86 528 341 c 2,30,-1
 528 646 l 1,31,-1
 467 646 l 2,32,33
 436 646 436 646 425 638.5 c 128,-1,34
 414 631 414 631 411 617 c 0,35,36
 406 590 406 590 407 558 c 2,37,-1
 406 509 l 2,38,39
 406 442 406 442 391 435 c 0,40,41
 388 434 388 434 383 434 c 0,42,43
 359 434 359 434 283 458 c 0,44,45
 265 464 265 464 252 468 c 0,46,47
 248 469 248 469 244 470 c 0,48,49
 231 470 231 470 209 459 c 0,50,51
 181 445 181 445 153 418 c 0,52,53
 88 353 88 353 88 254 c 0,54,55
 88 159 88 159 150 96 c 0,56,57
 201 44 201 44 238 40 c 0,58,59
 242 39 242 39 246 39 c 0,60,61
 279 39 279 39 323 72 c 0,62,63
 370 108 370 108 399 108 c 0,64,65
 409 108 409 108 417 104 c 0,23,24
226 164 m 0,66,67
 190 215 190 215 190 257 c 0,68,69
 190 302 190 302 228 349 c 0,70,71
 264 394 264 394 282 398 c 0,72,73
 286 399 286 399 291 399 c 0,74,75
 309 399 309 399 341 384 c 0,76,77
 382 365 382 365 394 342 c 128,-1,78
 406 319 406 319 406.5 268.5 c 128,-1,79
 407 218 407 218 395.5 183.5 c 128,-1,80
 384 149 384 149 364.5 131 c 128,-1,81
 345 113 345 113 322 108 c 0,82,83
 316 107 316 107 310 107 c 0,84,85
 292 107 292 107 273 118 c 0,86,87
 248 132 248 132 226 164 c 0,66,67
345 280 m 0,88,89
 339 300 339 300 328.5 314.5 c 128,-1,90
 318 329 318 329 307 329 c 0,91,92
 283 329 283 329 270 291 c 0,93,94
 263 271 263 271 263 253 c 0,95,96
 263 236 263 236 269 220 c 0,97,98
 281 188 281 188 305 184 c 0,99,100
 308 184 308 184 312 184 c 0,101,102
 332 184 332 184 345 205 c 0,103,104
 353 217 353 217 352 236 c 0,105,106
 352 255 352 255 345 280 c 0,88,89
EndSplineSet
Validated: 33
EndChar

StartChar: asciicircum
Encoding: 94 94 38
Width: 582
VWidth: 25268
Flags: W
HStem: 360 49<120.565 177.086 416.61 455.657> 725 49<267.009 316.833>
LayerCount: 2
Fore
SplineSet
31 383 m 0,0,1
 30 384 30 384 30 389 c 0,2,3
 30 440 30 440 146 668 c 0,4,5
 158 692 158 692 175 718 c 128,-1,6
 192 744 192 744 199 751 c 128,-1,7
 206 758 206 758 223 766 c 128,-1,8
 240 774 240 774 252 774 c 0,9,10
 292 774 292 774 317.5 774 c 128,-1,11
 343 774 343 774 360 766 c 128,-1,12
 377 758 377 758 383.5 751 c 128,-1,13
 390 744 390 744 406.5 718 c 128,-1,14
 423 692 423 692 433.5 668 c 128,-1,15
 444 644 444 644 469 590 c 0,16,17
 552 408 552 408 552 383 c 0,18,19
 552 373 552 373 521.5 366.5 c 128,-1,20
 491 360 491 360 435 360 c 128,-1,21
 379 360 379 360 356.5 371.5 c 128,-1,22
 334 383 334 383 318 427 c 2,23,-1
 293 494 l 1,24,-1
 261 427 l 2,25,26
 241 385 241 385 217.5 372.5 c 128,-1,27
 194 360 194 360 146.5 360 c 128,-1,28
 99 360 99 360 68 366.5 c 128,-1,29
 37 373 37 373 31 383 c 0,0,1
250 585.5 m 128,-1,31
 269 618 269 618 284 623 c 1,32,33
 297 623 297 623 318.5 593.5 c 128,-1,34
 340 564 340 564 360 519 c 128,-1,35
 380 474 380 474 405 441.5 c 128,-1,36
 430 409 430 409 443.5 409 c 128,-1,37
 457 409 457 409 457 424 c 0,38,39
 457 455 457 455 413 543.5 c 128,-1,40
 369 632 369 632 337 678.5 c 128,-1,41
 305 725 305 725 292 725 c 128,-1,42
 279 725 279 725 249 683 c 128,-1,43
 219 641 219 641 169 541.5 c 128,-1,44
 119 442 119 442 119 423 c 0,45,46
 119 409 119 409 150 409 c 0,47,48
 164 409 164 409 184 439 c 128,-1,49
 204 469 204 469 218 511 c 0,50,30
 231 553 231 553 250 585.5 c 128,-1,31
EndSplineSet
Validated: 1
EndChar

StartChar: grave
Encoding: 96 96 39
Width: 303
VWidth: 25182
Flags: W
HStem: 724 73<63.3931 177.037>
LayerCount: 2
Fore
SplineSet
83 659 m 0,0,1
 29 717 29 717 29 751 c 0,2,3
 29 769 29 769 43 781 c 0,4,5
 63 798 63 798 119.5 797.5 c 128,-1,6
 176 797 176 797 224.5 749.5 c 128,-1,7
 273 702 273 702 273 640 c 0,8,9
 273 605 273 605 218 602 c 0,10,11
 214 602 214 602 210 602 c 0,12,13
 159 602 159 602 108 638 c 0,14,15
 94 648 94 648 83 659 c 0,0,1
146 724 m 0,16,17
 136 724 136 724 136 717 c 0,18,19
 136 711 136 711 144 699 c 1,20,-1
 152 688 l 1,21,22
 182 651 182 651 190.5 651 c 128,-1,23
 199 651 199 651 189 677 c 0,24,25
 171 724 171 724 146 724 c 0,16,17
EndSplineSet
Validated: 33
EndChar

StartChar: Q
Encoding: 81 81 40
Width: 790
VWidth: 25959
Flags: W
HStem: 546 20G<375.288 402.729> 692 20G<271.418 519.478>
VStem: 30 68<217.712 487.949> 231 316<283.854 466.788>
LayerCount: 2
Fore
SplineSet
584 -14 m 0,0,1
 564 -3 564 -3 513 4 c 0,2,3
 476 9 476 9 438 9 c 0,4,5
 424 9 424 9 409 8 c 0,6,7
 393 7 393 7 377 7 c 0,8,9
 155 7 155 7 73 159 c 0,10,11
 30 239 30 239 30 359 c 0,12,13
 30 533 30 533 121.5 622.5 c 128,-1,14
 213 712 213 712 399 712 c 128,-1,15
 585 712 585 712 667 616 c 0,16,17
 738 533 738 533 738 365 c 0,18,19
 738 337 738 337 736 307 c 0,20,21
 733 265 733 265 733 227 c 0,22,23
 733 199 733 199 734 174 c 0,24,25
 738 116 738 116 748 106 c 128,-1,26
 758 96 758 96 760 71 c 0,27,28
 761 64 761 64 761 57 c 0,29,30
 761 38 761 38 756 20 c 0,31,32
 743 -32 743 -32 695 -41 c 0,33,34
 685 -43 685 -43 675 -43 c 0,35,36
 635 -43 635 -43 584 -14 c 0,0,1
692 46 m 0,37,38
 692 52 692 52 680.5 65.5 c 128,-1,39
 669 79 669 79 652.5 91 c 128,-1,40
 636 103 636 103 630 109.5 c 128,-1,41
 624 116 624 116 624 130.5 c 128,-1,42
 624 145 624 145 631 161.5 c 128,-1,43
 638 178 638 178 656 215.5 c 128,-1,44
 674 253 674 253 682 295 c 0,45,46
 688 326 688 326 688 355 c 0,47,48
 688 366 688 366 687 376 c 0,49,50
 684 415 684 415 673 451.5 c 128,-1,51
 662 488 662 488 641.5 519 c 128,-1,52
 621 550 621 550 595 576.5 c 128,-1,53
 569 603 569 603 535.5 620.5 c 128,-1,54
 502 638 502 638 466 648 c 0,55,56
 432 657 432 657 397 657 c 0,57,58
 353 657 353 657 306 643 c 0,59,60
 198 610 198 610 148 542 c 128,-1,61
 98 474 98 474 98 360 c 0,62,63
 98 289 98 289 108.5 247.5 c 128,-1,64
 119 206 119 206 146 175 c 0,65,66
 203 111 203 111 287 83 c 0,67,68
 344 63 344 63 404 64 c 0,69,70
 432 64 432 64 462 68 c 0,71,72
 494 73 494 73 524 73 c 0,73,74
 537 73 537 73 550 72 c 0,75,76
 592 69 592 69 611 58 c 0,77,78
 657 32 657 32 677 31 c 0,79,80
 692 32 692 32 692 46 c 0,37,38
271 196 m 0,81,82
 231 241 231 241 231 366 c 0,83,84
 231 442 231 442 241.5 473.5 c 128,-1,85
 252 505 252 505 279.5 524.5 c 128,-1,86
 307 544 307 544 337.5 555 c 128,-1,87
 368 566 368 566 389 566 c 128,-1,88
 410 566 410 566 440.5 555 c 128,-1,89
 471 544 471 544 498.5 524.5 c 128,-1,90
 526 505 526 505 536.5 472.5 c 128,-1,91
 547 440 547 440 547 368 c 128,-1,92
 547 296 547 296 543.5 270 c 128,-1,93
 540 244 540 244 530.5 234.5 c 128,-1,94
 521 225 521 225 499.5 225 c 128,-1,95
 478 225 478 225 464 214.5 c 128,-1,96
 450 204 450 204 450 188.5 c 128,-1,97
 450 173 450 173 436 163.5 c 128,-1,98
 422 154 422 154 401 153 c 0,99,100
 394 153 394 153 388 152 c 0,101,102
 373 152 373 152 356 155 c 0,103,104
 301 163 301 163 271 196 c 0,81,82
434 313 m 0,105,106
 453 308 453 308 466 309 c 0,107,108
 491 309 491 309 496 325 c 0,109,110
 498 331 498 331 498 339 c 0,111,112
 498 368 498 368 475 431 c 0,113,114
 449 498 449 498 399 498 c 0,115,116
 397 498 397 498 396 498 c 0,117,118
 344 496 344 496 307 440 c 0,119,120
 283 403 283 403 284 358 c 0,121,122
 284 335 284 335 290 309 c 0,123,124
 301 264 301 264 309 260 c 0,125,126
 310 260 310 260 311 260 c 0,127,128
 319 260 319 260 336 283 c 0,129,130
 355 310 355 310 377 316 c 0,131,132
 386 318 386 318 397 319 c 0,133,134
 413 318 413 318 434 313 c 0,105,106
EndSplineSet
Validated: 33
EndChar

StartChar: K
Encoding: 75 75 41
Width: 788
Flags: W
HStem: 0 49<78.5596 218.173 518.195 657.905> 658 49<78.5596 216.92 476.121 642.901>
VStem: 30 49<48.7549 657.91> 225 48<54.9386 172.653 524.777 651.582> 467 73<381.442 464.751> 661 97<17.0532 66.5806>
LayerCount: 2
Fore
SplineSet
30 0 m 1,0,1
 30 707 l 1,2,3
 273 707 l 1,4,5
 273 682 273 682 273.5 615.5 c 128,-1,6
 274 549 274 549 275 524 c 1,7,-1
 353 615 l 2,8,9
 374 640 374 640 385.5 652.5 c 128,-1,10
 397 665 397 665 413.5 677.5 c 128,-1,11
 430 690 430 690 440.5 694 c 128,-1,12
 451 698 451 698 475 702 c 0,13,14
 503 707 503 707 563 707 c 128,-1,15
 623 707 623 707 650 705 c 128,-1,16
 677 703 677 703 697 699 c 128,-1,17
 717 695 717 695 724 686.5 c 128,-1,18
 731 678 731 678 731 667 c 128,-1,19
 731 656 731 656 718 638 c 0,20,21
 694 604 694 604 645.5 556.5 c 128,-1,22
 597 509 597 509 568.5 474.5 c 128,-1,23
 540 440 540 440 540 430.5 c 128,-1,24
 540 421 540 421 572 361.5 c 128,-1,25
 604 302 604 302 649 227.5 c 128,-1,26
 694 153 694 153 726 93 c 128,-1,27
 758 33 758 33 758 23.5 c 128,-1,28
 758 14 758 14 713.5 7 c 128,-1,29
 669 0 669 0 605 0 c 2,30,-1
 452 0 l 1,31,-1
 398 112 l 2,32,33
 364 182 364 182 348 197 c 0,34,35
 340 205 340 205 330.5 205 c 128,-1,36
 321 205 321 205 312 197 c 0,37,38
 294 182 294 182 283.5 149 c 128,-1,39
 273 116 273 116 273 82 c 2,40,-1
 273 0 l 1,41,-1
 30 0 l 1,0,1
223 85 m 128,-1,43
 225 99 225 99 225 129 c 128,-1,44
 225 159 225 159 237 193 c 128,-1,45
 249 227 249 227 267 254 c 128,-1,46
 285 281 285 281 307.5 299 c 128,-1,47
 330 317 330 317 351 317 c 0,48,49
 370 317 370 317 412 250 c 0,50,51
 432 219 432 219 462.5 156.5 c 128,-1,52
 493 94 493 94 516.5 71.5 c 128,-1,53
 540 49 540 49 579 49 c 0,54,55
 661 49 661 49 661 60.5 c 128,-1,56
 661 72 661 72 603 168 c 128,-1,57
 545 264 545 264 527 296.5 c 128,-1,58
 509 329 509 329 496 356 c 0,59,60
 468 415 468 415 467.5 432 c 128,-1,61
 467 449 467 449 493.5 488 c 128,-1,62
 520 527 520 527 557 566 c 2,63,-1
 647 658 l 1,64,-1
 563 658 l 2,65,66
 509 658 509 658 476.5 636 c 128,-1,67
 444 614 444 614 393 550 c 128,-1,68
 342 486 342 486 305 450 c 128,-1,69
 268 414 268 414 255 414 c 0,70,71
 224 414 224 414 224 536 c 0,72,73
 224 604 224 604 221.5 619 c 128,-1,74
 219 634 219 634 214.5 641.5 c 128,-1,75
 210 649 210 649 206 651 c 128,-1,76
 202 653 202 653 193 655 c 0,77,78
 183 658 183 658 151 658 c 2,79,-1
 79 658 l 1,80,-1
 79 49 l 1,81,-1
 151 49 l 2,82,83
 178 49 178 49 191 51 c 128,-1,84
 204 53 204 53 212.5 62 c 128,-1,42
 221 71 221 71 223 85 c 128,-1,43
EndSplineSet
Validated: 33
EndChar

StartChar: L
Encoding: 76 76 42
Width: 639
Flags: W
HStem: 22 49<117.561 530.416>
VStem: 32 68<169.12 680.155> 243 50<469.443 680.155> 257 36<241.581 383.593> 536 73<81.8475 157.348>
LayerCount: 2
Fore
SplineSet
37 54.5 m 128,-1,1
 32 67 32 67 31 169 c 0,2,3
 30 205 30 205 30 245 c 0,4,5
 30 317 30 317 32 401 c 2,6,-1
 39 717 l 1,7,8
 166 724 166 724 293 731 c 1,9,-1
 293 242 l 1,10,-1
 609 242 l 1,11,-1
 609 22 l 1,12,-1
 329 22 l 2,13,14
 128 22 128 22 85 32 c 128,-1,0
 42 42 42 42 37 54.5 c 128,-1,1
536 119 m 0,15,16
 536 150 536 150 511.5 159.5 c 128,-1,17
 487 169 487 169 397 173 c 2,18,-1
 257 181 l 1,19,20
 250 431 250 431 243 680 c 1,21,-1
 100 680 l 1,22,-1
 100 71 l 1,23,-1
 318 71 l 2,24,25
 466 71 466 71 496.5 77.5 c 128,-1,26
 527 84 527 84 531.5 92.5 c 128,-1,27
 536 101 536 101 536 119 c 0,15,16
EndSplineSet
Validated: 1
EndChar

StartChar: M
Encoding: 77 77 43
Width: 845
VWidth: 25246
Flags: W
HStem: 2 512<231.841 426.445> 659 37<568.817 754.814> 662 41<99.248 194.603>
VStem: 32 68<147.978 662.235> 607 51<65.0527 306.132> 755 61<131.781 659.428>
LayerCount: 2
Fore
SplineSet
38 32 m 0,0,1
 33 46 33 46 31 148 c 0,2,3
 30 187 30 187 30 229 c 0,4,5
 30 299 30 299 32 381 c 2,6,-1
 39 696 l 1,7,-1
 359 710 l 1,8,-1
 424 406 l 1,9,-1
 500 696 l 1,10,-1
 816 696 l 1,11,-1
 816 14 l 1,12,-1
 609 -1 l 1,13,-1
 605 306 l 1,14,-1
 533 2 l 1,15,-1
 426 2 l 2,16,17
 347 2 347 2 332 14 c 0,18,19
 327 18 327 18 319 30 c 0,20,21
 311 44 311 44 302 93 c 2,22,-1
 283 184 l 1,23,-1
 270 99 l 2,24,25
 261 38 261 38 244 25 c 0,26,27
 230 13 230 13 205.5 10.5 c 128,-1,28
 181 8 181 8 154 6 c 0,29,30
 135 5 135 5 119 5 c 0,31,32
 48 5 48 5 38 32 c 0,0,1
195 153.5 m 128,-1,34
 196 193 196 193 196 273.5 c 128,-1,35
 196 354 196 354 197.5 397 c 128,-1,36
 199 440 199 440 203.5 467 c 128,-1,37
 208 494 208 494 214.5 503.5 c 128,-1,38
 221 513 221 513 233.5 513.5 c 128,-1,39
 246 514 246 514 254.5 506.5 c 128,-1,40
 263 499 263 499 277 462 c 0,41,42
 296 410 296 410 348 196 c 0,43,44
 367 120 367 120 384.5 89.5 c 128,-1,45
 402 59 402 59 429 55 c 0,46,47
 436 52 436 52 442.5 54.5 c 128,-1,48
 449 57 449 57 454 58 c 128,-1,49
 459 59 459 59 464.5 66 c 128,-1,50
 470 73 470 73 474 80 c 128,-1,51
 478 87 478 87 483.5 101.5 c 128,-1,52
 489 116 489 116 494 131 c 128,-1,53
 499 146 499 146 506 170 c 0,54,55
 517 212 517 212 534 281 c 0,56,57
 590 513 590 513 624 514 c 0,58,59
 644 514 644 514 651 466.5 c 128,-1,60
 658 419 658 419 658 269.5 c 128,-1,61
 658 120 658 120 665 85 c 128,-1,62
 672 50 672 50 702.5 50 c 128,-1,63
 733 50 733 50 741 69 c 0,64,65
 755 100 755 100 755 355 c 2,66,-1
 755 659 l 1,67,-1
 659 659 l 2,68,69
 590 659 590 659 573 646 c 0,70,71
 558 635 558 635 551.5 613.5 c 128,-1,72
 545 592 545 592 526 518.5 c 128,-1,73
 507 445 507 445 488 373 c 0,74,75
 462 273 462 273 434 273 c 0,76,77
 407 273 407 273 378 360 c 0,78,79
 364 400 364 400 350 458 c 2,80,-1
 303 647 l 1,81,-1
 100 662 l 1,82,-1
 100 356 l 2,83,84
 100 117 100 117 108 85 c 128,-1,85
 116 53 116 53 137 51 c 0,86,87
 141 50 141 50 153.5 50 c 128,-1,88
 166 50 166 50 174.5 54.5 c 128,-1,89
 183 59 183 59 188.5 86.5 c 128,-1,33
 194 114 194 114 195 153.5 c 128,-1,34
EndSplineSet
Validated: 1
EndChar

StartChar: N
Encoding: 78 78 44
Width: 715
VWidth: 25070
Flags: W
HStem: 0 49<78.5596 190.956 507.948 637.007> 658 49<78.5596 207.618 524.589 637.007>
VStem: 30 49<48.7305 657.886> 637 49<48.7305 657.886>
LayerCount: 2
Fore
SplineSet
30 0 m 1,0,-1
 30 707 l 1,1,-1
 149 707 l 2,2,3
 184 707 184 707 199 706.5 c 128,-1,4
 214 706 214 706 234.5 700.5 c 128,-1,5
 255 695 255 695 263 690 c 128,-1,6
 271 685 271 685 287.5 667 c 128,-1,7
 304 649 304 649 315 632.5 c 128,-1,8
 326 616 326 616 349 579 c 2,9,-1
 431 451 l 1,10,-1
 445 707 l 1,11,-1
 686 707 l 1,12,-1
 686 0 l 1,13,-1
 567 0 l 2,14,15
 532 0 532 0 516.5 0 c 128,-1,16
 501 0 501 0 480.5 5.5 c 128,-1,17
 460 11 460 11 452.5 16 c 128,-1,18
 445 21 445 21 428 39.5 c 128,-1,19
 411 58 411 58 400.5 74.5 c 128,-1,20
 390 91 390 91 366 128 c 2,21,-1
 285 255 l 1,22,-1
 270 0 l 1,23,-1
 30 0 l 1,0,-1
191.5 72 m 128,-1,25
 200 95 200 95 200 186.5 c 128,-1,26
 200 278 200 278 204 315.5 c 128,-1,27
 208 353 208 353 217.5 372.5 c 128,-1,28
 227 392 227 392 241.5 392 c 128,-1,29
 256 392 256 392 278 372 c 0,30,31
 319 336 319 336 380.5 240.5 c 128,-1,32
 442 145 442 145 469.5 110.5 c 128,-1,33
 497 76 497 76 519 62.5 c 128,-1,34
 541 49 541 49 570 49 c 2,35,-1
 637 49 l 1,36,-1
 637 658 l 1,37,-1
 576 658 l 2,38,39
 532 658 532 658 524 635 c 128,-1,40
 516 612 516 612 516 520.5 c 128,-1,41
 516 429 516 429 511.5 391.5 c 128,-1,42
 507 354 507 354 497.5 334.5 c 128,-1,43
 488 315 488 315 473.5 315 c 128,-1,44
 459 315 459 315 437 334 c 0,45,46
 396 370 396 370 324.5 482 c 128,-1,47
 253 594 253 594 220 625.5 c 128,-1,48
 187 657 187 657 145 658 c 2,49,-1
 79 658 l 1,50,-1
 79 49 l 1,51,-1
 139 49 l 2,52,24
 183 49 183 49 191.5 72 c 128,-1,25
EndSplineSet
Validated: 1
EndChar

StartChar: O
Encoding: 79 79 45
Width: 768
VWidth: 25129
Flags: W
HStem: 478 85<317.096 452.556>
LayerCount: 2
Fore
SplineSet
69 155 m 0,0,1
 30 230 30 230 30 358 c 0,2,3
 30 482 30 482 67 555 c 0,4,5
 92 604 92 604 143.5 639.5 c 128,-1,6
 195 675 195 675 256 691.5 c 128,-1,7
 317 708 317 708 386 709 c 0,8,9
 389 709 389 709 392 709 c 0,10,11
 458 709 458 709 516 694 c 0,12,13
 577 678 577 678 628 644 c 128,-1,14
 679 610 679 610 704 561 c 0,15,16
 738 495 738 495 738 359 c 0,17,18
 738 217 738 217 703 148 c 0,19,20
 688 119 688 119 656 87 c 128,-1,21
 624 55 624 55 595 40 c 0,22,23
 528 5 528 5 387 5 c 0,24,25
 385 5 385 5 384 5 c 0,26,27
 241 5 241 5 175 41 c 0,28,29
 148 56 148 56 117 89.5 c 128,-1,30
 86 123 86 123 69 155 c 0,0,1
606 151 m 0,31,32
 653 198 653 198 666 233.5 c 128,-1,33
 679 269 679 269 679 351.5 c 128,-1,34
 679 434 679 434 667.5 472.5 c 128,-1,35
 656 511 656 511 621 549 c 0,36,37
 558 616 558 616 473 639 c 0,38,39
 430 651 430 651 387 652 c 0,40,41
 345 652 345 652 303 640 c 0,42,43
 218 616 218 616 155 550 c 0,44,45
 119 512 119 512 107.5 473.5 c 128,-1,46
 96 435 96 435 96 354 c 128,-1,47
 96 273 96 273 109 236 c 128,-1,48
 122 199 122 199 174 144 c 128,-1,49
 226 89 226 89 280 72 c 0,50,51
 312 62 312 62 360 62 c 0,52,53
 393 62 393 62 433 67 c 0,54,55
 533 78 533 78 606 151 c 0,31,32
382 151 m 0,56,57
 307 152 307 152 268.5 195 c 128,-1,58
 230 238 230 238 230 363 c 0,59,60
 230 439 230 439 240.5 470.5 c 128,-1,61
 251 502 251 502 278.5 521.5 c 128,-1,62
 306 541 306 541 336.5 552 c 128,-1,63
 367 563 367 563 387.5 563 c 128,-1,64
 408 563 408 563 438.5 552 c 128,-1,65
 469 541 469 541 491 526 c 0,66,67
 526 502 526 502 541 432 c 0,68,69
 550 392 550 392 550 351 c 0,70,71
 550 321 550 321 545 291 c 0,72,73
 534 220 534 220 501 190 c 0,74,75
 458 151 458 151 387 151 c 0,76,77
 384 151 384 151 382 151 c 0,56,57
479 423 m 0,78,79
 453 479 453 479 388 478 c 0,80,81
 346 478 346 478 326 464.5 c 128,-1,82
 306 451 306 451 293 412 c 0,83,84
 282 380 282 380 282 351 c 0,85,86
 282 305 282 305 310 266 c 0,87,88
 344 219 344 219 393 218 c 0,89,90
 395 218 395 218 397 219 c 0,91,92
 449 221 449 221 477 294 c 0,93,94
 492 332 492 332 492 366 c 0,95,96
 491 396 491 396 479 423 c 0,78,79
EndSplineSet
Validated: 33
EndChar

StartChar: P
Encoding: 80 80 46
Width: 663
VWidth: 25062
Flags: W
HStem: 7 49<101.856 237.671> 251 49<293.549 452.453> 373 219<252.245 408.222> 665 37<99.3105 443.33>
VStem: 32 68<154.117 665.155> 245 49<61.5789 250.946 454.853 513.251>
LayerCount: 2
Fore
SplineSet
37 39 m 0,0,1
 32 52 32 52 31 154 c 0,2,3
 30 190 30 190 30 230 c 0,4,5
 30 302 30 302 32 386 c 2,6,-1
 39 702 l 1,7,-1
 271 709 l 2,8,9
 330 711 330 711 373 710 c 0,10,11
 444 710 444 710 475 706 c 0,12,13
 525 699 525 699 567.5 665.5 c 128,-1,14
 610 632 610 632 621.5 600 c 128,-1,15
 633 568 633 568 633 492 c 0,16,17
 633 368 633 368 577.5 309.5 c 128,-1,18
 522 251 522 251 404 251 c 2,19,-1
 294 251 l 1,20,-1
 294 7 l 1,21,-1
 171 7 l 2,22,23
 49 7 49 7 37 39 c 0,0,1
245 178 m 2,24,-1
 245 300 l 1,25,-1
 331 300 l 2,26,27
 398 300 398 300 453 321 c 128,-1,28
 508 342 508 342 539 378 c 128,-1,29
 570 414 570 414 579 461 c 0,30,31
 582 474 582 474 582 486 c 0,32,33
 582 521 582 521 564 558 c 0,34,35
 537 617 537 617 467.5 641 c 128,-1,36
 398 665 398 665 256 665 c 2,37,-1
 100 665 l 1,38,-1
 100 56 l 1,39,-1
 172 56 l 2,40,41
 212 56 212 56 221 60.5 c 128,-1,42
 230 65 230 65 235 72.5 c 128,-1,43
 240 80 240 80 241 86.5 c 128,-1,44
 242 93 242 93 243 109 c 0,45,46
 245 126 245 126 245 178 c 2,24,-1
245.5 439.5 m 128,-1,48
 245 455 245 455 245 485 c 128,-1,49
 245 515 245 515 246 532.5 c 128,-1,50
 247 550 247 550 250 563.5 c 128,-1,51
 253 577 253 577 260 583 c 0,52,53
 274 592 274 592 304 592 c 0,54,55
 382 592 382 592 410.5 569 c 128,-1,56
 439 546 439 546 439 492.5 c 128,-1,57
 439 439 439 439 426.5 416 c 128,-1,58
 414 393 414 393 385.5 383 c 128,-1,59
 357 373 357 373 323 373 c 128,-1,60
 289 373 289 373 280.5 374 c 128,-1,61
 272 375 272 375 265 379.5 c 128,-1,62
 258 384 258 384 254.5 390 c 128,-1,63
 251 396 251 396 248.5 410 c 128,-1,47
 246 424 246 424 245.5 439.5 c 128,-1,48
365 501.5 m 128,-1,65
 354 511 354 511 340 513.5 c 128,-1,66
 326 516 326 516 318 515 c 128,-1,67
 310 514 310 514 305 510 c 0,68,69
 294 502 294 502 294 482 c 128,-1,70
 294 462 294 462 312 454 c 0,71,72
 321 450 321 450 330.5 450 c 128,-1,73
 340 450 340 450 350 454 c 0,74,75
 370 462 370 462 373 477 c 128,-1,64
 376 492 376 492 365 501.5 c 128,-1,65
EndSplineSet
Validated: 33
EndChar

StartChar: R
Encoding: 82 82 47
Width: 734
VWidth: 24883
Flags: W
HStem: 22 49<78.584 216.503 494.888 629.83> 680 49<78.584 481.507>
VStem: 30 49<70.8447 680> 224 49<462.3 526.806>
LayerCount: 2
Fore
SplineSet
30 729 m 1,0,-1
 286 729 l 2,1,2
 465 729 465 729 498 722.5 c 128,-1,3
 531 716 531 716 540.5 712.5 c 128,-1,4
 550 709 550 709 562 702 c 0,5,6
 578 693 578 693 602 669 c 0,7,8
 656 614 656 614 661 530 c 0,9,10
 661 523 661 523 661 516 c 0,11,12
 661 441 661 441 617 387 c 0,13,14
 604 371 604 371 598.5 363.5 c 128,-1,15
 593 356 593 356 589.5 343 c 128,-1,16
 586 330 586 330 587 322.5 c 128,-1,17
 588 315 588 315 596 296 c 0,18,19
 604 274 604 274 630.5 226 c 128,-1,20
 657 178 657 178 667 159.5 c 128,-1,21
 677 141 677 141 686 121 c 128,-1,22
 695 101 695 101 699 90 c 128,-1,23
 703 79 703 79 704 66.5 c 128,-1,24
 705 54 705 54 703 48.5 c 128,-1,25
 701 43 701 43 693 37 c 128,-1,26
 685 31 685 31 676 29 c 128,-1,27
 667 27 667 27 649 25 c 0,28,29
 627 22 627 22 571 22 c 0,30,31
 570 22 l 2,32,-1
 431 22 l 1,33,34
 358 162 358 162 285 302 c 1,35,36
 278 162 278 162 270 22 c 1,37,-1
 30 22 l 1,38,-1
 30 729 l 1,0,-1
344.5 311 m 128,-1,40
 372 283 372 283 418.5 201 c 128,-1,41
 465 119 465 119 491 95 c 128,-1,42
 517 71 517 71 563 71 c 2,43,-1
 634 71 l 1,44,-1
 573 181 l 2,45,46
 548 226 548 226 523 258 c 128,-1,47
 498 290 498 290 489 290 c 0,48,49
 466 290 466 290 466 311 c 0,50,51
 466 317 466 317 468 326 c 0,52,53
 478 365 478 365 522.5 394.5 c 128,-1,54
 567 424 567 424 578 449 c 0,55,56
 586 467 586 467 586 496 c 0,57,58
 586 507 586 507 585 519 c 0,59,60
 581 565 581 565 570 590 c 128,-1,61
 559 615 559 615 537.5 633 c 128,-1,62
 516 651 516 651 479 661 c 0,63,64
 408 680 408 680 267 680 c 2,65,-1
 79 680 l 1,66,-1
 79 71 l 1,67,-1
 151 71 l 2,68,69
 170 71 170 71 178.5 72 c 128,-1,70
 187 73 187 73 197 74 c 128,-1,71
 207 75 207 75 210.5 82.5 c 128,-1,72
 214 90 214 90 218 96 c 128,-1,73
 222 102 222 102 222.5 121 c 128,-1,74
 223 140 223 140 223.5 155.5 c 128,-1,75
 224 171 224 171 224 205.5 c 128,-1,76
 224 240 224 240 224.5 259 c 128,-1,77
 225 278 225 278 227.5 295 c 128,-1,78
 230 312 230 312 233 319 c 128,-1,79
 236 326 236 326 243 332 c 0,80,81
 253 339 253 339 285 339 c 128,-1,39
 317 339 317 339 344.5 311 c 128,-1,40
224 409 m 1,82,-1
 224 610 l 1,83,-1
 325 602 l 2,84,85
 412 596 412 596 449 557 c 0,86,87
 468 537 468 537 468 513 c 0,88,89
 468 491 468 491 452 467 c 0,90,91
 425 424 425 424 325 417 c 2,92,-1
 224 409 l 1,82,-1
292 463 m 0,93,94
 296 462 296 462 301 462 c 0,95,96
 320 462 320 462 355 475 c 0,97,98
 393 490 393 490 393 507 c 0,99,100
 393 510 393 510 392 513 c 0,101,102
 384 534 384 534 334 534 c 0,103,104
 306 534 306 534 289.5 524 c 128,-1,105
 273 514 273 514 273 491 c 128,-1,106
 273 468 273 468 292 463 c 0,93,94
EndSplineSet
Validated: 1
EndChar

StartChar: S
Encoding: 83 83 48
Width: 702
VWidth: 24904
Flags: W
VStem: 257 61<514.97 559.915>
LayerCount: 2
Fore
SplineSet
55 163 m 0,0,1
 28 216 28 216 28 250 c 0,2,3
 28 291 28 291 66 307 c 0,4,5
 91 317 91 317 124 317 c 2,6,-1
 200 317 l 1,7,-1
 125 380 l 2,8,9
 50 444 50 444 49 516 c 0,10,11
 49 588 49 588 124 663 c 0,12,13
 144 683 144 683 155 693 c 128,-1,14
 166 703 166 703 182.5 712.5 c 128,-1,15
 199 722 199 722 210.5 725 c 128,-1,16
 222 728 222 728 248 730 c 0,17,18
 257 731 257 731 272 730 c 0,19,20
 306 730 306 730 367 727 c 0,21,22
 506 719 506 719 567.5 681.5 c 128,-1,23
 629 644 629 644 638 561 c 0,24,25
 639 551 639 551 639 543 c 0,26,27
 639 530 639 530 637 522 c 0,28,29
 632 509 632 509 617.5 501 c 128,-1,30
 603 493 603 493 561 484.5 c 128,-1,31
 519 476 519 476 518 472.5 c 128,-1,32
 517 469 517 469 524.5 465 c 128,-1,33
 532 461 532 461 561.5 451 c 128,-1,34
 591 441 591 441 621.5 402 c 128,-1,35
 652 363 652 363 665 312 c 0,36,37
 673 280 673 280 674 254 c 0,38,39
 674 239 674 239 671 225 c 0,40,41
 663 189 663 189 637 150 c 128,-1,42
 611 111 611 111 573 79 c 128,-1,43
 535 47 535 47 493 36 c 0,44,45
 453 25 453 25 381 25 c 0,46,47
 378 25 378 25 374 25 c 0,48,49
 296 26 296 26 233.5 36.5 c 128,-1,50
 171 47 171 47 145 61 c 0,51,52
 92 90 92 90 55 163 c 0,0,1
384 440 m 0,53,54
 303 464 303 464 280 481.5 c 128,-1,55
 257 499 257 499 257 536.5 c 128,-1,56
 257 574 257 574 271 587 c 128,-1,57
 285 600 285 600 326 604 c 0,58,59
 340 605 340 605 352 605 c 0,60,61
 412 605 412 605 438 574 c 0,62,63
 451 558 451 558 477 547 c 128,-1,64
 503 536 503 536 534 536 c 128,-1,65
 565 536 565 536 571 544 c 0,66,67
 573 546 573 546 573 550 c 0,68,69
 573 561 573 561 560 586 c 0,70,71
 542 619 542 619 501 641.5 c 128,-1,72
 460 664 460 664 412 670 c 0,73,74
 389 673 389 673 366 673 c 0,75,76
 340 673 340 673 312 669 c 0,77,78
 260 662 260 662 218.5 644 c 128,-1,79
 177 626 177 626 150 594 c 128,-1,80
 123 562 123 562 123 524 c 0,81,82
 123 469 123 469 174.5 427 c 128,-1,83
 226 385 226 385 329.5 354.5 c 128,-1,84
 433 324 433 324 463 287 c 0,85,86
 477 269 477 269 477 246 c 0,87,88
 477 222 477 222 462 193 c 0,89,90
 450 170 450 170 422 158 c 0,91,92
 395 146 395 146 366 146 c 0,93,94
 365 146 365 146 364 146 c 0,95,96
 333 146 333 146 302 159 c 128,-1,97
 271 172 271 172 251 195 c 128,-1,98
 231 218 231 218 194 232 c 0,99,100
 161 245 161 245 135 245 c 0,101,102
 131 245 131 245 128 245 c 0,103,104
 99 243 99 243 99 224 c 0,105,106
 99 200 99 200 157.5 150 c 128,-1,107
 216 100 216 100 257 90 c 0,108,109
 293 81 293 81 332 80 c 0,110,111
 375 80 375 80 422 91 c 0,112,113
 513 113 513 113 554 160 c 0,114,115
 606 219 606 219 606 270 c 0,116,117
 607 374 607 374 384 440 c 0,53,54
414 244 m 0,118,119
 414 268 414 268 408 268 c 128,-1,120
 402 268 402 268 329 289 c 0,121,122
 271 306 271 306 258 306 c 0,123,124
 254 306 254 306 254 304 c 0,125,126
 254 298 254 298 285 263 c 0,127,128
 318 227 318 227 369 220 c 0,129,130
 374 220 374 220 378 220 c 0,131,132
 412 220 412 220 414 244 c 0,118,119
378 536 m 128,-1,134
 372 546 372 546 361 553 c 128,-1,135
 350 560 350 560 340.5 560 c 128,-1,136
 331 560 331 560 324 553 c 128,-1,137
 317 546 317 546 317 536 c 128,-1,138
 317 526 317 526 328 519 c 128,-1,139
 339 512 339 512 355 512 c 128,-1,140
 371 512 371 512 377.5 519 c 128,-1,133
 384 526 384 526 378 536 c 128,-1,134
EndSplineSet
Validated: 33
EndChar

StartChar: T
Encoding: 84 84 49
Width: 715
VWidth: 24846
Flags: W
HStem: 497 73<83.4255 220.412> 667 49<132.82 557.329>
VStem: 30 49<577.744 654.955> 224 73<64.2777 496.397> 424 69<266.557 496.704> 613 73<579.413 655.113>
LayerCount: 2
Fore
SplineSet
224 7 m 1,0,1
 224 497 l 1,2,3
 30 497 l 1,4,5
 30 716 l 1,6,7
 686 716 l 1,8,9
 686 497 l 1,10,11
 493 497 l 1,12,13
 484 180 484 180 479 22 c 1,14,15
 437 20 437 20 351.5 14.5 c 128,-1,16
 266 9 266 9 224 7 c 1,0,1
421 209 m 2,17,-1
 431 558 l 1,18,-1
 522 565 l 2,19,20
 590 571 590 571 605 590 c 0,21,22
 613 601 613 601 613 624 c 128,-1,23
 613 647 613 647 593 655 c 0,24,25
 563 667 563 667 374 667 c 2,26,-1
 346 667 l 2,27,28
 138 667 138 667 104 657 c 1,29,30
 79 642 79 642 79 613 c 0,31,32
 79 588 79 588 96 579 c 0,33,34
 114 570 114 570 156 570 c 128,-1,35
 198 570 198 570 212.5 569 c 128,-1,36
 227 568 227 568 242 562.5 c 128,-1,37
 257 557 257 557 264 550.5 c 128,-1,38
 271 544 271 544 278.5 526.5 c 128,-1,39
 286 509 286 509 289 491.5 c 128,-1,40
 292 474 292 474 294 439 c 0,41,42
 297 394 297 394 297 252 c 128,-1,43
 297 110 297 110 305 85 c 128,-1,44
 313 60 313 60 339 59 c 1,45,-1
 357 58 l 2,46,47
 392 58 392 58 401 70 c 0,48,49
 417 90 417 90 421 209 c 2,17,-1
EndSplineSet
Validated: 1
EndChar

StartChar: U
Encoding: 85 85 50
Width: 715
VWidth: 25052
Flags: W
HStem: 667 49<73.8691 224.24 493.088 641.701>
VStem: 30 44<476.264 667.268> 31 52<225.224 628.71> 224 49<299.495 667.268> 443 43<304.293 667.268> 633 52<244.96 628.452> 642 44<475.119 667.268>
LayerCount: 2
Fore
SplineSet
31 442 m 2,0,-1
 30 716 l 1,1,2
 273 716 l 1,3,-1
 273 511 l 2,4,5
 273 371 273 371 279.5 322 c 128,-1,6
 286 273 286 273 296.5 257.5 c 128,-1,7
 307 242 307 242 320.5 235.5 c 128,-1,8
 334 229 334 229 357.5 229 c 128,-1,9
 381 229 381 229 395 235.5 c 128,-1,10
 409 242 409 242 419.5 257.5 c 128,-1,11
 430 273 430 273 434 307 c 0,12,13
 443 371 443 371 443 511 c 2,14,-1
 443 716 l 1,15,-1
 685 716 l 1,16,-1
 685 461 l 2,17,18
 685 350 685 350 681 285.5 c 128,-1,19
 677 221 677 221 662.5 173 c 128,-1,20
 648 125 648 125 626 99 c 128,-1,21
 604 73 604 73 564 50 c 0,22,23
 505 15 505 15 363 11 c 0,24,25
 346 10 346 10 330 10 c 0,26,27
 214 10 214 10 164 38 c 0,28,29
 133 55 133 55 113.5 69.5 c 128,-1,30
 94 84 94 84 78 107 c 128,-1,31
 62 130 62 130 53.5 155 c 128,-1,32
 45 180 45 180 40 223 c 0,33,34
 31 291 31 291 31 442 c 2,0,-1
562 142 m 0,35,36
 593 173 593 173 605 200.5 c 128,-1,37
 617 228 617 228 623 276 c 128,-1,38
 629 324 629 324 633 436 c 2,39,-1
 642 667 l 1,40,-1
 493 667 l 1,41,-1
 486 430 l 2,42,43
 481 251 481 251 471.5 220.5 c 128,-1,44
 462 190 462 190 434 178 c 1,45,-1
 413 170 l 1,46,47
 383 160 383 160 355 160 c 0,48,49
 320 160 320 160 286 175 c 0,50,51
 256 189 256 189 243 206.5 c 128,-1,52
 230 224 230 224 228 256 c 0,53,54
 224 321 224 321 224 435 c 2,55,-1
 224 667 l 1,56,-1
 74 667 l 1,57,-1
 83 438 l 2,58,59
 89 287 89 287 99.5 237 c 128,-1,60
 110 187 110 187 154 140.5 c 128,-1,61
 198 94 198 94 276 74 c 0,62,63
 317 64 317 64 357 63 c 0,64,65
 394 63 394 63 432 72 c 0,66,67
 510 90 510 90 562 142 c 0,35,36
EndSplineSet
Validated: 1
EndChar

StartChar: V
Encoding: 86 86 51
Width: 811
VWidth: 25212
Flags: W
HStem: 642 49<105.056 232.07>
LayerCount: 2
Fore
SplineSet
252 37 m 0,0,1
 165 272 165 272 97.5 463 c 128,-1,2
 30 654 30 654 30 668 c 0,3,4
 30 677 30 677 69 683.5 c 128,-1,5
 108 690 108 690 162 691 c 2,6,-1
 295 691 l 1,7,8
 353 502 353 502 411 313 c 1,9,10
 467 502 467 502 523 691 c 1,11,-1
 653 691 l 2,12,13
 782 691 782 691 782 660 c 0,14,15
 782 632 782 632 665 313 c 2,16,-1
 549 -4 l 1,17,-1
 411 -11 l 1,18,19
 376 -14 376 -14 350 -15 c 0,20,21
 292 -15 292 -15 273 1 c 0,22,23
 262 10 262 10 252 37 c 0,0,1
475.5 45.5 m 128,-1,25
 496 58 496 58 515.5 112 c 128,-1,26
 535 166 535 166 622 406 c 2,27,-1
 709 645 l 1,28,-1
 644 637 l 2,29,30
 611 633 611 633 594.5 617 c 128,-1,31
 578 601 578 601 566 572 c 0,32,33
 544 518 544 518 511.5 410 c 128,-1,34
 479 302 479 302 451 240.5 c 128,-1,35
 423 179 423 179 408.5 179 c 128,-1,36
 394 179 394 179 367 241.5 c 128,-1,37
 340 304 340 304 319 376 c 128,-1,38
 298 448 298 448 291 471 c 128,-1,39
 284 494 284 494 275.5 519 c 128,-1,40
 267 544 267 544 262.5 558 c 128,-1,41
 258 572 258 572 251 587 c 128,-1,42
 244 602 244 602 240 609 c 128,-1,43
 236 616 236 616 229.5 623.5 c 128,-1,44
 223 631 223 631 218 633.5 c 128,-1,45
 213 636 213 636 205 639 c 0,46,47
 195 642 195 642 172 642 c 2,48,-1
 104 642 l 1,49,-1
 179 441 l 2,50,51
 254 240 254 240 278.5 169 c 128,-1,52
 303 98 303 98 311.5 80 c 128,-1,53
 320 62 320 62 333.5 50 c 128,-1,54
 347 38 347 38 362 35.5 c 128,-1,55
 377 33 377 33 416 33 c 128,-1,24
 455 33 455 33 475.5 45.5 c 128,-1,25
EndSplineSet
Validated: 1
EndChar

StartChar: at
Encoding: 64 64 52
Width: 770
VWidth: 22077
Flags: W
HStem: 704 124<389.985 474.987>
VStem: 607 133<375.922 547.068>
LayerCount: 2
Fore
SplineSet
414 2 m 0,0,1
 405 2 405 2 396 2 c 0,2,3
 303 2 303 2 220 43 c 4,4,5
 129 88 129 88 83.5 170 c 128,-1,6
 38 252 38 252 31 389 c 0,7,8
 30 408 30 408 30 426 c 0,9,10
 30 602 30 602 119 710 c 0,11,12
 217 828 217 828 391 828 c 0,13,14
 740 828 740 828 740 487 c 0,15,16
 740 353 740 353 696 286 c 0,17,18
 665 240 665 240 665 227 c 0,19,20
 665 225 665 225 666 224 c 0,21,22
 671 219 671 219 692 219 c 0,23,24
 732 219 732 219 733 189 c 0,25,26
 733 148 733 148 671 97 c 0,27,28
 644 74 644 74 611 56 c 0,29,30
 517 6 517 6 414 2 c 0,0,1
475 146 m 4,31,32
 491 153 491 153 491 157 c 0,33,34
 491 162 491 162 472 165 c 1,35,-1
 402 168 l 1,36,37
 395 168 395 168 388 168 c 0,38,39
 307 168 307 168 307 156 c 0,40,41
 307 152 307 152 317 146 c 0,42,43
 349 126 349 126 388.5 126 c 128,-1,44
 428 126 428 126 475 146 c 4,31,32
504.5 599 m 128,-1,46
 499 604 499 604 488 597 c 128,-1,47
 477 590 477 590 470 554.5 c 128,-1,48
 463 519 463 519 463 482.5 c 128,-1,49
 463 446 463 446 460 413 c 0,50,51
 453 342 453 342 440 307 c 0,52,53
 430 280 430 280 430 263 c 0,54,55
 430 241 430 241 446 235 c 0,56,57
 479 222 479 222 493 221 c 0,58,59
 503 221 503 221 503 228 c 0,60,61
 503 236 503 236 488 254 c 0,62,63
 476 268 476 268 476 309 c 0,64,65
 476 355 476 355 491 435 c 4,66,67
 509 532 509 532 510 572 c 0,68,45
 510 594 510 594 504.5 599 c 128,-1,46
390 388 m 4,69,70
 405 445 405 445 405 483 c 0,71,72
 405 514 405 514 395 532 c 0,73,74
 388 546 388 546 376 546 c 0,75,76
 366 546 366 546 353 535 c 0,77,78
 315 503 315 503 305 408 c 0,79,80
 302 378 302 378 302 355 c 0,81,82
 302 303 302 303 318 284 c 0,83,84
 325 276 325 276 332 276 c 0,85,86
 348 276 348 276 366 318 c 0,87,88
 380 349 380 349 390 388 c 4,69,70
239 346 m 0,89,90
 244 382 244 382 251 450 c 4,91,92
 253 474 253 474 253 489 c 0,93,94
 253 519 253 519 245 519 c 1,95,-1
 242 517 l 1,96,97
 228 502 228 502 220 443 c 0,98,99
 217 413 217 413 217 384 c 0,100,101
 217 355 217 355 220 327 c 0,102,103
 223 302 223 302 227 302 c 0,104,105
 232 302 232 302 239 346 c 0,89,90
596 560 m 0,106,107
 595 560 595 560 594 560 c 0,108,109
 575 549 575 549 553 402 c 0,110,111
 546 355 546 355 545 336 c 0,112,113
 545 325 545 325 548 325 c 0,114,115
 554 327 554 327 571 349 c 128,-1,116
 588 371 588 371 598 414 c 0,117,118
 607 454 607 454 607 493 c 0,119,120
 607 560 607 560 596 560 c 0,106,107
475 682 m 4,121,122
 477 685 477 685 477 687 c 0,123,124
 477 696 477 696 457 701 c 0,125,126
 443 704 443 704 416 704 c 0,127,128
 407 704 407 704 396 703 c 0,129,130
 353 702 353 702 351 699.5 c 128,-1,131
 349 697 349 697 355 694 c 128,-1,132
 361 691 361 691 406 676.5 c 128,-1,133
 451 662 451 662 454 661 c 0,134,135
 455 661 455 661 455 660 c 0,136,137
 462 660 462 660 475 682 c 4,121,122
EndSplineSet
Validated: 1
EndChar

StartChar: question
Encoding: 63 63 53
Width: 597
VWidth: 24801
Flags: W
HStem: 24 49<222.524 333.702>
VStem: 169 49<78.7288 164.201> 339 70<78.7288 164.201> 509 58<479.475 578.172>
LayerCount: 2
Fore
SplineSet
309 523 m 0,0,1
 309 528 309 528 303 528 c 0,2,3
 287 528 287 528 267 488 c 0,4,5
 254 464 254 464 241 455 c 128,-1,6
 228 446 228 446 209.5 446 c 128,-1,7
 191 446 191 446 136.5 455.5 c 128,-1,8
 82 465 82 465 56 478.5 c 128,-1,9
 30 492 30 492 30 517 c 128,-1,10
 30 542 30 542 47 584 c 0,11,12
 81 665 81 665 139 698 c 128,-1,13
 197 731 197 731 315 731 c 128,-1,14
 433 731 433 731 500 677.5 c 128,-1,15
 567 624 567 624 567 523 c 0,16,17
 567 467 567 467 551 435.5 c 128,-1,18
 535 404 535 404 485 362 c 128,-1,19
 435 320 435 320 421 293.5 c 128,-1,20
 407 267 407 267 407 222 c 128,-1,21
 407 177 407 177 408 159 c 2,22,-1
 413 24 l 1,23,-1
 169 24 l 1,24,-1
 169 182 l 2,25,26
 169 288 169 288 181.5 328 c 128,-1,27
 194 368 194 368 251.5 433 c 128,-1,28
 309 498 309 498 309 523 c 0,0,1
325.5 84 m 128,-1,30
 339 95 339 95 339 121.5 c 128,-1,31
 339 148 339 148 325.5 159 c 128,-1,32
 312 170 312 170 278.5 170 c 128,-1,33
 245 170 245 170 231 159 c 128,-1,34
 217 148 217 148 217 121.5 c 128,-1,35
 217 95 217 95 231 84 c 128,-1,36
 245 73 245 73 278.5 73 c 128,-1,29
 312 73 312 73 325.5 84 c 128,-1,30
410 390 m 0,37,38
 509 491 509 491 509 519 c 0,39,40
 509.022222222 519.911111111 509.022222222 519.911111111 509.022222222 520.825679012 c 0,41,42
 509.022222222 561.066666667 509.022222222 561.066666667 466 608 c 0,43,44
 381 667 381 667 324 674 c 1,45,46
 243 674 243 674 169.5 627 c 128,-1,47
 96 580 96 580 96 525 c 0,48,49
 96 510 96 510 122.5 510 c 128,-1,50
 149 510 149 510 176 521 c 128,-1,51
 203 532 203 532 209 548 c 0,52,53
 222 584 222 584 305 584 c 0,54,55
 358 584 358 584 372.5 574 c 128,-1,56
 387 564 387 564 387 534.5 c 128,-1,57
 387 505 387 505 366 467.5 c 128,-1,58
 345 430 345 430 315 401.5 c 128,-1,59
 285 373 285 373 263.5 346.5 c 128,-1,60
 242 320 242 320 242 312 c 0,61,62
 242 291 242 291 261 291 c 0,63,64
 309 291 309 291 410 390 c 0,37,38
EndSplineSet
Validated: 524289
EndChar

StartChar: A
Encoding: 65 65 54
Width: 811
VWidth: 24981
Flags: W
HStem: 0 49<105.837 224.525 573.03 705.899> 97 49<318.77 486.531> 244 49<383.905 411.876> 492 20G<389.495 416.333> 658 37<329.864 482.371>
LayerCount: 2
Fore
SplineSet
149 378 m 2,0,-1
 268 695 l 1,1,-1
 546 695 l 1,2,-1
 663 378 l 2,3,4
 780 61 780 61 781 30 c 0,5,6
 781 0 781 0 651 0 c 0,7,8
 568 0 568 0 540.5 9 c 128,-1,9
 513 18 513 18 503 49 c 0,10,11
 491 88 491 88 444 95 c 0,12,13
 427 97 427 97 390 97 c 128,-1,14
 353 97 353 97 332 87 c 128,-1,15
 311 77 311 77 303.5 47.5 c 128,-1,16
 296 18 296 18 269.5 9 c 128,-1,17
 243 0 243 0 160 0 c 0,18,19
 30 0 30 0 30 30.5 c 128,-1,20
 30 61 30 61 149 378 c 2,0,-1
241 97 m 0,21,22
 247 119 247 119 260.5 129 c 128,-1,23
 274 139 274 139 304 142.5 c 128,-1,24
 334 146 334 146 399 146 c 128,-1,25
 464 146 464 146 494 142.5 c 128,-1,26
 524 139 524 139 537.5 129 c 128,-1,27
 551 119 551 119 555.5 101.5 c 128,-1,28
 560 84 560 84 566.5 75 c 128,-1,29
 573 66 573 66 583 60 c 0,30,31
 602 49 602 49 639 49 c 2,32,-1
 709 49 l 1,33,-1
 622 286 l 2,34,35
 535 524 535 524 515.5 578 c 128,-1,36
 496 632 496 632 475.5 645 c 128,-1,37
 455 658 455 658 406 658 c 128,-1,38
 357 658 357 658 336.5 645 c 128,-1,39
 316 632 316 632 297 578.5 c 128,-1,40
 278 525 278 525 190 286 c 2,41,-1
 103 49 l 1,42,-1
 166 49 l 1,43,44
 228 48 228 48 241 97 c 0,21,22
311 265 m 0,45,46
 307 271 307 271 307 284 c 0,47,48
 307 305 307 305 318 343 c 0,49,50
 335 404 335 404 362.5 458 c 128,-1,51
 390 512 390 512 407 512 c 0,52,53
 421 512 421 512 438 485 c 128,-1,54
 455 458 455 458 467 414.5 c 128,-1,55
 479 371 479 371 485 342 c 0,56,57
 491 311 491 311 491 290 c 0,58,59
 491 270 491 270 481 261 c 0,60,61
 461 244 461 244 417 244 c 128,-1,62
 373 244 373 244 344.5 250 c 128,-1,63
 316 256 316 256 311 265 c 0,45,46
396 293 m 1,64,65
 418 293 418 293 418 355 c 0,66,67
 418 389 418 389 409 390 c 0,68,69
 404 390 404 390 395 365 c 0,70,71
 383 333 383 333 383 315 c 0,72,73
 383 296 383 296 396 293 c 1,64,65
EndSplineSet
Validated: 33
EndChar

StartChar: B
Encoding: 66 66 55
Width: 691
VWidth: 25011
Flags: W
HStem: 0 53<154.606 500.423> 0 43<78.5615 224.462> 512 73<277.911 378.491> 658 49<78.5615 478.78>
VStem: 30 49<42.7715 657.887> 224 49<199.961 262.996 440.186 502.75> 396 59<210.615 252.342>
LayerCount: 2
Fore
SplineSet
30 0 m 5,0,1
 30 707 l 1,2,-1
 281 707 l 2,3,4
 375 707 375 707 419.5 705.5 c 128,-1,5
 464 704 464 704 499.5 697.5 c 128,-1,6
 535 691 535 691 550 681 c 0,7,8
 624 631 624 631 636 519 c 0,9,10
 638 500 638 500 638 484 c 0,11,12
 638 426 638 426 612 399 c 0,13,14
 602 389 602 389 602 377 c 0,15,16
 602 360 602 360 624 342 c 0,17,18
 641 328 641 328 651 291 c 128,-1,19
 661 254 661 254 661 198.5 c 128,-1,20
 661 143 661 143 648.5 112 c 128,-1,21
 636 81 636 81 596 49.5 c 128,-1,22
 556 18 556 18 500.5 9 c 128,-1,23
 445 0 445 0 282 0 c 2,24,-1
 30 0 l 5,0,1
568 120 m 4,25,26
 610 172 610 172 610 209 c 0,27,28
 610 212 610 212 610 214 c 0,29,30
 607 252 607 252 552 302 c 0,31,32
 495 355 495 355 495 376 c 0,33,34
 495 391 495 391 508 405 c 0,35,36
 522 421 522 421 540 439 c 0,37,38
 585 484 585 484 585 512 c 0,39,40
 585 541 585 541 529 598 c 0,41,42
 501 626 501 626 475.5 638 c 128,-1,43
 450 650 450 650 408.5 654 c 128,-1,44
 367 658 367 658 274 658 c 2,45,-1
 79 658 l 1,46,-1
 79 43 l 1,47,-1
 301 53 l 2,48,49
 404 58 404 58 450.5 64.5 c 128,-1,50
 497 71 497 71 522 82.5 c 128,-1,51
 547 94 547 94 568 120 c 4,25,26
224 144 m 5,52,-1
 224 319 l 1,53,-1
 340 312 l 2,54,55
 424 307 424 307 439 296 c 0,56,57
 444 292 444 292 449 282 c 128,-1,58
 454 272 454 272 454.5 261.5 c 128,-1,59
 455 251 455 251 455 231.5 c 128,-1,60
 455 212 455 212 454.5 201.5 c 128,-1,61
 454 191 454 191 449 181 c 128,-1,62
 444 171 444 171 439 167.5 c 128,-1,63
 434 164 434 164 418 160 c 0,64,65
 399 155 399 155 340 151 c 2,66,-1
 224 144 l 5,52,-1
396 231.5 m 132,-1,68
 396 238 396 238 387 245 c 0,69,70
 369 259 369 259 336 263 c 0,71,72
 324 265 324 265 313 265 c 0,73,74
 296 265 296 265 287 260 c 0,75,76
 273 253 273 253 273 231.5 c 128,-1,77
 273 210 273 210 287 203 c 0,78,79
 297 198 297 198 313 197 c 0,80,81
 319 197 319 197 326 198 c 0,82,83
 351 201 351 201 365 206.5 c 128,-1,84
 379 212 379 212 387.5 218.5 c 128,-1,67
 396 225 396 225 396 231.5 c 132,-1,68
224 486 m 6,85,86
 224 558 224 558 235 571 c 0,87,88
 239 575 239 575 249 580 c 0,89,90
 261 585 261 585 300 584 c 0,91,92
 302 584 302 584 303 585 c 0,93,94
 385 585 385 585 416 559 c 0,95,96
 440 539 440 539 440 495 c 0,97,98
 440 485 440 485 439 472 c 0,99,100
 436 446 436 446 432 433.5 c 128,-1,101
 428 421 428 421 415 412 c 128,-1,102
 402 403 402 403 383.5 400 c 128,-1,103
 365 397 365 397 327 395 c 2,104,-1
 224 387 l 1,105,-1
 224 486 l 6,85,86
356 453 m 4,106,107
 383 463 383 463 383 479 c 0,108,109
 383 483 383 483 380 487 c 0,110,111
 367 511 367 511 320 512 c 0,112,113
 301 512 301 512 287 501 c 128,-1,114
 273 490 273 490 273 475 c 0,115,116
 273 446 273 446 292 441 c 0,117,118
 296 440 296 440 301 440 c 0,119,120
 321 439 321 439 356 453 c 4,106,107
EndSplineSet
Validated: 33
EndChar

StartChar: C
Encoding: 67 67 56
Width: 734
VWidth: 22135
Flags: W
VStem: 30 655<432.568 604.758>
LayerCount: 2
Fore
SplineSet
180 40 m 0,0,1
 30 124 30 124 30 356 c 0,2,3
 30 481 30 481 66 559 c 0,4,5
 102 638 102 638 176.5 676 c 128,-1,6
 251 714 251 714 382 714 c 128,-1,7
 513 714 513 714 599 655 c 128,-1,8
 685 596 685 596 685 499 c 0,9,10
 685 475 685 475 654.5 456.5 c 128,-1,11
 624 438 624 438 585 431 c 0,12,13
 565 427 565 427 544 428 c 0,14,15
 525 428 525 428 506 431 c 0,16,17
 467 437 467 437 448.5 462.5 c 128,-1,18
 430 488 430 488 396 492 c 0,19,20
 390 493 390 493 385 492 c 0,21,22
 357 492 357 492 331 475 c 0,23,24
 300 454 300 454 287 416 c 0,25,26
 275 382 275 382 275 352 c 0,27,28
 275 309 275 309 299 273 c 0,29,30
 329 229 329 229 368 229 c 0,31,32
 372 229 372 229 377 229 c 0,33,34
 421 234 421 234 447.5 272 c 128,-1,35
 474 310 474 310 499 316 c 0,36,37
 510 319 510 319 525 319 c 0,38,39
 544 319 544 319 569 315 c 0,40,41
 615 307 615 307 640 299 c 0,42,43
 694 281 694 281 701 263 c 0,44,45
 705 254 705 254 705 242 c 0,46,47
 705 206 705 206 669 149 c 0,48,49
 622 74 622 74 561 42 c 128,-1,50
 500 10 500 10 369 9 c 0,51,52
 364 9 364 9 359 9 c 0,53,54
 236 9 236 9 180 40 c 0,0,1
486 82 m 0,55,56
 529 97 529 97 570 134 c 0,57,58
 609 170 609 170 625 214 c 0,59,60
 628 223 628 223 622 228 c 0,61,62
 611 238 611 238 586.5 247 c 128,-1,63
 562 256 562 256 548 257 c 0,64,65
 547 257 547 257 546 257 c 0,66,67
 521 257 521 257 505 229 c 0,68,69
 469 164 469 164 397 154 c 0,70,71
 384 152 384 152 371 152 c 0,72,73
 314 152 314 152 268 194 c 0,74,75
 240 220 240 220 228 287 c 0,76,77
 222 323 222 323 222 360 c 0,78,79
 222 391 222 391 227 423 c 0,80,81
 237 492 237 492 264 523 c 0,82,83
 301 564 301 564 367 566 c 0,84,85
 370 566 370 566 372 566 c 0,86,87
 434 566 434 566 485 530 c 0,88,89
 526 501 526 501 557 502 c 0,90,91
 567 502 567 502 575 504 c 0,92,93
 602 512 602 512 602 534 c 0,94,95
 602 542 602 542 598 552 c 0,96,97
 592 567 592 567 563.5 589.5 c 128,-1,98
 535 612 535 612 493 631.5 c 128,-1,99
 451 651 451 651 398 656 c 0,100,101
 385 657 385 657 373 657 c 0,102,103
 333 657 333 657 295 646 c 0,104,105
 246 632 246 632 203.5 604.5 c 128,-1,106
 161 577 161 577 131 534.5 c 128,-1,107
 101 492 101 492 89 436 c 0,108,109
 81 401 81 401 81 365 c 0,110,111
 81 344 81 344 84 323 c 0,112,113
 91 265 91 265 115.5 219 c 128,-1,114
 140 173 140 173 178 136.5 c 128,-1,115
 216 100 216 100 265 83 c 0,116,117
 322 62 322 62 378 62 c 0,118,119
 433 62 433 62 486 82 c 0,55,56
EndSplineSet
Validated: 33
EndChar

StartChar: D
Encoding: 68 68 57
Width: 702
VWidth: 25265
Flags: W
HStem: 0 53<78.5615 232.523> 8 45<78.5615 412.618> 545 20G<224.245 366.143> 660 51<78.5615 438.559>
VStem: 30 49<53.2998 662.455> 224 243<193.958 512.477> 224 49<207.182 507.007>
LayerCount: 2
Fore
SplineSet
30 0 m 1,0,1
 30 711 l 1,2,-1
 260 711 l 2,3,4
 456 711 456 711 492 695 c 0,5,6
 528 678 528 678 566 643 c 0,7,8
 632 584 632 584 659 475 c 0,9,10
 674 415 674 415 673 355 c 0,11,12
 673 306 673 306 664 255 c 0,13,14
 642 144 642 144 578 81 c 0,15,16
 546 49 546 49 518.5 36.5 c 128,-1,17
 491 24 491 24 441.5 18.5 c 128,-1,18
 392 13 392 13 272 8 c 2,19,-1
 30 0 l 1,0,1
603 431 m 0,20,21
 589 504 589 504 546.5 561.5 c 128,-1,22
 504 619 504 619 441.5 638.5 c 128,-1,23
 379 658 379 658 230 660 c 2,24,-1
 79 662 l 1,25,-1
 79 53 l 1,26,-1
 225 53 l 2,27,28
 285 53 285 53 352.5 63.5 c 128,-1,29
 420 74 420 74 454 88 c 0,30,31
 512 112 512 112 551.5 168 c 128,-1,32
 591 224 591 224 604 291 c 0,33,34
 610 323 610 323 610 357 c 0,35,36
 610 393 610 393 603 431 c 0,20,21
224 151 m 1,37,-1
 224 565 l 1,38,-1
 307 565 l 2,39,40
 395 565 395 565 431 520.5 c 128,-1,41
 467 476 467 476 467 377 c 128,-1,42
 467 278 467 278 454.5 233 c 128,-1,43
 442 188 442 188 411.5 169.5 c 128,-1,44
 381 151 381 151 321 151 c 2,45,-1
 224 151 l 1,37,-1
389 236 m 128,-1,47
 396 242 396 242 407 310 c 0,48,49
 413 350 413 350 414 376 c 0,50,51
 414 395 414 395 410 406 c 0,52,53
 402 434 402 434 371.5 465.5 c 128,-1,54
 341 497 341 497 322 507 c 0,55,56
 314 512 314 512 307 512 c 0,57,58
 299 512 299 512 292 505 c 0,59,60
 280 492 280 492 276.5 457.5 c 128,-1,61
 273 423 273 423 273 331.5 c 128,-1,62
 273 240 273 240 280 221 c 0,63,64
 284 210 284 210 302 209 c 0,65,66
 315 209 315 209 335 215 c 0,67,46
 382 230 382 230 389 236 c 128,-1,47
EndSplineSet
Validated: 33
EndChar

StartChar: E
Encoding: 69 69 58
Width: 663
VWidth: 25117
Flags: W
HStem: 0 49<130.143 556.884> 146 49<297.896 579.224> 273 68<307.292 531.95> 280 183<450.643 597.537> 414 49<294.358 531.92> 512 68<296.684 546.911> 658 37<99.3115 233.804> 688 20G<534.341 633.487>
VStem: 32 68<146.837 657.888> 245 49<206.34 255.459> 561 73<597.358 645.517> 585 49<60.3291 136.34>
LayerCount: 2
Fore
SplineSet
37 32.5 m 132,-1,1
 32 45 32 45 31 147 c 0,2,3
 30 183 30 183 30 223 c 0,4,5
 30 295 30 295 32 379 c 2,6,-1
 39 695 l 1,7,8
 336 702 336 702 634 708 c 1,9,-1
 634 512 l 1,10,-1
 464 512 l 2,11,12
 391 512 391 512 342.5 505 c 128,-1,13
 294 498 294 498 294 487 c 0,14,15
 294 473 294 473 372 466 c 0,16,17
 409 463 409 463 453 463 c 2,18,-1
 612 463 l 1,19,20
 604 372 604 372 597 280 c 1,21,-1
 445 273 l 2,22,23
 360 269 360 269 327 259.5 c 128,-1,24
 294 250 294 250 294 230 c 128,-1,25
 294 210 294 210 329 202.5 c 128,-1,26
 364 195 364 195 464 195 c 2,27,-1
 634 195 l 1,28,-1
 634 0 l 1,29,-1
 341 0 l 2,30,31
 130 0 130 0 86 10 c 128,-1,0
 42 20 42 20 37 32.5 c 132,-1,1
585 97 m 4,32,33
 585 118 585 118 580 124.5 c 128,-1,34
 575 131 575 131 569.5 134 c 128,-1,35
 564 137 564 137 558 138.5 c 128,-1,36
 552 140 552 140 541.5 141.5 c 128,-1,37
 531 143 531 143 520 144 c 128,-1,38
 509 145 509 145 492 145 c 0,39,40
 466 146 466 146 415 146 c 2,41,-1
 245 146 l 1,42,-1
 245 341 l 1,43,-1
 391 341 l 2,44,45
 499 341 499 341 523 355 c 0,46,47
 536 363 536 363 536 378 c 0,48,49
 536 399 536 399 505.5 406.5 c 128,-1,50
 475 414 475 414 389 414 c 2,51,-1
 242 414 l 1,52,-1
 250 493 l 2,53,54
 252 517 252 517 252.5 527 c 128,-1,55
 253 537 253 537 261 549 c 128,-1,56
 269 561 269 561 274.5 564 c 128,-1,57
 280 567 280 567 303 571.5 c 128,-1,58
 326 576 326 576 344.5 577 c 128,-1,59
 363 578 363 578 428.5 581 c 128,-1,60
 494 584 494 584 527.5 593.5 c 128,-1,61
 561 603 561 603 561 623.5 c 128,-1,62
 561 644 561 644 515 651 c 128,-1,63
 469 658 469 658 330 658 c 2,64,-1
 100 658 l 1,65,-1
 100 49 l 1,66,-1
 342 49 l 2,67,68
 512 49 512 49 548.5 56 c 128,-1,69
 585 63 585 63 585 97 c 4,32,33
EndSplineSet
Validated: 1
EndChar

StartChar: F
Encoding: 70 70 59
Width: 594
VWidth: 25245
Flags: W
HStem: 0 49<78.5596 216.481> 268 49<272.822 459.335> 390 168<224.238 357.448> 390 73<273.45 462.069> 512 195<337.568 418.501 511.104 564.18> 658 49<78.5596 509.38>
VStem: 30 49<48.7305 657.886> 224 49<54.4918 268.018 473.73 499.994>
LayerCount: 2
Fore
SplineSet
30 0 m 5,0,1
 30 707 l 1,2,3
 564 707 l 1,4,5
 564 512 l 1,6,-1
 419 512 l 2,7,8
 335 512 335 512 304 503 c 128,-1,9
 273 494 273 494 273 487 c 0,10,11
 273 477 273 477 308.5 470 c 128,-1,12
 344 463 344 463 397.5 463 c 128,-1,13
 451 463 451 463 475.5 459 c 128,-1,14
 500 455 500 455 511.5 443 c 128,-1,15
 523 431 523 431 531 397 c 0,16,17
 539 360 539 360 539 335 c 0,18,19
 539 310 539 310 523 295 c 0,20,21
 493 268 493 268 395 268 c 2,22,-1
 273 268 l 1,23,-1
 273 0 l 1,24,-1
 30 0 l 5,0,1
224 183 m 6,25,-1
 224 317 l 1,26,-1
 346 317 l 2,27,28
 415 317 415 317 441 325 c 128,-1,29
 467 333 467 333 467 353 c 0,30,31
 467 380 467 380 418 386 c 0,32,33
 392 389 392 389 346 390 c 2,34,-1
 224 390 l 1,35,-1
 224 558 l 1,36,-1
 364 565 l 2,37,38
 469 570 469 570 494 588 c 0,39,40
 508 598 508 598 511 615 c 0,41,42
 512 619 512 619 512 622 c 0,43,44
 512 644 512 644 481 651 c 0,45,46
 446 658 446 658 299 658 c 2,47,-1
 79 658 l 1,48,-1
 79 49 l 1,49,-1
 151 49 l 2,50,51
 205 49 205 49 214.5 66.5 c 128,-1,52
 224 84 224 84 224 183 c 6,25,-1
EndSplineSet
Validated: 1
EndChar

StartChar: G
Encoding: 71 71 60
Width: 771
VWidth: 25163
Flags: W
HStem: 363 50<430.788 482.96 650.588 671.34>
VStem: 30 68<189.655 463.92> 377 49<301.217 352.2>
LayerCount: 2
Fore
SplineSet
30 340 m 0,0,1
 33 509 33 509 129 594.5 c 128,-1,2
 225 680 225 680 413 680 c 0,3,4
 558 680 558 680 637 632 c 0,5,6
 717 583 717 583 717 491 c 0,7,8
 717 461 717 461 701 448 c 0,9,10
 685 435 685 435 636 429 c 128,-1,11
 587 423 587 423 583 422 c 0,12,13
 580 421 580 421 588 419 c 0,14,15
 598 418 598 418 651 416 c 2,16,-1
 742 412 l 1,17,-1
 742 69 l 1,18,-1
 638 22 l 2,19,20
 533 -26 533 -26 391 -26 c 0,21,22
 389 -26 389 -26 388 -26 c 0,23,24
 244 -25 244 -25 168 23 c 0,25,26
 30 111 30 111 30 330 c 0,27,28
 30 335 30 335 30 340 c 0,0,1
664 236 m 2,29,-1
 671 363 l 1,30,-1
 549 363 l 2,31,32
 481 363 481 363 453.5 355.5 c 128,-1,33
 426 348 426 348 426 328 c 0,34,35
 426 313 426 313 445 301 c 128,-1,36
 464 289 464 289 498 285 c 128,-1,37
 532 281 532 281 553 258 c 0,38,39
 570 239 570 239 570 216 c 0,40,41
 570 211 570 211 569 205 c 0,42,43
 564 175 564 175 533 152 c 0,44,45
 491 121 491 121 415 121 c 0,46,47
 409 121 409 121 402 121 c 0,48,49
 316 124 316 124 276 160 c 0,50,51
 255 179 255 179 243 225 c 128,-1,52
 231 271 231 271 230 321 c 0,53,54
 230 324 230 324 230 326 c 0,55,56
 230 373 230 373 240 419 c 0,57,58
 251 467 251 467 272 489 c 0,59,60
 306 527 306 527 387 533 c 0,61,62
 398 534 398 534 410 534 c 0,63,64
 476 534 476 534 520 506 c 0,65,66
 539 494 539 494 565 491 c 0,67,68
 573 490 573 490 580 490 c 0,69,70
 597 490 597 490 610 495 c 0,71,72
 630 503 630 503 635.5 508.5 c 128,-1,73
 641 514 641 514 636 523.5 c 128,-1,74
 631 533 631 533 609 557 c 0,75,76
 563 608 563 608 477 621 c 0,77,78
 450 625 450 625 422 625 c 0,79,80
 363 625 363 625 302 606 c 0,81,82
 212 578 212 578 156 519 c 0,83,84
 121 482 121 482 109.5 443.5 c 128,-1,85
 98 405 98 405 98 324.5 c 128,-1,86
 98 244 98 244 111 206.5 c 128,-1,87
 124 169 124 169 160.5 130.5 c 128,-1,88
 197 92 197 92 233 67.5 c 128,-1,89
 269 43 269 43 290 38 c 0,90,91
 316 32 316 32 351 32 c 0,92,93
 390 32 390 32 442 39 c 0,94,95
 540 52 540 52 587.5 74.5 c 128,-1,96
 635 97 635 97 647 125.5 c 128,-1,97
 659 154 659 154 664 236 c 2,29,-1
475 193 m 0,98,99
 491 203 491 203 490 209 c 0,100,101
 490 213 490 213 481 215 c 1,102,-1
 444 217 l 1,103,104
 410 217 410 217 398 223 c 128,-1,105
 386 229 386 229 383 241.5 c 128,-1,106
 380 254 380 254 378.5 269.5 c 128,-1,107
 377 285 377 285 377 314.5 c 128,-1,108
 377 344 377 344 378.5 359.5 c 128,-1,109
 380 375 380 375 383 387.5 c 128,-1,110
 386 400 386 400 394 404 c 0,111,112
 410 412 410 412 436 412.5 c 128,-1,113
 462 413 462 413 471 413.5 c 128,-1,114
 480 414 480 414 487 415.5 c 128,-1,115
 494 417 494 417 495 418.5 c 128,-1,116
 496 420 496 420 493 425 c 0,117,118
 489 431 489 431 460 452.5 c 128,-1,119
 431 474 431 474 413 480 c 0,120,121
 406 482 406 482 399 482 c 0,122,123
 388 482 388 482 377 476 c 0,124,125
 359 467 359 467 327 434.5 c 128,-1,126
 295 402 295 402 285 357 c 0,127,128
 281 338 281 338 282 321 c 0,129,130
 282 296 282 296 290 274 c 0,131,132
 304 236 304 236 330.5 206 c 128,-1,133
 357 176 357 176 396 173 c 0,134,135
 401 173 401 173 405 172 c 0,136,137
 440 173 440 173 475 193 c 0,98,99
EndSplineSet
Validated: 33
EndChar

StartChar: H
Encoding: 72 72 61
Width: 715
VWidth: 25128
Flags: W
HStem: 0 49<78.5596 216.481 499.088 637.007> 268 49<272.798 442.769> 426 61<279.315 436.252> 658 49<78.5596 215.136 500.453 637.007>
VStem: 30 49<48.7305 657.886> 224 49<54.4928 268.042> 443 49<54.4928 268.042> 637 49<48.7305 657.886>
LayerCount: 2
Fore
SplineSet
30 0 m 1,0,1
 30 707 l 1,2,3
 273 707 l 1,4,-1
 273 597 l 2,5,6
 273 515 273 515 283.5 501 c 128,-1,7
 294 487 294 487 357.5 487 c 128,-1,8
 421 487 421 487 432 501 c 128,-1,9
 443 515 443 515 443 597 c 2,10,-1
 443 707 l 1,11,-1
 686 707 l 1,12,13
 686 0 l 1,14,15
 443 0 l 1,16,17
 443 268 l 1,18,19
 273 268 l 1,20,21
 273 0 l 1,22,23
 30 0 l 1,0,1
224 183 m 2,24,-1
 224 317 l 1,25,26
 491 317 l 1,27,-1
 491 183 l 2,28,29
 491 83 491 83 500.5 66 c 128,-1,30
 510 49 510 49 564 49 c 2,31,-1
 637 49 l 1,32,-1
 637 658 l 1,33,-1
 565 658 l 2,34,35
 513 658 513 658 503 642 c 0,36,37
 493 628 493 628 491 600.5 c 128,-1,38
 489 573 489 573 487 542 c 2,39,-1
 479 426 l 1,40,-1
 236 426 l 1,41,-1
 229 542 l 2,42,43
 225 606 225 606 221 620 c 128,-1,44
 217 634 217 634 212.5 641 c 128,-1,45
 208 648 208 648 203.5 650.5 c 128,-1,46
 199 653 199 653 190 655 c 0,47,48
 179 658 179 658 150 658 c 2,49,-1
 79 658 l 1,50,-1
 79 49 l 1,51,-1
 151 49 l 2,52,53
 205 49 205 49 214.5 66 c 128,-1,54
 224 83 224 83 224 183 c 2,24,-1
EndSplineSet
Validated: 1
EndChar

StartChar: I
Encoding: 73 73 62
Width: 314
VWidth: 25163
Flags: W
HStem: 0 21G<30 72.4863> 0 21G<30 72.4863> 692 20G<30 72.4922>
VStem: 30 49<51.2695 660.425> 224 61<51.2695 660.425>
LayerCount: 2
Fore
SplineSet
30 0 m 1,0,1
 30 712 l 1,2,3
 157 705 157 705 285 697 c 1,4,5
 285 15 l 1,6,7
 157 7 157 7 30 0 c 1,0,1
224 51 m 1,8,9
 224 660 l 1,10,11
 79 660 l 1,12,13
 79 51 l 1,14,15
 224 51 l 1,8,9
EndSplineSet
Validated: 1
EndChar

StartChar: J
Encoding: 74 74 63
Width: 617
VWidth: 25000
Flags: W
HStem: 625 49<393.591 539.294>
VStem: 345 49<271.67 625.129> 539 49<236.341 625.129>
LayerCount: 2
Fore
SplineSet
56 72 m 0,0,1
 30 116 30 116 30 177 c 0,2,3
 30 231 30 231 45 244 c 0,4,5
 60 258 60 258 120 268 c 0,6,7
 170 276 170 276 201 277 c 0,8,9
 207 277 207 277 213 276 c 0,10,11
 245 274 245 274 258.5 261.5 c 128,-1,12
 272 249 272 249 272 217 c 0,13,14
 272 187 272 187 290 187 c 0,15,16
 291 187 l 0,17,18
 315 189 315 189 330 241 c 0,19,20
 336 264 336 264 340 335.5 c 128,-1,21
 344 407 344 407 345 485 c 2,22,-1
 345 674 l 1,23,-1
 588 674 l 1,24,-1
 588 392 l 2,25,26
 588 261 588 261 585 194.5 c 128,-1,27
 582 128 582 128 572 110.5 c 128,-1,28
 562 93 562 93 552 78 c 128,-1,29
 542 63 542 63 506.5 28 c 128,-1,30
 471 -7 471 -7 435 -20 c 0,31,32
 400 -32 400 -32 335 -32 c 0,33,34
 333 -32 333 -32 331 -32 c 0,35,36
 263 -32 263 -32 211 -23.5 c 128,-1,37
 159 -15 159 -15 139 -3 c 0,38,39
 82 29 82 29 56 72 c 0,0,1
345 24 m 0,40,41
 378 32 378 32 414.5 51 c 128,-1,42
 451 70 451 70 473.5 99.5 c 128,-1,43
 496 129 496 129 511 177 c 0,44,45
 539 268 539 268 539 448 c 2,46,-1
 539 625 l 1,47,-1
 394 625 l 1,48,-1
 394 399 l 2,49,50
 394 172 394 172 362 141 c 0,51,52
 336 115 336 115 302 114 c 0,53,54
 295 114 295 114 288 115 c 0,55,56
 245 121 245 121 224.5 160 c 128,-1,57
 204 199 204 199 157 209 c 0,58,59
 145 212 145 212 135 212 c 0,60,61
 106 212 106 212 93 191 c 0,62,63
 90 185 90 185 89 177 c 0,64,65
 89 154 89 154 121 113 c 0,66,67
 163 58 163 58 205 41 c 128,-1,68
 247 24 247 24 280 20 c 0,69,70
 291 19 291 19 302 19 c 0,71,72
 323 19 323 19 345 24 c 0,40,41
EndSplineSet
Validated: 1
EndChar

StartChar: greater
Encoding: 62 62 64
Width: 606
VWidth: 22134
Flags: W
VStem: 30 49<99.113 147.866 458.256 507.539> 515 61<263.463 343.925>
LayerCount: 2
Fore
SplineSet
30 106 m 0,0,1
 30 185 30 185 46 204.5 c 128,-1,2
 62 224 62 224 153 259 c 2,3,-1
 275 305 l 1,4,-1
 153 350 l 2,5,6
 61 383 61 383 45.5 402 c 128,-1,7
 30 421 30 421 30 501 c 0,8,9
 30 607 30 607 60 607 c 0,10,11
 60 607 l 0,12,13
 73 607 73 607 153 576 c 128,-1,14
 233 545 233 545 334 501 c 2,15,-1
 576 396 l 1,16,-1
 576 211 l 1,17,-1
 334 106 l 2,18,19
 174 37 174 37 120 19 c 0,20,21
 66 0 66 0 60 -0 c 0,22,23
 30 0 30 0 30 106 c 0,0,1
496 266 m 0,24,25
 516 285 516 285 516 303 c 0,26,27
 516 332 516 332 470 361 c 0,28,29
 425 389 425 389 324.5 430.5 c 128,-1,30
 224 472 224 472 184 487 c 128,-1,31
 144 502 144 502 119 507 c 0,32,33
 105 510 105 510 96 511 c 0,34,35
 89 511 89 511 86 509 c 0,36,37
 79 505 79 505 79 491 c 0,38,39
 79 450 79 450 224 393 c 0,40,41
 320 356 320 356 358 321 c 0,42,43
 370 310 370 310 370 304 c 0,44,45
 370 291 370 291 327 264.5 c 128,-1,46
 284 238 284 238 224 214 c 0,47,48
 78.9931972789 157.387755102 78.9931972789 157.387755102 78.9931972789 117.545004396 c 0,49,50
 78.9931972789 117.272108844 78.9931972789 117.272108844 79 117 c 0,51,52
 79 103 79 103 86 98 c 0,53,54
 89 96 89 96 96 96 c 0,55,56
 105 96 105 96 119 99 c 0,57,58
 159 108 159 108 272.5 155 c 128,-1,59
 386 202 386 202 431.5 225 c 128,-1,60
 477 248 477 248 496 266 c 0,24,25
EndSplineSet
Validated: 524289
EndChar

StartChar: zero
Encoding: 48 48 65
Width: 625
VWidth: 23375
Flags: W
LayerCount: 2
Fore
SplineSet
123 64 m 0,0,1
 55 132 55 132 36 267 c 0,2,3
 30 308 30 308 30 350 c 0,4,5
 30 445 30 445 58 527.5 c 128,-1,6
 86 610 86 610 138 651 c 0,7,8
 206 704 206 704 325 704 c 0,9,10
 385 704 385 704 439 688.5 c 128,-1,11
 493 673 493 673 528.5 642.5 c 128,-1,12
 564 612 564 612 576 587.5 c 128,-1,13
 588 563 588 563 592 518 c 128,-1,14
 596 473 596 473 596 348 c 128,-1,15
 596 223 596 223 592 178 c 128,-1,16
 588 133 588 133 576 108.5 c 128,-1,17
 564 84 564 84 525.5 51 c 128,-1,18
 487 18 487 18 446 6.5 c 128,-1,19
 405 -5 405 -5 322 -5 c 128,-1,20
 239 -5 239 -5 202.5 7.5 c 128,-1,21
 166 20 166 20 123 64 c 0,0,1
212 78 m 128,-1,23
 260 47 260 47 315 47 c 128,-1,24
 370 47 370 47 427.5 69 c 128,-1,25
 485 91 485 91 521 170.5 c 128,-1,26
 557 250 557 250 557 340.5 c 128,-1,27
 557 431 557 431 533 500 c 128,-1,28
 509 569 509 569 448.5 607 c 128,-1,29
 388 645 388 645 316 645 c 0,30,31
 218 645 218 645 157 578 c 0,32,33
 130 548 130 548 115 483.5 c 128,-1,34
 100 419 100 419 100 346 c 0,35,36
 100 232 100 232 132 170.5 c 128,-1,22
 164 109 164 109 212 78 c 128,-1,23
249 146 m 0,37,38
 235 160 235 160 227.5 217.5 c 128,-1,39
 220 275 220 275 220 348 c 128,-1,40
 220 421 220 421 227.5 478.5 c 128,-1,41
 235 536 235 536 246.5 547.5 c 128,-1,42
 258 559 258 559 270 566 c 0,43,44
 294 579 294 579 323 578.5 c 128,-1,45
 352 578 352 578 376.5 566 c 128,-1,46
 401 554 401 554 412 533.5 c 128,-1,47
 423 513 423 513 430.5 459 c 128,-1,48
 438 405 438 405 438 348 c 128,-1,49
 438 291 438 291 430.5 237 c 128,-1,50
 423 183 423 183 412 162.5 c 128,-1,51
 401 142 401 142 376.5 130 c 128,-1,52
 352 118 352 118 323 118 c 0,53,54
 277 118 277 118 249 146 c 0,37,38
352 211 m 0,55,56
 380 250 380 250 380.5 326 c 128,-1,57
 381 402 381 402 369 455 c 0,58,59
 354 523 354 523 329 523 c 0,60,61
 313 523 313 523 298 494 c 0,62,63
 268 432 268 432 268 329 c 0,64,65
 268 267 268 267 282.5 228.5 c 128,-1,66
 297 190 297 190 321 190 c 0,67,68
 337 191 337 191 352 211 c 0,55,56
EndSplineSet
Validated: 33
EndChar

StartChar: one
Encoding: 49 49 66
Width: 484
VWidth: 25074
Flags: W
HStem: 0 21G<224.238 262.682> 0 21G<224.238 262.682>
VStem: 30 49<424.066 481.408> 224 49<57.3028 380.177> 394 61<51.3916 581.86>
LayerCount: 2
Fore
SplineSet
455 15 m 1,0,-1
 224 0 l 1,1,-1
 224 199 l 2,2,3
 224 356 224 356 213 376 c 0,4,5
 209 384 209 384 199 384 c 0,6,7
 192 384 192 384 182 380 c 0,8,9
 140 362 140 362 93 352 c 0,10,11
 74 348 74 348 61 348 c 0,12,13
 43 348 43 348 39 356 c 0,14,15
 30 370 30 370 30 432.5 c 128,-1,16
 30 495 30 495 40 518.5 c 128,-1,17
 50 542 50 542 74 549.5 c 128,-1,18
 98 557 98 557 133.5 583 c 128,-1,19
 169 609 169 609 206.5 646.5 c 128,-1,20
 244 684 244 684 276 697 c 0,21,22
 299 706 299 706 335 706 c 0,23,24
 348 706 348 706 363 705 c 2,25,-1
 455 697 l 1,26,-1
 455 15 l 1,0,-1
394 356 m 2,27,28
 394 595 394 595 383 633 c 0,29,30
 375 660 375 660 348 661 c 0,31,32
 322 661 322 661 290 632 c 0,33,34
 275 619 275 619 266.5 605.5 c 128,-1,35
 258 592 258 592 245 579 c 128,-1,36
 232 566 232 566 217 554 c 0,37,38
 184 528 184 528 153 515 c 128,-1,39
 122 502 122 502 100.5 482.5 c 128,-1,40
 79 463 79 463 79 448 c 0,41,42
 79 424 79 424 98 424 c 0,43,44
 107 424 107 424 121 430 c 0,45,46
 183 456 183 456 205 461 c 0,47,48
 218 464 218 464 228 464 c 0,49,50
 234 464 234 464 238 463 c 0,51,52
 249 459 249 459 253 455 c 128,-1,53
 257 451 257 451 262 436.5 c 128,-1,54
 267 422 267 422 268 410 c 128,-1,55
 269 398 269 398 271 371.5 c 128,-1,56
 273 345 273 345 273 225.5 c 128,-1,57
 273 106 273 106 280.5 78.5 c 128,-1,58
 288 51 288 51 333 51 c 2,59,-1
 394 51 l 1,60,-1
 394 356 l 2,27,28
EndSplineSet
Validated: 1
EndChar

StartChar: two
Encoding: 50 50 67
Width: 642
VWidth: 24998
Flags: W
HStem: 0 195<385.679 612.739> 0 49<118.895 547.748> 146 49<387.94 559.161>
VStem: 30 73<26.8921 114.754> 564 49<60.4481 137.277>
LayerCount: 2
Fore
SplineSet
382 195 m 1,0,-1
 613 195 l 1,1,-1
 613 0 l 1,2,-1
 321 0 l 2,3,4
 95 0 95 0 64 8.5 c 128,-1,5
 33 17 33 17 30 39 c 1,6,-1
 30 52 l 1,7,8
 30 113 30 113 90.5 197 c 128,-1,9
 151 281 151 281 249 356 c 0,10,11
 369 448 369 448 369 490 c 0,12,13
 369 512 369 512 333 512 c 0,14,15
 312 512 312 512 298.5 498.5 c 128,-1,16
 285 485 285 485 282 475 c 0,17,18
 274 455 274 455 220 445 c 0,19,20
 182 438 182 438 143 437 c 0,21,22
 126 437 126 437 110 439 c 0,23,24
 54 444 54 444 43 462 c 0,25,26
 38 470 38 470 38 482 c 0,27,28
 38 513 38 513 67 575 c 0,29,30
 83 609 83 609 107.5 640.5 c 128,-1,31
 132 672 132 672 154.5 684 c 128,-1,32
 177 696 177 696 235 701 c 0,33,34
 264 704 264 704 299 704 c 0,35,36
 334 704 334 704 376 701 c 0,37,38
 459 696 459 696 512 673.5 c 128,-1,39
 565 651 565 651 589 608 c 0,40,41
 612 565 612 565 612 493 c 0,42,43
 612 417 612 417 573 357 c 0,44,45
 535 297 535 297 454 243 c 2,46,-1
 382 195 l 1,0,-1
564 98 m 0,47,48
 564 121 564 121 554.5 130 c 128,-1,49
 545 139 545 139 518.5 142.5 c 128,-1,50
 492 146 492 146 435.5 146 c 128,-1,51
 379 146 379 146 350 150.5 c 128,-1,52
 321 155 321 155 308 165 c 0,53,54
 300 171 300 171 300 180 c 0,55,56
 300 186 300 186 304 193 c 0,57,58
 321 228 321 228 412 305 c 128,-1,59
 503 382 503 382 531 439 c 0,60,61
 545 468 545 468 546 497 c 0,62,63
 546 525 546 525 533 555 c 0,64,65
 513 598 513 598 455 622 c 128,-1,66
 397 646 397 646 333 647 c 0,67,68
 331 647 331 647 328 647 c 0,69,70
 266 647 266 647 209 625 c 0,71,72
 149 602 149 602 127 561 c 0,73,74
 118 544 118 544 118 530 c 0,75,76
 118 511 118 511 137 501 c 0,77,78
 151 493 151 493 167 492 c 0,79,80
 187 492 187 492 209 505 c 0,81,82
 227 516 227 516 240 534 c 0,83,84
 271 579 271 579 328 583 c 0,85,86
 334 584 334 584 341 584 c 0,87,88
 390 584 390 584 418 549 c 0,89,90
 439 524 439 524 439 493 c 0,91,92
 439 415 439 415 300 303 c 0,93,94
 221 240 221 240 162 168 c 128,-1,95
 103 96 103 96 103 63 c 0,96,97
 103 57 103 57 170.5 53 c 128,-1,98
 238 49 238 49 366 49 c 128,-1,99
 494 49 494 49 529 56.5 c 128,-1,100
 564 64 564 64 564 98 c 0,47,48
EndSplineSet
Validated: 1
EndChar

StartChar: three
Encoding: 51 51 68
Width: 632
VWidth: 25245
Flags: W
LayerCount: 2
Fore
SplineSet
149 -4 m 0,0,1
 120 8 120 8 87 50 c 128,-1,2
 54 92 54 92 38 135 c 0,3,4
 30 157 30 157 30 171 c 0,5,6
 30 184 30 184 37 191 c 0,7,8
 45 199 45 199 77.5 208 c 128,-1,9
 110 217 110 217 157 224 c 0,10,11
 181 228 181 228 199 228 c 0,12,13
 215 228 215 228 226 225 c 0,14,15
 249 218 249 218 265 187.5 c 128,-1,16
 281 157 281 157 305 146 c 0,17,18
 316 141 316 141 325 141 c 0,19,20
 337 141 337 141 345 149 c 0,21,22
 357 160 357 160 357 183 c 0,23,24
 357 190 357 190 356 197 c 0,25,26
 348 252 348 252 294 260 c 0,27,28
 271 263 271 263 260 271 c 0,29,30
 239 286 239 286 239 348 c 0,31,32
 239 379 239 379 237 393 c 128,-1,33
 235 407 235 407 223.5 418.5 c 128,-1,34
 212 430 212 430 195.5 434 c 128,-1,35
 179 438 179 438 132.5 445.5 c 128,-1,36
 86 453 86 453 62 473 c 0,37,38
 44 489 44 489 44 513 c 0,39,40
 44 550 44 550 90 607 c 0,41,42
 118 641 118 641 157 654 c 128,-1,43
 196 667 196 667 293 673 c 0,44,45
 335 676 335 676 366 676 c 0,46,47
 406 676 406 676 429 672 c 0,48,49
 469 664 469 664 507.5 633.5 c 128,-1,50
 546 603 546 603 565 557 c 0,51,52
 582 517 582 517 582 477 c 0,53,54
 582 471 582 471 581 465 c 0,55,56
 578 420 578 420 553 394 c 0,57,58
 543 384 543 384 543 373 c 0,59,60
 543 356 543 356 566 338 c 0,61,62
 588 320 588 320 597 265 c 0,63,64
 602 233 602 233 602 200 c 0,65,66
 602 176 602 176 600 152 c 0,67,68
 593 94 593 94 576 73 c 0,69,70
 542 29 542 29 492.5 2 c 128,-1,71
 443 -25 443 -25 325 -26 c 0,72,73
 319 -26 319 -26 313 -26 c 0,74,75
 204 -26 204 -26 149 -4 c 0,0,1
552 218 m 0,76,77
 552 265 552 265 511 291 c 0,78,79
 468 318 468 318 459 361 c 0,80,81
 457 370 457 370 458 379 c 0,82,83
 458 408 458 408 480 421 c 0,84,85
 506 437 506 437 505 485 c 0,86,87
 505 490 505 490 505 496 c 0,88,89
 502 554 502 554 473 578 c 0,90,91
 429 615 429 615 353 620 c 0,92,93
 341 621 341 621 329 621 c 0,94,95
 265 621 265 621 205 595 c 0,96,97
 133 565 133 565 119 534 c 1,98,99
 119 511 119 511 155 508 c 0,100,101
 170 508 170 508 198 519 c 128,-1,102
 226 530 226 530 255 549 c 128,-1,103
 284 568 284 568 307 571 c 0,104,105
 310 571 310 571 313 571 c 0,106,107
 333 571 333 571 359 557 c 0,108,109
 407 531 407 531 407 487 c 0,110,111
 407 484 407 484 407 481 c 0,112,113
 404 432 404 432 348 396 c 0,114,115
 289 357 289 357 289 336 c 0,116,117
 289 328 289 328 298 322 c 0,118,119
 311 313 311 313 345 313 c 128,-1,120
 379 313 379 313 403 285 c 128,-1,121
 427 257 427 257 434 221 c 0,122,123
 436 208 436 208 437 195 c 0,124,125
 437 172 437 172 429 148 c 0,126,127
 417 111 417 111 386 94 c 0,128,129
 343 71 343 71 317 71 c 0,130,131
 312 71 312 71 308 72 c 0,132,133
 280 77 280 77 246.5 110.5 c 128,-1,134
 213 144 213 144 185 153 c 0,135,136
 172 157 172 157 160 157 c 0,137,138
 147 157 147 157 137 152 c 0,139,140
 118 142 118 142 118 121.5 c 128,-1,141
 118 101 118 101 143 83.5 c 128,-1,142
 168 66 168 66 205 53 c 0,143,144
 272 29 272 29 328 29 c 0,145,146
 345 29 345 29 360 32 c 0,147,148
 398 37 398 37 436.5 57.5 c 128,-1,149
 475 78 475 78 500 106 c 0,150,151
 552 167 552 167 552 218 c 0,76,77
314.5 456.5 m 128,-1,153
 327 469 327 469 331.5 482.5 c 128,-1,154
 336 496 336 496 330 502 c 128,-1,155
 324 508 324 508 310.5 503.5 c 128,-1,156
 297 499 297 499 284.5 486.5 c 128,-1,157
 272 474 272 474 267.5 460.5 c 128,-1,158
 263 447 263 447 269 441 c 128,-1,159
 275 435 275 435 288.5 439.5 c 128,-1,152
 302 444 302 444 314.5 456.5 c 128,-1,153
EndSplineSet
Validated: 33
EndChar

StartChar: four
Encoding: 52 52 69
Width: 667
VWidth: 24849
Flags: W
HStem: 16 166<350.775 394.468 495.859 558.289> 138 44<91.6186 339.261> 289 44<274.716 340.767> 674 49<408.905 480.546>
VStem: 30 48<198.368 290.458> 176 97<299.879 345.362> 491 73<71.9864 133.812 338.302 668.007> 588 49<192.733 263.003>
LayerCount: 2
Fore
SplineSet
188 138 m 2,0,-1
 30 138 l 1,1,-1
 30 242 l 2,2,3
 30 291 30 291 41.5 324 c 128,-1,4
 53 357 53 357 84.5 401 c 128,-1,5
 116 445 116 445 175.5 516 c 128,-1,6
 235 587 235 587 257 612 c 128,-1,7
 279 637 279 637 305.5 663 c 128,-1,8
 332 689 332 689 343.5 697.5 c 128,-1,9
 355 706 355 706 376.5 714 c 128,-1,10
 398 722 398 722 413 722.5 c 128,-1,11
 428 723 428 723 457 723 c 2,12,-1
 564 723 l 1,13,-1
 564 528 l 2,14,15
 564 410 564 410 571.5 371.5 c 128,-1,16
 579 333 579 333 599.5 333 c 128,-1,17
 620 333 620 333 628.5 310.5 c 128,-1,18
 637 288 637 288 637 244 c 128,-1,19
 637 200 637 200 633 179 c 0,20,21
 626 138 626 138 601 138 c 0,22,23
 584 138 584 138 574 122 c 128,-1,24
 564 106 564 106 564 82.5 c 128,-1,25
 564 59 564 59 562 49 c 128,-1,26
 560 39 560 39 555 31.5 c 128,-1,27
 550 24 550 24 536 21 c 0,28,29
 505 15 505 15 461 15 c 0,30,31
 429 15 429 15 390 18 c 0,32,33
 372 19 372 19 362 26 c 128,-1,34
 352 33 352 33 350 41 c 0,35,36
 346 56 346 56 346 77 c 0,37,38
 346 121 346 121 324 129.5 c 128,-1,39
 302 138 302 138 188 138 c 2,0,-1
474 73 m 0,40,41
 491 89 491 89 491 124 c 128,-1,42
 491 159 491 159 502 173 c 128,-1,43
 513 187 513 187 537 187 c 128,-1,44
 561 187 561 187 574.5 198 c 128,-1,45
 588 209 588 209 588 225.5 c 128,-1,46
 588 242 588 242 574 257 c 128,-1,47
 560 272 560 272 544 276 c 128,-1,48
 528 280 528 280 521 284 c 128,-1,49
 514 288 514 288 508 297.5 c 128,-1,50
 502 307 502 307 499 319 c 128,-1,51
 496 331 496 331 494 355 c 0,52,53
 491 391 491 391 491 459.5 c 128,-1,54
 491 528 491 528 490.5 556 c 128,-1,55
 490 584 490 584 488.5 607.5 c 128,-1,56
 487 631 487 631 484 642.5 c 128,-1,57
 481 654 481 654 476 662 c 0,58,59
 467 674 467 674 447 674 c 1,60,61
 420 674 420 674 329 580 c 128,-1,62
 238 486 238 486 158.5 379 c 128,-1,63
 79 272 79 272 79 239 c 0,64,65
 79 214 79 214 90 204.5 c 128,-1,66
 101 195 101 195 122 192 c 0,67,68
 160 186 160 186 225.5 183 c 128,-1,69
 291 180 291 180 317.5 177.5 c 128,-1,70
 344 175 344 175 364.5 171.5 c 128,-1,71
 385 168 385 168 394 161 c 0,72,73
 410 148 410 148 414.5 116 c 128,-1,74
 419 84 419 84 438 70 c 0,75,76
 447 64 447 64 455 64 c 0,77,78
 465 64 465 64 474 73 c 0,40,41
206 291 m 0,79,80
 175 296 175 296 175.5 307.5 c 128,-1,81
 176 319 176 319 204 357 c 128,-1,82
 232 395 232 395 271 437 c 0,83,84
 345 516 345 516 381 517 c 0,85,86
 385 517 385 517 389 516 c 0,87,88
 416 507 416 507 416 434 c 0,89,90
 416 415 416 415 414 391 c 0,91,92
 412 362 412 362 411 350.5 c 128,-1,93
 410 339 410 339 403.5 324.5 c 128,-1,94
 397 310 397 310 393 306.5 c 128,-1,95
 389 303 389 303 371.5 298 c 128,-1,96
 354 293 354 293 340 292 c 128,-1,97
 326 291 326 291 282 288 c 0,98,99
 266 287 266 287 252 287 c 0,100,101
 226 288 226 288 206 291 c 0,79,80
335 344.5 m 128,-1,103
 346 356 346 356 346 376.5 c 128,-1,104
 346 397 346 397 339 399 c 0,105,106
 338 399 l 0,107,108
 330 399 330 399 302 376 c 0,109,110
 273 352 273 352 273 342.5 c 128,-1,111
 273 333 273 333 309 333 c 0,112,102
 324 333 324 333 335 344.5 c 128,-1,103
EndSplineSet
Validated: 33
EndChar

StartChar: five
Encoding: 53 53 70
Width: 647
VWidth: 24997
Flags: W
HStem: 511 49<457.551 527.772> 657 49<180.025 528.22>
VStem: 534 49<569.595 646.767>
LayerCount: 2
Fore
SplineSet
33 206 m 0,0,1
 42 230 42 230 98 240 c 0,2,3
 126 245 126 245 155 245 c 0,4,5
 183 245 183 245 210 240 c 0,6,7
 266 230 266 230 275.5 206 c 128,-1,8
 285 182 285 182 305 174 c 0,9,10
 313 171 313 171 321 171 c 0,11,12
 333 171 333 171 344 177 c 0,13,14
 363 189 363 189 372 220 c 0,15,16
 376 235 376 235 375 249 c 0,17,18
 375 265 375 265 370 281 c 0,19,20
 361 311 361 311 340 319 c 0,21,22
 331 323 331 323 321 323 c 0,23,24
 307 323 307 323 292 316 c 0,25,26
 250 294 250 294 180 293 c 0,27,28
 177 293 177 293 174 293 c 0,29,30
 109 293 109 293 77 313 c 0,31,32
 56 326 56 326 56 368 c 0,33,34
 56 408 56 408 74 520 c 2,35,-1
 104 706 l 1,36,-1
 583 706 l 1,37,-1
 583 609 l 2,38,39
 583 543 583 543 573 527 c 128,-1,40
 563 511 563 511 520 511 c 2,41,-1
 458 511 l 1,42,-1
 529 450 l 2,43,44
 591 398 591 398 609 333 c 0,45,46
 617 305 617 305 617 272 c 0,47,48
 617 229 617 229 603 180 c 0,49,50
 554 1 554 1 337 1 c 0,51,52
 334 1 334 1 331 1 c 0,53,54
 280 2 280 2 227.5 8.5 c 128,-1,55
 175 15 175 15 153 24 c 0,56,57
 102 45 102 45 61 107 c 0,58,59
 30 154 30 154 30 187 c 0,60,61
 30 197 30 197 33 206 c 0,0,1
510 371 m 0,62,63
 477 414 477 414 445.5 426 c 128,-1,64
 414 438 414 438 361.5 438 c 128,-1,65
 309 438 309 438 291.5 438.5 c 128,-1,66
 274 439 274 439 260 441 c 128,-1,67
 246 443 246 443 239 445.5 c 128,-1,68
 232 448 232 448 228 452 c 0,69,70
 226 455 226 455 226 461 c 0,71,72
 226 470 226 470 232 488 c 0,73,74
 243 516 243 516 243 537 c 0,75,76
 243 546 243 546 285.5 553 c 128,-1,77
 328 560 328 560 392.5 560 c 128,-1,78
 457 560 457 560 485 563.5 c 128,-1,79
 513 567 513 567 523.5 576.5 c 128,-1,80
 534 586 534 586 534 601 c 128,-1,81
 534 616 534 616 533.5 621 c 128,-1,82
 533 626 533 626 531 630.5 c 128,-1,83
 529 635 529 635 526.5 638.5 c 128,-1,84
 524 642 524 642 518 645 c 128,-1,85
 512 648 512 648 505.5 649.5 c 128,-1,86
 499 651 499 651 488 652.5 c 128,-1,87
 477 654 477 654 465.5 655 c 128,-1,88
 454 656 454 656 435 656 c 0,89,90
 408 657 408 657 377 657 c 128,-1,91
 346 657 346 657 322.5 657 c 128,-1,92
 299 657 299 657 285 658 c 0,93,94
 284 658 284 658 282 658 c 0,95,96
 269 658 269 658 249 656 c 0,97,98
 227 654 227 654 219.5 653.5 c 128,-1,99
 212 653 212 653 197.5 646.5 c 128,-1,100
 183 640 183 640 179.5 637 c 128,-1,101
 176 634 176 634 167.5 620.5 c 128,-1,102
 159 607 159 607 157.5 599.5 c 128,-1,103
 156 592 156 592 150.5 570.5 c 128,-1,104
 145 549 145 549 143 535 c 128,-1,105
 141 521 141 521 138 502.5 c 128,-1,106
 135 484 135 484 135 481 c 0,107,108
 134 473 134 473 133 466 c 2,109,-1
 116 360 l 1,110,-1
 241 377 l 2,111,112
 283 383 283 383 315 383 c 0,113,114
 369 383 369 383 395 366 c 0,115,116
 437 340 437 340 437 254 c 0,117,118
 437 191 437 191 404 144 c 128,-1,119
 371 97 371 97 326 97 c 0,120,121
 303 97 303 97 263 128 c 0,122,123
 251 137 251 137 234 154.5 c 128,-1,124
 217 172 217 172 188 180 c 0,125,126
 175 184 175 184 163 185 c 0,127,128
 150 185 150 185 141 180 c 0,129,130
 122 170 122 170 121.5 147 c 128,-1,131
 121 124 121 124 162.5 101 c 128,-1,132
 204 78 204 78 262 66 c 0,133,134
 302 57 302 57 333 57 c 0,135,136
 346 57 346 57 358 59 c 0,137,138
 397 64 397 64 434.5 80 c 128,-1,139
 472 96 472 96 490 114 c 0,140,141
 544 168 544 168 549 241 c 0,142,143
 550 249 550 249 550 258 c 0,144,145
 550 320 550 320 510 371 c 0,62,63
EndSplineSet
Validated: 33
EndChar

StartChar: six
Encoding: 54 54 71
Width: 646
VWidth: 25229
Flags: W
LayerCount: 2
Fore
SplineSet
330 -13 m 0,0,1
 223 -13 223 -13 161 20.5 c 128,-1,2
 99 54 99 54 64.5 138.5 c 128,-1,3
 30 223 30 223 30 338 c 0,4,5
 30 523 30 523 108 607 c 128,-1,6
 186 691 186 691 358 691 c 0,7,8
 432 691 432 691 468.5 679 c 128,-1,9
 505 667 505 667 541 631 c 0,10,11
 598 574 598 574 598 537 c 0,12,13
 598 502 598 502 547 488 c 2,14,-1
 493 474 l 1,15,-1
 545 418 l 2,16,17
 599 360 599 360 613 279 c 0,18,19
 617 254 617 254 617 229 c 0,20,21
 617 175 617 175 597 126 c 0,22,23
 567 54 567 54 502 20 c 0,24,25
 438 -13 438 -13 331 -13 c 0,26,27
 330 -13 l 0,0,1
497 120 m 0,28,29
 549 179 549 179 549 240 c 0,30,31
 549 299 549 299 502 359 c 0,32,33
 477 391 477 391 434 409 c 0,34,35
 396 425 396 425 361 426 c 0,36,37
 356 426 356 426 351 425 c 0,38,39
 312 422 312 422 297 399 c 0,40,41
 295 395 295 395 295 392 c 0,42,43
 295 382 295 382 319 377 c 0,44,45
 330 375 330 375 345 374 c 0,46,47
 388 374 388 374 416 340.5 c 128,-1,48
 444 307 444 307 450 262 c 0,49,50
 451 251 451 251 451 240 c 0,51,52
 451 206 451 206 438 172 c 0,53,54
 420 126 420 126 380 105 c 0,55,56
 358 92 358 92 335 93 c 0,57,58
 328 93 328 93 321 94 c 0,59,60
 291 99 291 99 267 116.5 c 128,-1,61
 243 134 243 134 227.5 166.5 c 128,-1,62
 212 199 212 199 212 234 c 128,-1,63
 212 269 212 269 220.5 301 c 128,-1,64
 229 333 229 333 239.5 343.5 c 128,-1,65
 250 354 250 354 254 359.5 c 128,-1,66
 258 365 258 365 258 368 c 0,67,68
 258 373 258 373 241 374 c 0,69,70
 218 374 218 374 213 410 c 0,71,72
 212 420 212 420 212 430 c 0,73,74
 212 458 212 458 222 490 c 0,75,76
 236 534 236 534 263.5 559.5 c 128,-1,77
 291 585 291 585 312 588 c 0,78,79
 315 588 315 588 318 588 c 0,80,81
 338 588 338 588 371 573 c 0,82,83
 432 545 432 545 468 545 c 0,84,85
 483 545 483 545 493 550 c 0,86,87
 504 555 504 555 503.5 567.5 c 128,-1,88
 503 580 503 580 477.5 594.5 c 128,-1,89
 452 609 452 609 416 618 c 0,90,91
 357 633 357 633 315 633 c 0,92,93
 291 633 291 633 272 628 c 0,94,95
 220 614 220 614 176 566 c 128,-1,96
 132 518 132 518 110 453 c 0,97,98
 92 397 92 397 92 332 c 0,99,100
 92 323 92 323 92 314 c 0,101,102
 95 238 95 238 127 172 c 0,103,104
 162 99 162 99 230 65 c 0,105,106
 277 42 277 42 327 42 c 0,107,108
 347 42 347 42 369 45 c 0,109,110
 444 59 444 59 497 120 c 0,28,29
370 196 m 0,111,112
 380 221 380 221 380 242 c 0,113,114
 380 273 380 273 358 298 c 0,115,116
 342 316 342 316 325 317 c 0,117,118
 315 317 315 317 304 310 c 0,119,120
 286 299 286 299 285 244 c 0,121,122
 285 241 285 241 285 238 c 0,123,124
 285 168 285 168 320 160 c 0,125,126
 324 159 324 159 327 159 c 0,127,128
 342 159 342 159 356 174 c 0,129,130
 364 182 364 182 370 196 c 0,111,112
346.5 515.5 m 128,-1,132
 341 521 341 521 328 516.5 c 128,-1,133
 315 512 315 512 300 496.5 c 128,-1,134
 285 481 285 481 287.5 478.5 c 128,-1,135
 290 476 290 476 312 484 c 128,-1,136
 334 492 334 492 343 501 c 128,-1,131
 352 510 352 510 346.5 515.5 c 128,-1,132
EndSplineSet
Validated: 33
EndChar

StartChar: seven
Encoding: 55 55 72
Width: 640
VWidth: 24829
Flags: W
HStem: 0 49<234.35 307.176> 487 73<106.297 290.755> 688 20G<515.007 610.106>
VStem: 562 49<557.277 645.794>
LayerCount: 2
Fore
SplineSet
149 46 m 0,0,1
 149 97 149 97 199.5 255.5 c 128,-1,2
 250 414 250 414 271 427 c 0,3,4
 297 443 297 443 297 455 c 0,5,6
 297 465 297 465 280 474 c 0,7,8
 251 488 251 488 188.5 487.5 c 128,-1,9
 126 487 126 487 90 501 c 0,10,11
 30 525 30 525 30 601 c 0,12,13
 30 613 30 613 32 626 c 2,14,-1
 40 694 l 1,15,16
 325 701 325 701 611 708 c 1,17,-1
 611 613 l 2,18,19
 611 554 611 554 597 524.5 c 128,-1,20
 583 495 583 495 572 486 c 0,21,22
 526 448 526 448 469 323.5 c 128,-1,23
 412 199 412 199 400 109 c 2,24,-1
 385 0 l 1,25,-1
 267 0 l 2,26,27
 192 0 192 0 170.5 8.5 c 128,-1,28
 149 17 149 17 149 46 c 0,0,1
311 75.5 m 128,-1,30
 327 102 327 102 349 197.5 c 128,-1,31
 371 293 371 293 415 384 c 128,-1,32
 459 475 459 475 510 522 c 0,33,34
 539 549 539 549 550.5 575 c 128,-1,35
 562 601 562 601 562 615 c 128,-1,36
 562 629 562 629 556 637 c 128,-1,37
 550 645 550 645 523 650 c 0,38,39
 485 657 485 657 327.5 657.5 c 128,-1,40
 170 658 170 658 135 650.5 c 128,-1,41
 100 643 100 643 100 609 c 0,42,43
 100 586 100 586 110.5 576.5 c 128,-1,44
 121 567 121 567 149 563.5 c 128,-1,45
 177 560 177 560 240.5 560 c 128,-1,46
 304 560 304 560 350.5 553.5 c 128,-1,47
 397 547 397 547 403 538 c 0,48,49
 404 536 404 536 404 531 c 0,50,51
 404 518 404 518 391 487 c 0,52,53
 374 446 374 446 343 398 c 0,54,55
 240 235 240 235 228 126 c 0,56,57
 227 114 227 114 227 105 c 0,58,59
 227 49 227 49 268 49 c 0,60,29
 295 49 295 49 311 75.5 c 128,-1,30
EndSplineSet
Validated: 33
EndChar

StartChar: eight
Encoding: 56 56 73
Width: 635
VWidth: 25170
Flags: W
HStem: 641 61<216.246 440.498>
LayerCount: 2
Fore
SplineSet
51 306 m 0,0,1
 71 346 71 346 71 385 c 0,2,3
 71 411 71 411 62 437 c 0,4,5
 47 479 47 479 47 515 c 0,6,7
 47 581 47 581 96 628 c 0,8,9
 172 702 172 702 333 702 c 0,10,11
 403 702 403 702 459.5 682 c 128,-1,12
 516 662 516 662 548.5 627.5 c 128,-1,13
 581 593 581 593 591 546 c 0,14,15
 594 532 594 532 594 516 c 0,16,17
 594 481 594 481 578 438 c 0,18,19
 566 407 566 407 566 386 c 0,20,21
 566 366 566 366 577 355 c 0,22,23
 600 332 600 332 604 275 c 0,24,25
 605 261 605 261 605 245 c 0,26,27
 605 202 605 202 596 157 c 0,28,29
 583 96 583 96 557 63.5 c 128,-1,30
 531 31 531 31 491 18.5 c 128,-1,31
 451 6 451 6 345 0 c 0,32,33
 310.5 -2.25 310.5 -2.25 283.3125 -2.25 c 0,34,35
 274.25 -2.25 274.25 -2.25 266 -2 c 0,36,37
 222 -2 222 -2 198 2 c 0,38,39
 156 10 156 10 115 42 c 0,40,41
 54 90 54 90 36 165 c 0,42,43
 30 191 30 191 30 216 c 0,44,45
 30 262 30 262 51 306 c 0,0,1
432 71 m 0,46,47
 479 87 479 87 509 115.5 c 128,-1,48
 539 144 539 144 549 177 c 0,49,50
 554 193 554 193 554 209 c 0,51,52
 554 227 554 227 548 246 c 0,53,54
 537 282 537 282 505 315 c 0,55,56
 490 330 490 330 483.5 336.5 c 128,-1,57
 477 343 477 343 471.5 354 c 128,-1,58
 466 365 466 365 466 370 c 128,-1,59
 466 375 466 375 470 389 c 0,60,61
 474 404 474 404 492.5 438.5 c 128,-1,62
 511 473 511 473 517 483.5 c 128,-1,63
 523 494 523 494 527 508.5 c 128,-1,64
 531 523 531 523 530.5 528 c 128,-1,65
 530 533 530 533 524 544.5 c 128,-1,66
 518 556 518 556 511 563 c 128,-1,67
 504 570 504 570 481 593 c 0,68,69
 433 641 433 641 327 641 c 0,70,71
 249 641 249 641 188 606 c 0,72,73
 154 586 154 586 133 554 c 0,74,75
 118 531 118 531 118 505 c 0,76,77
 118 499 118 499 119 493 c 0,78,79
 123 461 123 461 157 432 c 0,80,81
 189 405 189 405 189 383 c 0,82,83
 189 358 189 358 143 312 c 0,84,85
 93 262 93 262 93 210 c 0,86,87
 93 188 93 188 102 166 c 0,88,89
 131 91 131 91 222 65 c 0,90,91
 259.846153846 53.9230769231 259.846153846 53.9230769231 302.804733728 53.9230769231 c 0,92,93
 306.384615385 53.9230769231 306.384615385 53.9230769231 310 54 c 0,94,95
 313 53.9473684211 313 53.9473684211 316.022160665 53.9473684211 c 0,96,97
 370.421052632 53.9473684211 370.421052632 53.9473684211 432 71 c 0,46,47
259 119 m 0,98,99
 233 134 233 134 222 179 c 0,100,101
 216 203 216 203 216 229 c 0,102,103
 216 250 216 250 220 270 c 0,104,105
 229 317 229 317 254 338 c 0,106,107
 276 356 276 356 307 356 c 0,108,109
 330 356 330 356 357 347 c 0,110,111
 396 333 396 333 417 294 c 0,112,113
 434 262 434 262 434 226 c 0,114,115
 434 218 434 218 433 209 c 0,116,117
 428 163 428 163 396 131 c 128,-1,118
 364 99 364 99 334 96 c 0,119,120
 331 96 331 96 328 95 c 0,121,122
 300 95 300 95 259 119 c 0,98,99
357 235 m 0,123,124
 358 244 358 244 359 252 c 0,125,126
 359 288 359 288 329 288 c 0,127,128
 293 288 293 288 279 265 c 0,129,130
 272 254 272 254 272 238 c 0,131,132
 272 223 272 223 280 204 c 0,133,134
 292 173 292 173 311 173 c 0,135,136
 312 173 312 173 313 173 c 0,137,138
 334 175 334 175 348 201 c 0,139,140
 354 216 354 216 357 235 c 0,123,124
321 411 m 0,141,142
 306 409 306 409 293 409 c 0,143,144
 249 409 249 409 230 428 c 0,145,146
 214 444 214 444 214 474 c 0,147,148
 214 489 214 489 218 507 c 0,149,150
 230 562 230 562 263 578.5 c 128,-1,151
 296 595 296 595 326 595 c 0,152,-1
 326 595 l 0,153,154
 356 595 356 595 379 580 c 0,155,156
 403 565 403 565 417 544 c 0,157,158
 430 525 430 525 431 501 c 0,159,160
 431 471 431 471 408 444 c 0,161,162
 387 418 387 418 321 411 c 0,141,142
362 509 m 0,163,164
 362 518 362 518 351 525 c 128,-1,165
 340 532 340 532 318.5 532 c 128,-1,166
 297 532 297 532 291 514 c 0,167,168
 289 509 289 509 289 504 c 0,169,170
 289 491 289 491 302 478 c 0,171,172
 312 468 312 468 323 468 c 0,173,174
 331 468 331 468 340 473 c 0,175,176
 362 486 362 486 362 509 c 0,163,164
EndSplineSet
Validated: 524289
EndChar

StartChar: nine
Encoding: 57 57 74
Width: 635
VWidth: 24846
Flags: W
HStem: 0 21G<246.869 365.208> 0 21G<246.869 365.208> 687 20G<220.021 366.268>
LayerCount: 2
Fore
SplineSet
64.5 116.5 m 128,-1,1
 47 149 47 149 47 174 c 128,-1,2
 47 199 47 199 63 209 c 128,-1,3
 79 219 79 219 126 220 c 2,4,-1
 205 220 l 1,5,-1
 145 251 l 2,6,7
 81 283 81 283 52 348 c 0,8,9
 30 396 30 396 30 456 c 0,10,11
 30 477 30 477 33 499 c 0,12,13
 46 606 46 606 111.5 656.5 c 128,-1,14
 177 707 177 707 306 707 c 0,15,16
 397 707 397 707 432 693 c 0,17,18
 474 677 474 677 557 589 c 0,19,20
 568 577 568 577 579.5 558 c 128,-1,21
 591 539 591 539 594.5 527 c 128,-1,22
 598 515 598 515 601.5 486 c 128,-1,23
 605 457 605 457 605.5 431 c 128,-1,24
 606 405 606 405 606 353 c 128,-1,25
 606 301 606 301 605.5 275.5 c 128,-1,26
 605 250 605 250 601.5 221 c 128,-1,27
 598 192 598 192 594.5 180 c 128,-1,28
 591 168 591 168 579.5 149 c 128,-1,29
 568 130 568 130 557 118 c 0,30,31
 474 30 474 30 435 15 c 128,-1,32
 396 0 396 0 307.5 0 c 128,-1,33
 219 0 219 0 181.5 11.5 c 128,-1,34
 144 23 144 23 113 53.5 c 128,-1,0
 82 84 82 84 64.5 116.5 c 128,-1,1
330 60 m 0,35,36
 414 68 414 68 462 111.5 c 128,-1,37
 510 155 510 155 533 221 c 0,38,39
 552 276 552 276 553 332 c 0,40,41
 553 343 553 343 552 354 c 0,42,43
 547 422 547 422 524.5 484.5 c 128,-1,44
 502 547 502 547 456.5 591.5 c 128,-1,45
 411 636 411 636 358 646 c 0,46,47
 331 651 331 651 306 651 c 0,48,49
 282 651 282 651 259 646 c 0,50,51
 214 636 214 636 180.5 613.5 c 128,-1,52
 147 591 147 591 124.5 557.5 c 128,-1,53
 102 524 102 524 95 488 c 0,54,55
 92 475 92 475 92 461 c 0,56,57
 92 437 92 437 100 413 c 0,58,59
 112 374 112 374 140.5 345.5 c 128,-1,60
 169 317 169 317 213 303 c 0,61,62
 248 292 248 292 281 292 c 0,63,64
 289 292 289 292 298 293 c 0,65,66
 338 297 338 297 351 317 c 0,67,68
 353 321 353 321 353 324 c 0,69,70
 353 333 353 333 335 338 c 0,71,72
 324 341 324 341 308 341 c 0,73,74
 252 341 252 341 223 372 c 0,75,76
 193 403 193 403 193 452 c 0,77,78
 193 501 193 501 202 527 c 0,79,80
 218 575 218 575 283 595 c 0,81,82
 297 599 297 599 311.5 599 c 128,-1,83
 326 599 326 599 340 595 c 0,84,85
 369 586 369 586 389 563.5 c 128,-1,86
 409 541 409 541 421 512 c 0,87,88
 432 487 432 487 432 459 c 0,89,90
 432 455 432 455 431 451 c 0,91,92
 429 418 429 418 410 386 c 0,93,94
 401 372 401 372 401 362 c 0,95,96
 401 348 401 348 416 338 c 0,97,98
 433 327 433 327 433 291 c 0,99,100
 433 280 433 280 431 266 c 0,101,102
 425 211 425 211 399 164 c 0,103,104
 369 109 369 109 321 109 c 0,105,106
 315 109 315 109 308 110 c 0,107,108
 282 114 282 114 241.5 138 c 128,-1,109
 201 162 201 162 179 165 c 0,110,111
 175 166 175 166 171 166 c 0,112,113
 154 166 154 166 142 153 c 0,114,115
 133 144 133 144 133 135 c 0,116,117
 133 129 133 129 136 124 c 0,118,119
 145 109 145 109 184 87 c 0,120,121
 235 59 235 59 300 59 c 0,122,123
 315 59 315 59 330 60 c 0,35,36
290 190 m 0,124,125
 290 174 290 174 305 174 c 0,126,127
 310 174 310 174 316 176 c 0,128,129
 342 183 342 183 353 205 c 128,-1,130
 364 227 364 227 355 231.5 c 128,-1,131
 346 236 346 236 329.5 229.5 c 128,-1,132
 313 223 313 223 301.5 211.5 c 128,-1,133
 290 200 290 200 290 190 c 0,124,125
345 421 m 0,134,135
 359 439 359 439 360 456 c 0,136,137
 360 459 360 459 359 463 c 0,138,139
 356 484 356 484 350 497 c 0,140,141
 338 525 338 525 322.5 529.5 c 128,-1,142
 307 534 307 534 295 526 c 128,-1,143
 283 518 283 518 276 502 c 0,144,145
 267 479 267 479 267 459 c 0,146,147
 267 444 267 444 272 432 c 0,148,149
 284 402 284 402 306 401 c 0,150,151
 307 401 307 401 308 401 c 0,152,153
 329 401 329 401 345 421 c 0,134,135
EndSplineSet
Validated: 1
EndChar

StartChar: less
Encoding: 60 60 75
Width: 605
VWidth: 25232
Flags: W
LayerCount: 2
Fore
SplineSet
261 110 m 2,0,-1
 30 212 l 1,1,2
 30 403 l 1,3,-1
 272 508 l 2,4,5
 372 552 372 552 452 580 c 0,6,7
 520 603 520 603 540 603 c 0,8,9
 544 603 544 603 545 602 c 0,10,11
 564 595 564 595 572 552 c 0,12,13
 576 530 576 530 576 506 c 0,14,15
 576 484 576 484 572 462 c 0,16,17
 565 416 565 416 546 400 c 0,18,19
 516 376 516 376 420 345 c 2,20,-1
 323 314 l 1,21,-1
 451 257 l 2,22,23
 546 215 546 215 562 196 c 0,24,25
 567 190 567 190 571 174.5 c 128,-1,26
 575 159 575 159 574.5 147 c 128,-1,27
 574 135 574 135 572 108 c 0,28,29
 564 16 564 16 528 12 c 0,30,31
 527 12 527 12 526 12 c 0,32,33
 508 12 508 12 434 39 c 0,34,35
 356 68 356 68 261 110 c 2,0,-1
470.5 170.5 m 128,-1,37
 438 193 438 193 368 219.5 c 128,-1,38
 298 246 298 246 255 271 c 128,-1,39
 212 296 212 296 212 308.5 c 128,-1,40
 212 321 212 321 255 346 c 128,-1,41
 298 371 298 371 358.5 394 c 128,-1,42
 419 417 419 417 461 442.5 c 128,-1,43
 503 468 503 468 503 482 c 0,44,45
 503 510 503 510 486 512 c 0,46,47
 485 512 485 512 484 512 c 0,48,49
 451 512 451 512 269 434 c 0,50,51
 201 405 201 405 162 385 c 128,-1,52
 123 365 123 365 101 345 c 0,53,54
 80 325 80 325 80 309 c 0,55,56
 80 293 80 293 106 270 c 0,57,58
 131 248 131 248 172 226.5 c 128,-1,59
 213 205 213 205 352 143 c 128,-1,60
 491 81 491 81 495 80 c 128,-1,61
 499 79 499 79 500 84 c 0,62,63
 503 96 503 96 503 122 c 128,-1,36
 503 148 503 148 470.5 170.5 c 128,-1,37
EndSplineSet
Validated: 1
EndChar

StartChar: parenleft
Encoding: 40 40 76
Width: 363
VWidth: 24507
Flags: W
VStem: 30 303
LayerCount: 2
Fore
SplineSet
158 -118 m 4,0,1
 86 -35 86 -35 58 55.5 c 128,-1,2
 30 146 30 146 30 290 c 0,3,4
 30 294 30 294 30 298 c 0,5,6
 30 436 30 436 41 495 c 0,7,8
 52 555 52 555 92.5 634 c 128,-1,9
 133 713 133 713 158 734 c 0,10,11
 191 762 191 762 277 762 c 0,12,13
 283 762 283 762 288 762 c 0,14,15
 333 761 333 761 333 752 c 0,16,17
 333 736 333 736 281 565 c 0,18,19
 240 431 240 431 241 296 c 0,20,21
 241 234 241 234 249 171 c 0,22,23
 262 75 262 75 296 -5 c 0,24,25
 312 -43 312 -43 320 -79 c 0,26,27
 325 -101 325 -101 324 -115 c 0,28,29
 324 -124 324 -124 322 -129 c 0,30,31
 314 -151 314 -151 282 -158 c 0,32,33
 270 -160 270 -160 258 -160 c 0,34,35
 237 -160 237 -160 215 -153 c 0,36,37
 179 -142 179 -142 158 -118 c 4,0,1
182 314 m 0,38,39
 183 511 183 511 221 614 c 4,40,41
 245 679 245 679 244 702 c 0,42,43
 244 714 244 714 238 714 c 0,44,45
 237 714 237 714 236 713 c 0,46,47
 212 709 212 709 149 580 c 0,48,49
 82 442 82 442 82 307 c 128,-1,50
 82 172 82 172 149 39 c 0,51,52
 207 -77 207 -77 232 -84 c 0,53,54
 233 -84 233 -84 234 -84 c 0,55,56
 241 -84 241 -84 241 -72 c 0,57,58
 241 -50 241 -50 218 13 c 0,59,60
 182 114 182 114 182 305 c 0,61,62
 182 309 182 309 182 314 c 0,38,39
EndSplineSet
Validated: 33
EndChar

StartChar: parenright
Encoding: 41 41 77
Width: 366
VWidth: 25274
Flags: W
HStem: -164 73<106.804 139.889>
VStem: 102 73<101.203 496.713>
LayerCount: 2
Fore
SplineSet
30 -118 m 4,0,1
 30 -72 30 -72 66 31 c 0,2,3
 81 74 81 74 91.5 152.5 c 128,-1,4
 102 231 102 231 102 299 c 128,-1,5
 102 367 102 367 91.5 445.5 c 128,-1,6
 81 524 81 524 59 586.5 c 128,-1,7
 37 649 37 649 32 689 c 0,8,9
 31 699 31 699 30 708 c 0,10,11
 30 733 30 733 42 746 c 0,12,13
 58 762 58 762 102 762 c 0,14,15
 170 762 170 762 230.5 677.5 c 128,-1,16
 291 593 291 593 321 457 c 0,17,18
 336 389 336 389 337 316 c 0,19,20
 337 248 337 248 323 177 c 0,21,22
 297 34 297 34 234 -63 c 0,23,24
 204 -109 204 -109 166 -136.5 c 128,-1,25
 128 -164 128 -164 88 -164 c 0,26,27
 47 -164 47 -164 36 -144 c 0,28,29
 30 -134 30 -134 30 -118 c 4,0,1
208 52 m 4,30,31
 269 189 269 189 271 311 c 0,32,33
 271 314 271 314 271 316 c 0,34,35
 271 474 271 474 165 651 c 0,36,37
 140 693 140 693 129 699 c 0,38,39
 119 705 119 705 113 706 c 0,40,41
 104 706 104 706 104 693 c 0,42,43
 104 672 104 672 126 599 c 0,44,45
 148 525 148 525 157 479 c 0,46,47
 175 379 175 379 175 310.5 c 128,-1,48
 175 242 175 242 164.5 166 c 128,-1,49
 154 90 154 90 129 7 c 0,50,51
 105 -71 105 -71 105 -84 c 0,52,53
 105 -91 105 -91 123 -91 c 0,54,55
 132 -91 132 -91 157 -49 c 128,-1,56
 182 -7 182 -7 208 52 c 4,30,31
EndSplineSet
Validated: 1
EndChar

StartChar: comma
Encoding: 44 44 78
Width: 300
VWidth: 25040
Flags: W
HStem: -28 50<68.6152 136.715>
VStem: 222 49<-33.8718 137.984>
LayerCount: 2
Fore
SplineSet
35 -121 m 0,0,1
 35 -88 35 -88 67.5 -63 c 128,-1,2
 100 -38 100 -38 100 -33.5 c 128,-1,3
 100 -29 100 -29 73.5 -28 c 128,-1,4
 47 -27 47 -27 38.5 -14.5 c 128,-1,5
 30 -2 30 -2 30 26.5 c 128,-1,6
 30 55 30 55 32 88 c 2,7,-1
 40 204 l 1,8,9
 116 209 116 209 270 219 c 1,10,-1
 270 64 l 2,11,12
 270 -34 270 -34 259.5 -72.5 c 128,-1,13
 249 -111 249 -111 214 -145 c 0,14,15
 159 -197 159 -197 107 -197 c 128,-1,16
 55 -197 55 -197 39 -147 c 0,17,18
 35 -133 35 -133 35 -121 c 0,0,1
209.5 -11.5 m 128,-1,20
 222 26 222 26 222 70 c 128,-1,21
 222 114 222 114 211.5 128.5 c 128,-1,22
 201 143 201 143 162.5 143 c 128,-1,23
 124 143 124 143 112 131 c 128,-1,24
 100 119 100 119 100 82 c 0,25,26
 100 21 100 21 137 21 c 0,27,28
 154 21 154 21 163.5 5 c 128,-1,29
 173 -11 173 -11 173 -38.5 c 128,-1,30
 173 -66 173 -66 155 -90 c 1,31,-1
 151 -96 l 1,32,33
 153 -96 153 -96 175 -72.5 c 128,-1,19
 197 -49 197 -49 209.5 -11.5 c 128,-1,20
EndSplineSet
Validated: 1
EndChar

StartChar: dollar
Encoding: 36 36 79
Width: 670
VWidth: 24899
Flags: W
HStem: 147 160<311.569 441.278> 495 107<385.968 429.042>
VStem: 54 267<314.89 520.627> 277 121<-80.821 -38.6182 738.282 782.449>
LayerCount: 2
Fore
SplineSet
273 -28 m 2,0,1
 267 -9 267 -9 252.5 6 c 128,-1,2
 238 21 238 21 222 21 c 0,3,4
 191 21 191 21 145 55.5 c 128,-1,5
 99 90 99 90 64.5 136 c 128,-1,6
 30 182 30 182 30 211.5 c 128,-1,7
 30 241 30 241 48.5 255.5 c 128,-1,8
 67 270 67 270 102.5 276.5 c 128,-1,9
 138 283 138 283 162 285 c 0,10,11
 177 286 177 286 190 286 c 0,12,13
 222 286 222 286 240 279 c 0,14,15
 264 270 264 270 264 282 c 0,16,17
 262 300 262 300 230 310 c 0,18,19
 220 313 220 313 210 314 c 0,20,21
 176 314 176 314 139 346 c 128,-1,22
 102 378 102 378 78 427 c 128,-1,23
 54 476 54 476 54 521 c 0,24,25
 54 596 54 596 108 662 c 128,-1,26
 162 728 162 728 223 728 c 0,27,28
 243 728 243 728 258 735 c 128,-1,29
 273 742 273 742 273 752 c 1,30,31
 264 769 264 769 269 774.5 c 128,-1,32
 274 780 274 780 277.5 782 c 128,-1,33
 281 784 281 784 289 785 c 0,34,35
 301 786 301 786 312.5 786 c 128,-1,36
 324 786 324 786 326 786 c 0,37,38
 398 786 398 786 398 771 c 0,39,40
 398 760 398 760 420.5 737 c 128,-1,41
 443 714 443 714 475.5 707.5 c 128,-1,42
 508 701 508 701 545 670 c 128,-1,43
 582 639 582 639 600 600 c 0,44,45
 612 576 612 576 612 556 c 0,46,47
 612 544 612 544 608 534 c 0,48,49
 594 497 594 497 490 496 c 2,50,-1
 386 495 l 1,51,-1
 486 446 l 2,52,53
 559 411 559 411 600 354.5 c 128,-1,54
 641 298 641 298 641 236 c 0,55,56
 641 174 641 174 584 102 c 128,-1,57
 527 30 527 30 471 19 c 0,58,59
 398 4 398 4 398 -42 c 0,60,61
 398 -66 398 -66 384 -76.5 c 128,-1,62
 370 -87 370 -87 337 -87 c 128,-1,63
 304 -87 304 -87 290.5 -76 c 128,-1,64
 277 -65 277 -65 277 -39 c 1,65,-1
 273 -28 l 2,0,1
531 161 m 0,66,67
 564 205 564 205 564 247 c 0,68,69
 564 370 564 370 267 469 c 0,70,71
 248 475 248 475 236 495.5 c 128,-1,72
 224 516 224 516 224 550 c 128,-1,73
 224 584 224 584 239 594 c 0,74,75
 252 602 252 602 291 602 c 0,76,77
 297 602 297 602 303 602 c 0,78,79
 352 601 352 601 388 593.5 c 128,-1,80
 424 586 424 586 436 576 c 0,81,82
 451 564 451 564 467 565 c 0,83,84
 477 565 477 565 487 568 c 0,85,86
 516 578 516 578 516 605 c 0,87,88
 516 613 516 613 489.5 629.5 c 128,-1,89
 463 646 463 646 416.5 664.5 c 128,-1,90
 370 683 370 683 336 685 c 0,91,92
 334 685 334 685 332 685 c 0,93,94
 299 685 299 685 251 668 c 0,95,96
 200 650 200 650 168 623 c 128,-1,97
 136 596 136 596 126 564 c 0,98,99
 120 544 120 544 119 524 c 0,100,101
 119 511 119 511 122 498 c 0,102,103
 129 465 129 465 157.5 433.5 c 128,-1,104
 186 402 186 402 232 379 c 0,105,106
 291 350 291 350 314 326 c 0,107,108
 321 319 321 319 321 315 c 0,109,110
 321 307 321 307 338 305 c 0,111,112
 344 304 344 304 351 304 c 0,113,114
 364 304 364 304 379 307 c 0,115,116
 393 310 393 310 405 310 c 0,117,118
 437 310 437 310 452 290 c 0,119,120
 464 274 464 274 463 248 c 0,121,122
 463 229 463 229 457 204 c 0,123,124
 448 167 448 167 427 157 c 0,125,126
 408 148 408 148 360 147 c 0,127,128
 356 147 356 147 353 147 c 0,129,130
 245 148 245 148 232 182 c 0,131,132
 222 209 222 209 171 215 c 0,133,134
 161 216 161 216 152 216 c 0,135,136
 118 216 118 216 109 200 c 0,137,138
 106 194 106 194 109 183.5 c 128,-1,139
 112 173 112 173 146.5 148.5 c 128,-1,140
 181 124 181 124 240.5 95 c 128,-1,141
 300 66 300 66 329 64 c 0,142,143
 333 64 333 64 338 63 c 0,144,145
 366 63 366 63 405 80 c 0,146,147
 450 99 450 99 484 121.5 c 128,-1,148
 518 144 518 144 531 161 c 0,66,67
EndSplineSet
Validated: 33
EndChar

StartChar: percent
Encoding: 37 37 80
Width: 916
VWidth: 25084
Flags: W
HStem: 30 50<699.544 747.092> 371 414<576.521 719.526> 395 47<167.09 288.401> 479 66<203.524 243.35> 710 75<126.037 158.586>
VStem: 30 51<525.27 652.359> 166 33<547.346 639.313> 248 40<547.346 640.367> 831 55<163.942 285.425>
LayerCount: 2
Fore
SplineSet
244.5 569 m 128,-1,1
 248 580 248 580 248 596.5 c 128,-1,2
 248 613 248 613 240.5 627.5 c 128,-1,3
 233 642 233 642 225 642 c 128,-1,4
 217 642 217 642 211 635 c 0,5,6
 199 621 199 621 199 597 c 128,-1,7
 199 573 199 573 206 559 c 128,-1,8
 213 545 213 545 221.5 545 c 128,-1,9
 230 545 230 545 235.5 551.5 c 128,-1,0
 241 558 241 558 244.5 569 c 128,-1,1
220.5 38.5 m 128,-1,11
 200 47 200 47 200 59.5 c 128,-1,12
 200 72 200 72 229 134 c 0,13,14
 257 195 257 195 297 268 c 0,15,16
 366 395 366 395 366 419 c 0,17,18
 366 423 366 423 364 424 c 0,19,20
 360 427 360 427 344 418.5 c 128,-1,21
 328 410 328 410 288.5 402.5 c 128,-1,22
 249 395 249 395 214 395 c 0,23,24
 125 395 125 395 77.5 445.5 c 128,-1,25
 30 496 30 496 30 590 c 0,26,27
 30 785 30 785 224 785 c 0,28,29
 319 785 319 785 368.5 737 c 128,-1,30
 418 689 418 689 420 596 c 2,31,-1
 421 505 l 1,32,-1
 493 645 l 2,33,34
 526 710 526 710 545.5 737.5 c 128,-1,35
 565 765 565 765 584.5 775 c 128,-1,36
 604 785 604 785 635.5 785 c 128,-1,37
 667 785 667 785 688.5 777.5 c 128,-1,38
 710 770 710 770 710 760 c 0,39,40
 710 735 710 735 627 569 c 2,41,-1
 544 404 l 1,42,-1
 669 414 l 2,43,44
 691 416 691 416 711 416 c 0,45,46
 797 416 797 416 837 380 c 0,47,48
 886 336 886 336 886 221 c 0,49,50
 886 30 886 30 683 30 c 0,51,52
 590 30 590 30 540.5 78.5 c 128,-1,53
 491 127 491 127 490 218 c 2,54,-1
 489 310 l 1,55,-1
 417 170 l 2,56,57
 370 78 370 78 345 54 c 128,-1,58
 320 30 320 30 280.5 30 c 128,-1,10
 241 30 241 30 220.5 38.5 c 128,-1,11
736 93 m 0,59,60
 763 107 763 107 779.5 123.5 c 128,-1,61
 796 140 796 140 807 158 c 0,62,63
 831 196 831 196 831 224 c 0,64,65
 831 270 831 270 782.5 320.5 c 128,-1,66
 734 371 734 371 692 371 c 128,-1,67
 650 371 650 371 617 348.5 c 128,-1,68
 584 326 584 326 568 294 c 0,69,70
 554 266 554 266 554 233 c 0,71,72
 554 228 554 228 555 223 c 0,73,74
 557 184 557 184 584 151 c 0,75,76
 609 120 609 120 616 120 c 0,77,78
 617 120 l 1,79,80
 625 133 625 133 625 193 c 128,-1,81
 625 253 625 253 626 271.5 c 128,-1,82
 627 290 627 290 629.5 305 c 128,-1,83
 632 320 632 320 640 325 c 0,84,85
 655 334 655 334 690.5 334 c 128,-1,86
 726 334 726 334 737.5 317 c 128,-1,87
 749 300 749 300 754 232 c 0,88,89
 755.333333333 215.333333333 755.333333333 215.333333333 755.333333333 201.333333333 c 0,90,91
 755.333333333 194.333333333 755.333333333 194.333333333 755 188 c 0,92,93
 755 155 755 155 750 141 c 0,94,95
 741 119 741 119 706 104.5 c 128,-1,96
 671 90 671 90 670 85 c 0,97,98
 669 81 669 81 689 80 c 0,99,100
 690 80 690 80 691 80 c 0,101,102
 711 80 711 80 736 93 c 0,59,60
710 229 m 0,103,104
 710 259 710 259 704 265 c 128,-1,105
 698 271 698 271 687 259.5 c 128,-1,106
 676 248 676 248 672 239 c 0,107,108
 668 229 668 229 667 220 c 0,109,110
 667 211 667 211 672 202 c 0,111,112
 687 177 687 177 697 177 c 0,113,114
 710 177 710 177 710 229 c 0,103,104
324 491 m 0,115,116
 365 532 365 532 370 571 c 0,117,118
 371 577 371 577 371 584 c 0,119,120
 371 619 371 619 347 663 c 0,121,122
 324 707 324 707 310 707 c 0,123,124
 293 707 293 707 289 646 c 0,125,126
 288 624 288 624 287.5 591.5 c 128,-1,127
 287 559 287 559 286 540.5 c 128,-1,128
 285 522 285 522 282.5 507.5 c 128,-1,129
 280 493 280 493 272 488 c 128,-1,130
 264 483 264 483 254.5 481 c 128,-1,131
 245 479 245 479 226.5 479 c 128,-1,132
 208 479 208 479 198.5 481 c 128,-1,133
 189 483 189 483 181 488 c 128,-1,134
 173 493 173 493 171 508 c 0,135,136
 166 536 166 536 166 589 c 128,-1,137
 166 642 166 642 161 676 c 128,-1,138
 156 710 156 710 149 710 c 0,139,140
 131 710 131 710 106 661.5 c 128,-1,141
 81 613 81 613 81 582.5 c 128,-1,142
 81 552 81 552 105 519.5 c 128,-1,143
 129 487 129 487 164 464.5 c 128,-1,144
 199 442 199 442 223 442 c 128,-1,145
 247 442 247 442 275.5 456.5 c 128,-1,146
 304 471 304 471 324 491 c 0,115,116
EndSplineSet
Validated: 524289
EndChar

StartChar: exclam
Encoding: 33 33 81
Width: 297
VWidth: 24614
Flags: W
HStem: 38 48<105.452 215.714> 696 48<106.89 226>
VStem: 30 237<397 744> 37 62<361.593 690.277> 48 51<92.0117 175.071> 221 41<93.107 176.893>
LayerCount: 2
Fore
SplineSet
156 38 m 2,0,1
 50 38 50 38 48 42.5 c 128,-1,2
 46 47 46 47 37 397 c 1,3,-1
 30 744 l 1,4,-1
 267 744 l 1,5,-1
 265 391 l 1,6,-1
 262 38 l 1,7,-1
 156 38 l 2,0,1
221 135 m 128,-1,9
 221 162 221 162 207 173 c 128,-1,10
 193 184 193 184 159.5 184 c 128,-1,11
 126 184 126 184 112.5 173 c 128,-1,12
 99 162 99 162 99 135 c 128,-1,13
 99 108 99 108 112.5 97 c 128,-1,14
 126 86 126 86 159.5 86 c 128,-1,15
 193 86 193 86 207 97 c 128,-1,8
 221 108 221 108 221 135 c 128,-1,9
156 304 m 0,16,17
 169 304 169 304 180.5 324 c 128,-1,18
 192 344 192 344 208 519 c 1,19,-1
 226 696 l 1,20,-1
 162 696 l 2,21,22
 118 696 118 696 108.5 678.5 c 128,-1,23
 99 661 99 661 99 559 c 128,-1,24
 99 457 99 457 115.5 380.5 c 128,-1,25
 132 304 132 304 156 304 c 0,16,17
EndSplineSet
Validated: 1
EndChar

StartChar: numbersign
Encoding: 35 35 82
Width: 668
VWidth: 25063
Flags: W
HStem: 304 49<82.6158 126.803> 402 49<82.7321 126.867> 524 21G<336.702 397.529>
VStem: 30 49<235.997 298.796 457.576 515.768> 249 146<310.411 444.126>
LayerCount: 2
Fore
SplineSet
588 689 m 1,0,-1
 581 615 l 1,1,2
 581 571 581 571 606 562 c 0,3,4
 639 549 639 549 639 496 c 0,5,6
 639 474 639 474 629 450 c 0,7,8
 615 416 615 416 588 409 c 0,9,10
 542 397 542 397 542 379 c 0,11,12
 542 378 542 378 542 378 c 0,13,14
 542 359 542 359 590 346 c 0,15,16
 610 341 610 341 622.5 329.5 c 128,-1,17
 635 318 635 318 635 298 c 0,18,19
 635 230 635 230 613 208 c 0,20,21
 598 192 598 192 558.5 187 c 128,-1,22
 519 182 519 182 503 164.5 c 128,-1,23
 487 147 487 147 480 110.5 c 128,-1,24
 473 74 473 74 470.5 62 c 128,-1,25
 468 50 468 50 462 39 c 128,-1,26
 456 28 456 28 450 24 c 0,27,28
 432 12 432 12 366 12 c 2,29,-1
 271 12 l 1,30,-1
 286 103 l 2,31,32
 292 141 292 141 292 156 c 128,-1,33
 292 171 292 171 288 171 c 128,-1,34
 284 171 284 171 274.5 157 c 128,-1,35
 265 143 265 143 257 116 c 128,-1,36
 249 89 249 89 249 60 c 128,-1,37
 249 31 249 31 231.5 21.5 c 128,-1,38
 214 12 214 12 149 12 c 2,39,-1
 49 12 l 1,40,-1
 65 97 l 2,41,42
 71 130 71 130 71 156 c 128,-1,43
 71 182 71 182 55 183 c 0,44,45
 45 183 45 183 37.5 208 c 128,-1,46
 30 233 30 233 30 276.5 c 128,-1,47
 30 320 30 320 39.5 336.5 c 128,-1,48
 49 353 49 353 81.5 353 c 128,-1,49
 114 353 114 353 125 370 c 0,50,51
 127 374 127 374 127 381 c 128,-1,52
 127 388 127 388 113 395 c 128,-1,53
 99 402 99 402 79 402 c 128,-1,54
 59 402 59 402 48 409 c 0,55,56
 30 422 30 422 30 481 c 128,-1,57
 30 540 30 540 41.5 556 c 128,-1,58
 53 572 53 572 92 576.5 c 128,-1,59
 131 581 131 581 149.5 597 c 128,-1,60
 168 613 168 613 176 648 c 128,-1,61
 184 683 184 683 205 696 c 128,-1,62
 226 709 226 709 264.5 712.5 c 128,-1,63
 303 716 303 716 313 717 c 128,-1,64
 323 718 323 718 335.5 717.5 c 128,-1,65
 348 717 348 717 352.5 716 c 128,-1,66
 357 715 357 715 362 710 c 0,67,68
 369 704 369 704 369 688 c 1,69,-1
 361 611 l 1,70,71
 361 591 361 591 370 591 c 0,72,73
 383 591 383 591 395 641 c 1,74,-1
 398 658 l 2,75,76
 404 694 404 694 443 705 c 0,77,78
 484 717 484 717 550 717 c 0,79,80
 574 717 574 717 579 713 c 0,81,82
 588 706 588 706 588 689 c 1,0,-1
201.5 156 m 128,-1,84
 208 193 208 193 225 207.5 c 128,-1,85
 242 222 242 222 294 227 c 2,86,-1
 376 235 l 1,87,-1
 359 145 l 2,88,89
 353 114 353 114 353 96 c 0,90,91
 353 94 353 94 353 91 c 0,92,93
 353 67 353 67 362 65 c 0,94,95
 365 64 365 64 367 64 c 0,96,97
 384 64 384 64 398 90 c 0,98,99
 414 119 414 119 420 154.5 c 128,-1,100
 426 190 426 190 442 206 c 128,-1,101
 458 222 458 222 502.5 227.5 c 128,-1,102
 547 233 547 233 560 261 c 0,103,104
 564 270 564 270 564 276 c 0,105,106
 564 291 564 291 544 300 c 0,107,108
 533 305 533 305 514 305 c 0,109,110
 510 305 510 305 510 304 c 0,111,112
 510 304 510 304 509 304 c 0,113,114
 489 304 489 304 478 318 c 128,-1,115
 467 332 467 332 467 368 c 0,116,117
 467 431 467 431 516 444 c 0,118,119
 549 453 549 453 561 483 c 0,120,121
 565 494 565 494 565 502 c 0,122,123
 565 517 565 517 551 522 c 0,124,125
 546 524 546 524 540 524 c 0,126,127
 530 524 530 524 523 545.5 c 128,-1,128
 516 567 516 567 516 595.5 c 128,-1,129
 516 624 516 624 511.5 642 c 128,-1,130
 507 660 507 660 500 665 c 128,-1,131
 493 670 493 670 485 665 c 0,132,133
 467 655 467 655 455 597 c 0,134,135
 445 552 445 552 431.5 540.5 c 128,-1,136
 418 529 418 529 404.5 526.5 c 128,-1,137
 391 524 391 524 356 524 c 128,-1,138
 321 524 321 524 309 536 c 128,-1,139
 297 548 297 548 297 595 c 128,-1,140
 297 642 297 642 286 660 c 0,141,142
 281 669 281 669 274.5 669 c 128,-1,143
 268 669 268 669 261 660 c 0,144,145
 246 643 246 643 239 610.5 c 128,-1,146
 232 578 232 578 227.5 566 c 128,-1,147
 223 554 223 554 217 545 c 128,-1,148
 211 536 211 536 202 532 c 0,149,150
 184 524 184 524 149 524 c 0,151,152
 79 524 79 524 79 488 c 0,153,154
 79 488 79 488 79 487 c 0,155,156
 79 470 79 470 95 460.5 c 128,-1,157
 111 451 111 451 134 451 c 128,-1,158
 157 451 157 451 167 450 c 128,-1,159
 177 449 177 449 185 445.5 c 128,-1,160
 193 442 193 442 195 437 c 128,-1,161
 197 432 197 432 197 420 c 0,162,163
 197 404 197 404 187.5 369.5 c 128,-1,164
 178 335 178 335 161 319.5 c 128,-1,165
 144 304 144 304 128 304 c 0,166,167
 111 304 111 304 101 299 c 0,168,169
 78 288 78 288 78 271 c 0,170,171
 78 271 78 271 78 270 c 0,172,173
 79 253 79 253 90.5 242 c 128,-1,174
 102 231 102 231 122 231 c 128,-1,175
 142 231 142 231 146 214 c 0,176,177
 147 209 147 209 147 201 c 0,178,179
 147 179 147 179 138 132 c 0,180,181
 133 106 133 106 133 90 c 0,182,183
 133 66 133 66 144 65 c 0,184,185
 146 65 146 65 148 64 c 0,186,187
 165 64 165 64 179 90 c 0,188,83
 195 119 195 119 201.5 156 c 128,-1,84
261 316.5 m 128,-1,190
 249 329 249 329 249 378.5 c 128,-1,191
 249 428 249 428 262 439.5 c 128,-1,192
 275 451 275 451 335.5 451 c 128,-1,193
 396 451 396 451 408 442 c 0,194,195
 414 438 414 438 413 424 c 0,196,197
 413 410 413 410 407 387 c 0,198,199
 395 341 395 341 395 323 c 0,200,201
 395 315 395 315 373 309.5 c 128,-1,202
 351 304 351 304 312 304 c 128,-1,189
 273 304 273 304 261 316.5 c 128,-1,190
EndSplineSet
Validated: 1
EndChar

StartChar: ampersand
Encoding: 38 38 83
Width: 787
VWidth: 24988
Flags: W
HStem: 159 49<294.36 359.917>
VStem: 280 69<530.314 587.141>
LayerCount: 2
Fore
SplineSet
137 512 m 1,0,-1
 133 600 l 1,1,2
 133 642 133 642 143.5 663.5 c 128,-1,3
 154 685 154 685 183 705 c 0,4,5
 236 743 236 743 360.5 743 c 128,-1,6
 485 743 485 743 537 706 c 0,7,8
 592 669 592 669 592 585 c 128,-1,9
 592 501 592 501 543 452 c 0,10,11
 509 418 509 418 509 410.5 c 128,-1,12
 509 403 509 403 577.5 403 c 128,-1,13
 646 403 646 403 679.5 383 c 128,-1,14
 713 363 713 363 713 315 c 0,15,16
 713 291 713 291 721.5 259 c 128,-1,17
 730 227 730 227 743.5 206.5 c 128,-1,18
 757 186 757 186 757 159 c 0,19,20
 757 114 757 114 721 78 c 128,-1,21
 685 42 685 42 640 42 c 0,22,23
 615 42 615 42 588.5 58.5 c 128,-1,24
 562 75 562 75 540.5 75 c 128,-1,25
 519 75 519 75 497.5 63.5 c 128,-1,26
 476 52 476 52 420 45 c 128,-1,27
 364 38 364 38 293.5 38 c 128,-1,28
 223 38 223 38 178 49 c 128,-1,29
 133 60 133 60 97 88 c 0,30,31
 30 141 30 141 30 235 c 128,-1,32
 30 329 30 329 88 387 c 0,33,34
 116 415 116 415 126.5 441.5 c 128,-1,35
 137 468 137 468 137 512 c 1,0,-1
188 121 m 0,36,37
 261 89 261 89 307.5 89 c 128,-1,38
 354 89 354 89 442.5 119 c 128,-1,39
 531 149 531 149 559 149 c 128,-1,40
 587 149 587 149 607.5 131.5 c 128,-1,41
 628 114 628 114 640 114 c 128,-1,42
 652 114 652 114 662.5 131.5 c 128,-1,43
 673 149 673 149 673 163.5 c 128,-1,44
 673 178 673 178 647.5 192.5 c 128,-1,45
 622 207 622 207 622 240 c 0,46,47
 622 252 622 252 628 278 c 128,-1,48
 634 304 634 304 634 311 c 0,49,50
 634 327 634 327 618 327 c 0,51,52
 611 327 611 327 586 321.5 c 128,-1,53
 561 316 561 316 549 316 c 0,54,55
 502 316 502 316 461.5 342 c 128,-1,56
 421 368 421 368 421 400 c 0,57,58
 421 414 421 414 439 440 c 128,-1,59
 457 466 457 466 482 490 c 0,60,61
 540 545 540 545 540 570.5 c 128,-1,62
 540 596 540 596 505 633 c 0,63,64
 447 689 447 689 363 689 c 0,65,66
 319 689 319 689 276 671 c 0,67,68
 188 634 188 634 188 564 c 0,69,70
 188 530 188 530 204.5 494 c 128,-1,71
 221 458 221 458 221 440.5 c 128,-1,72
 221 423 221 423 207.5 405 c 128,-1,73
 194 387 194 387 160.5 356.5 c 128,-1,74
 127 326 127 326 104 298 c 128,-1,75
 81 270 81 270 81 260 c 0,76,77
 81 168 81 168 188 121 c 0,36,37
212 194 m 0,78,79
 203 217 203 217 203 249 c 128,-1,80
 203 281 203 281 218 315 c 128,-1,81
 233 349 233 349 253 361.5 c 128,-1,82
 273 374 273 374 288 374 c 0,83,84
 316 374 316 374 378 312 c 128,-1,85
 440 250 440 250 440 211 c 0,86,87
 440 159 440 159 324 159 c 0,88,89
 226 159 226 159 212 194 c 0,78,79
306 219 m 128,-1,91
 322 208 322 208 344.5 208 c 128,-1,92
 367 208 367 208 367 215.5 c 128,-1,93
 367 223 367 223 335 258.5 c 128,-1,94
 303 294 303 294 286 294 c 0,95,96
 276 294 276 294 276 280 c 128,-1,97
 276 266 276 266 283 248 c 128,-1,90
 290 230 290 230 306 219 c 128,-1,91
404.5 481.5 m 128,-1,99
 366 454 366 454 347 454 c 128,-1,100
 328 454 328 454 303.5 484 c 128,-1,101
 279 514 279 514 279 563 c 0,102,103
 279 609 279 609 298 621.5 c 128,-1,104
 317 634 317 634 361 634 c 128,-1,105
 405 634 405 634 421 622 c 0,106,107
 443 606 443 606 443 557.5 c 128,-1,98
 443 509 443 509 404.5 481.5 c 128,-1,99
384 548 m 0,108,109
 388 553 388 553 388 564.5 c 128,-1,110
 388 576 388 576 378 582.5 c 128,-1,111
 368 589 368 589 364 589 c 0,112,113
 349 589 349 589 349 557.5 c 128,-1,114
 349 526 349 526 360 526 c 128,-1,115
 371 526 371 526 384 548 c 0,108,109
EndSplineSet
Validated: 1
EndChar

StartChar: period
Encoding: 46 46 84
Width: 305
VWidth: 24628
Flags: W
HStem: 16 49<110.81 221.19>
VStem: 227 48<70.8097 180.942>
LayerCount: 2
Fore
SplineSet
37 132 m 5,0,-1
 45 248 l 1,1,-1
 275 262 l 1,2,-1
 275 16 l 1,3,-1
 30 16 l 1,4,-1
 37 132 l 5,0,-1
215 77 m 128,-1,6
 227 89 227 89 227 125.5 c 132,-1,7
 227 162 227 162 215 174.5 c 128,-1,8
 203 187 203 187 166 187 c 128,-1,9
 129 187 129 187 117 174.5 c 128,-1,10
 105 162 105 162 105 125.5 c 128,-1,11
 105 89 105 89 117 77 c 128,-1,12
 129 65 129 65 166 65 c 128,-1,5
 203 65 203 65 215 77 c 128,-1,6
EndSplineSet
Validated: 1
EndChar

StartChar: slash
Encoding: 47 47 85
Width: 346
VWidth: 25232
Flags: W
HStem: 0 21G<59.7759 137.303> 0 21G<59.7759 137.303>
LayerCount: 2
Fore
SplineSet
32 55.5 m 128,-1,1
 34 68 34 68 44 130 c 128,-1,2
 54 192 54 192 95.5 351 c 128,-1,3
 137 510 137 510 146 545 c 128,-1,4
 155 580 155 580 166.5 613.5 c 128,-1,5
 178 647 178 647 184.5 659.5 c 128,-1,6
 191 672 191 672 202.5 683.5 c 128,-1,7
 214 695 214 695 223.5 697.5 c 128,-1,8
 233 700 233 700 259 703 c 0,9,10
 267 704 267 704 273 704 c 0,11,12
 289 704 289 704 299 699 c 0,13,14
 314 692 314 692 316 656 c 0,15,16
 316 651 316 651 316 645 c 0,17,18
 316 612 316 612 307 563 c 0,19,20
 296 506 296 506 247.5 303.5 c 128,-1,21
 199 101 199 101 181.5 55 c 128,-1,22
 164 9 164 9 140 2 c 0,23,24
 131 0 131 0 103 0 c 128,-1,25
 75 0 75 0 65.5 0 c 128,-1,26
 56 0 56 0 46 4 c 128,-1,27
 36 8 36 8 33.5 12 c 128,-1,28
 31 16 31 16 30.5 29.5 c 128,-1,0
 30 43 30 43 32 55.5 c 128,-1,1
116 102 m 0,29,30
 106 126 106 126 102 102 c 0,31,32
 101 96 101 96 101 87 c 0,33,34
 101 83 101 83 101 79 c 0,35,36
 101 53 101 53 109 53 c 0,37,38
 110 53 l 0,39,40
 119 55 119 55 120 72 c 128,-1,41
 121 89 121 89 116 102 c 0,29,30
140 199 m 0,42,43
 135 211 135 211 132 212 c 0,44,45
 128 212 128 212 126 195 c 1,46,-1
 125 185 l 1,47,48
 125 181 125 181 125 177 c 0,49,50
 125 151 125 151 133 151 c 0,51,52
 134 151 134 151 135 151 c 0,53,54
 145 153 145 153 145 172 c 0,55,56
 145 176 145 176 145 181 c 0,57,58
 143 190 143 190 140 199 c 0,42,43
164 297 m 0,59,60
 154 321 154 321 151 297 c 1,61,-1
 150 282 l 1,62,63
 150 278 150 278 150 274 c 0,64,65
 150 248 150 248 158 248 c 0,66,67
 159 248 l 0,68,69
 168 250 168 250 168.5 267 c 128,-1,70
 169 284 169 284 164 297 c 0,59,60
189 394 m 0,71,72
 184 406 184 406 180 407 c 0,73,74
 176 407 176 407 175 390 c 1,75,-1
 174 380 l 1,76,77
 174 376 174 376 174 371 c 0,78,79
 174 345 174 345 182 345 c 0,80,81
 183 345 183 345 183 346 c 0,82,83
 192 348 192 348 193 364.5 c 128,-1,84
 194 381 194 381 189 394 c 0,71,72
213 492 m 0,85,86
 203 516 203 516 200 492 c 1,87,-1
 198 477 l 1,88,89
 198 473 198 473 198 469 c 0,90,91
 198 443 198 443 206 443 c 0,92,93
 207 443 l 0,94,95
 216 445 216 445 217 462 c 128,-1,96
 218 479 218 479 213 492 c 0,85,86
237 589 m 0,97,98
 232 601 232 601 229 602 c 0,99,100
 225 602 225 602 223 585 c 0,101,102
 222 572 222 572 222 563 c 0,103,104
 222 540 222 540 230 540 c 0,105,106
 231 540 231 540 232 540 c 0,107,108
 242 542 242 542 242 562 c 0,109,110
 242 566 242 566 242 571 c 0,111,112
 240 580 240 580 237 589 c 0,97,98
EndSplineSet
Validated: 1
EndChar

StartChar: plus
Encoding: 43 43 86
Width: 594
VWidth: 24602
Flags: W
HStem: 98 47<283.83 333.282> 269 48<401.193 509.43> 415 49<401.193 509.43> 587 47<283.83 333.282>
VStem: 30 73<327.149 404.884> 346 48<152.57 261.807 470.193 579.43> 516 48<324.861 407.178>
LayerCount: 2
Fore
SplineSet
213 109.5 m 128,-1,1
 200 121 200 121 200 182.5 c 128,-1,2
 200 244 200 244 188 256.5 c 128,-1,3
 176 269 176 269 114.5 269 c 128,-1,4
 53 269 53 269 41.5 282 c 128,-1,5
 30 295 30 295 30 366 c 128,-1,6
 30 437 30 437 41.5 450.5 c 128,-1,7
 53 464 53 464 114.5 464 c 128,-1,8
 176 464 176 464 188 476 c 128,-1,9
 200 488 200 488 200 549.5 c 128,-1,10
 200 611 200 611 213 622.5 c 128,-1,11
 226 634 226 634 297 634 c 128,-1,12
 368 634 368 634 381 622.5 c 128,-1,13
 394 611 394 611 394 549.5 c 128,-1,14
 394 488 394 488 406 476 c 128,-1,15
 418 464 418 464 479.5 464 c 128,-1,16
 541 464 541 464 552.5 450.5 c 128,-1,17
 564 437 564 437 564 366 c 128,-1,18
 564 295 564 295 552.5 282 c 128,-1,19
 541 269 541 269 479.5 269 c 128,-1,20
 418 269 418 269 406 256.5 c 128,-1,21
 394 244 394 244 394 182.5 c 128,-1,22
 394 121 394 121 381 109.5 c 128,-1,23
 368 98 368 98 297 98 c 128,-1,0
 226 98 226 98 213 109.5 c 128,-1,1
335.5 168 m 128,-1,25
 346 191 346 191 346 242 c 128,-1,26
 346 293 346 293 358 305 c 128,-1,27
 370 317 370 317 426 317 c 128,-1,28
 482 317 482 317 499 327 c 128,-1,29
 516 337 516 337 516 366 c 128,-1,30
 516 395 516 395 499 405 c 128,-1,31
 482 415 482 415 426 415 c 128,-1,32
 370 415 370 415 358 427 c 128,-1,33
 346 439 346 439 346 490 c 128,-1,34
 346 541 346 541 335.5 564 c 128,-1,35
 325 587 325 587 310 587 c 128,-1,36
 295 587 295 587 283.5 566 c 128,-1,37
 272 545 272 545 268 499.5 c 128,-1,38
 264 454 264 454 249 439 c 128,-1,39
 234 424 234 424 186 419.5 c 128,-1,40
 138 415 138 415 120.5 403.5 c 128,-1,41
 103 392 103 392 103 366 c 128,-1,42
 103 340 103 340 120.5 328.5 c 128,-1,43
 138 317 138 317 186 312.5 c 128,-1,44
 234 308 234 308 249 293 c 128,-1,45
 264 278 264 278 268 232.5 c 128,-1,46
 272 187 272 187 283.5 166 c 128,-1,47
 295 145 295 145 310 145 c 128,-1,24
 325 145 325 145 335.5 168 c 128,-1,25
EndSplineSet
Validated: 1
EndChar

StartChar: hyphen
Encoding: 45 45 87
Width: 379
VWidth: 25059
Flags: W
HStem: 307 197<30 182> 307 182<201 334> 307 48<83.3775 267.621> 450 47<103.775 270.568>
VStem: 30 52<360.701 428.335>
LayerCount: 2
Fore
SplineSet
30 307 m 1,0,-1
 30 504 l 1,1,-1
 182 497 l 1,2,-1
 334 489 l 1,3,-1
 341 398 l 1,4,-1
 349 307 l 1,5,-1
 30 307 l 1,0,-1
255 364.5 m 128,-1,7
 273 374 273 374 273 403 c 128,-1,8
 273 432 273 432 263.5 441 c 128,-1,9
 254 450 254 450 226 450 c 0,10,11
 93 450 93 450 83 398 c 0,12,13
 82 393 82 393 82 386 c 0,14,15
 82 368 82 368 101.5 361.5 c 128,-1,16
 121 355 121 355 179 355 c 128,-1,6
 237 355 237 355 255 364.5 c 128,-1,7
EndSplineSet
Validated: 1
EndChar

StartChar: asterisk
Encoding: 42 42 88
Width: 443
VWidth: 24779
Flags: W
HStem: 427 118<203.519 266.145>
VStem: 79 306<457.814 538.401>
LayerCount: 2
Fore
SplineSet
343 702 m 1,0,-1
 353 702 l 2,1,2
 383 702 383 702 395 688 c 0,3,4
 413 668 413 668 414 613 c 0,5,6
 414 589 414 589 405.5 579.5 c 128,-1,7
 397 570 397 570 374 570 c 128,-1,8
 351 570 351 570 351 561.5 c 128,-1,9
 351 553 351 553 368.5 532.5 c 128,-1,10
 386 512 386 512 386 493 c 0,11,12
 386 463 386 463 342 445.5 c 128,-1,13
 298 428 298 428 220 427 c 0,14,15
 98 427 98 427 85 461 c 0,16,17
 79 476 79 476 79 497 c 128,-1,18
 79 518 79 518 84 529.5 c 128,-1,19
 89 541 89 541 89 549 c 0,20,21
 89 570 89 570 67 570 c 128,-1,22
 45 570 45 570 37.5 574.5 c 128,-1,23
 30 579 30 579 30 594.5 c 128,-1,24
 30 610 30 610 43 661 c 0,25,26
 50 685 50 685 67 700.5 c 128,-1,27
 84 716 84 716 103.5 716 c 128,-1,28
 123 716 123 716 136 726.5 c 128,-1,29
 149 737 149 737 149 752 c 0,30,31
 149 789 149 789 222 789 c 0,32,33
 263 789 263 789 279 779 c 128,-1,34
 295 769 295 769 295 744 c 0,35,36
 296 702 296 702 343 702 c 1,0,-1
267 577 m 0,37,38
 267 601 267 601 256.5 613 c 128,-1,39
 246 625 246 625 235.5 625 c 128,-1,40
 225 625 225 625 216 614 c 0,41,42
 201 597 201 597 201 581.5 c 128,-1,43
 201 566 201 566 205 559 c 0,44,45
 214 545 214 545 234 545 c 0,46,47
 267 545 267 545 267 577 c 0,37,38
EndSplineSet
Validated: 1
EndChar

StartChar: quotedbl
Encoding: 34 34 89
Width: 521
VWidth: 24812
Flags: W
HStem: 502 48<114.525 170.377 339.043 392.572> 745 49<82.21 193.102 327.841 412.778>
VStem: 30 51<594.188 742.68> 271 50<563.703 611> 416 75<574.765 742.523>
LayerCount: 2
Fore
SplineSet
143 502 m 0,0,1
 59 502 59 502 44.5 540.5 c 128,-1,2
 30 579 30 579 30 686 c 2,3,-1
 30 794 l 1,4,-1
 491 794 l 1,5,-1
 491 724 l 2,6,7
 491 657 491 657 478.5 591.5 c 128,-1,8
 466 526 466 526 449 514 c 128,-1,9
 432 502 432 502 369 502 c 128,-1,10
 306 502 306 502 289 511.5 c 128,-1,11
 272 521 272 521 271 556 c 2,12,-1
 270 611 l 1,13,-1
 248 556 l 2,14,15
 235 525 235 525 212.5 513.5 c 128,-1,16
 190 502 190 502 143 502 c 0,0,1
143 552 m 0,17,18
 170 552 170 552 185 606 c 128,-1,19
 200 660 200 660 200 690 c 128,-1,20
 200 720 200 720 185.5 732.5 c 128,-1,21
 171 745 171 745 138 745 c 128,-1,22
 105 745 105 745 93 739.5 c 128,-1,23
 81 734 81 734 81 713.5 c 128,-1,24
 81 693 81 693 91 642 c 0,25,26
 109 552 109 552 143 552 c 0,17,18
334 580 m 128,-1,28
 347 550 347 550 364.5 550 c 128,-1,29
 382 550 382 550 399 583.5 c 128,-1,30
 416 617 416 617 416 695 c 0,31,32
 416 726 416 726 406.5 735.5 c 128,-1,33
 397 745 397 745 369 745 c 128,-1,34
 341 745 341 745 331 729 c 128,-1,35
 321 713 321 713 321 661.5 c 128,-1,27
 321 610 321 610 334 580 c 128,-1,28
EndSplineSet
Validated: 1
EndChar

StartChar: quotesingle
Encoding: 39 39 90
Width: 290
VWidth: 24814
Flags: W
HStem: 510 49<116.414 182.663>
VStem: 31 59<587.185 747.725> 208 52<591.917 752.054>
LayerCount: 2
Fore
SplineSet
49 551 m 0,0,1
 33 592 33 592 31 691 c 1,2,-1
 30 791 l 1,3,-1
 260 805 l 1,4,-1
 260 713 l 1,5,6
 259 587 259 587 238 548.5 c 128,-1,7
 217 510 217 510 140.5 510 c 128,-1,8
 64 510 64 510 49 551 c 0,0,1
178 571.5 m 128,-1,10
 188 584 188 584 188 613.5 c 128,-1,11
 188 643 188 643 198 681 c 128,-1,12
 208 719 208 719 208 731.5 c 128,-1,13
 208 744 208 744 196.5 749 c 128,-1,14
 185 754 185 754 150.5 754 c 128,-1,15
 116 754 116 754 103 742 c 128,-1,16
 90 730 90 730 90 681 c 128,-1,17
 90 632 90 632 107.5 595.5 c 128,-1,18
 125 559 125 559 154 559 c 0,19,9
 168 559 168 559 178 571.5 c 128,-1,10
EndSplineSet
Validated: 1
EndChar

StartChar: colon
Encoding: 58 58 91
Width: 305
VWidth: 24628
Flags: W
HStem: 16 49<110.81 221.19> 337 49<110.81 221.19>
VStem: 30 245<16 132 337 453> 45 230<146.5 248 467.5 569> 227 48<70.8097 180.942 391.81 501.942>
LayerCount: 2
Fore
SplineSet
37 453 m 5,0,-1
 45 569 l 1,1,-1
 275 583 l 1,2,-1
 275 337 l 1,3,-1
 30 337 l 1,4,-1
 37 453 l 5,0,-1
215 398 m 128,-1,6
 227 410 227 410 227 446.5 c 132,-1,7
 227 483 227 483 215 495.5 c 128,-1,8
 203 508 203 508 166 508 c 128,-1,9
 129 508 129 508 117 495.5 c 128,-1,10
 105 483 105 483 105 446.5 c 128,-1,11
 105 410 105 410 117 398 c 128,-1,12
 129 386 129 386 166 386 c 128,-1,5
 203 386 203 386 215 398 c 128,-1,6
37 132 m 1,13,-1
 45 248 l 1,14,-1
 275 262 l 1,15,-1
 275 16 l 1,16,-1
 30 16 l 1,17,-1
 37 132 l 1,13,-1
215 77 m 128,-1,19
 227 89 227 89 227 125.5 c 128,-1,20
 227 162 227 162 215 174.5 c 128,-1,21
 203 187 203 187 166 187 c 128,-1,22
 129 187 129 187 117 174.5 c 128,-1,23
 105 162 105 162 105 125.5 c 128,-1,24
 105 89 105 89 117 77 c 128,-1,25
 129 65 129 65 166 65 c 128,-1,18
 203 65 203 65 215 77 c 128,-1,19
EndSplineSet
Validated: 1
EndChar

StartChar: semicolon
Encoding: 59 59 92
Width: 305
VWidth: 24628
Flags: W
HStem: -28 50<68.6152 136.715> 337 49<110.81 221.19>
VStem: 222 49<-33.8718 137.984 389.827 503.987>
LayerCount: 2
Fore
SplineSet
35 -121 m 0,0,1
 35 -88 35 -88 67.5 -63 c 128,-1,2
 100 -38 100 -38 100 -33.5 c 128,-1,3
 100 -29 100 -29 73.5 -28 c 128,-1,4
 47 -27 47 -27 38.5 -14.5 c 128,-1,5
 30 -2 30 -2 30 26.5 c 128,-1,6
 30 55 30 55 32 88 c 2,7,-1
 40 204 l 1,8,9
 116 209 116 209 270 219 c 1,10,-1
 270 64 l 2,11,12
 270 -34 270 -34 259.5 -72.5 c 128,-1,13
 249 -111 249 -111 214 -145 c 0,14,15
 159 -197 159 -197 107 -197 c 128,-1,16
 55 -197 55 -197 39 -147 c 0,17,18
 35 -133 35 -133 35 -121 c 0,0,1
209.5 -11.5 m 128,-1,20
 222 26 222 26 222 70 c 128,-1,21
 222 114 222 114 211.5 128.5 c 128,-1,22
 201 143 201 143 162.5 143 c 128,-1,23
 124 143 124 143 112 131 c 128,-1,24
 100 119 100 119 100 82 c 0,25,26
 100 21 100 21 137 21 c 0,27,28
 154 21 154 21 163.5 5 c 128,-1,29
 173 -11 173 -11 173 -38.5 c 128,-1,30
 173 -66 173 -66 155 -90 c 1,31,-1
 151 -96 l 1,32,33
 153 -96 153 -96 175 -72.5 c 128,-1,19
 197 -49 197 -49 209.5 -11.5 c 128,-1,20
37 453 m 1,34,-1
 45 569 l 1,35,-1
 275 583 l 1,36,-1
 275 337 l 1,37,-1
 30 337 l 1,38,-1
 37 453 l 1,34,-1
215 398 m 128,-1,40
 227 410 227 410 227 446.5 c 128,-1,41
 227 483 227 483 215 495.5 c 128,-1,42
 203 508 203 508 166 508 c 128,-1,43
 129 508 129 508 117 495.5 c 128,-1,44
 105 483 105 483 105 446.5 c 128,-1,45
 105 410 105 410 117 398 c 128,-1,46
 129 386 129 386 166 386 c 128,-1,39
 203 386 203 386 215 398 c 128,-1,40
EndSplineSet
Validated: 1
EndChar

StartChar: equal
Encoding: 61 61 94
Width: 586
VWidth: 25059
Flags: W
HStem: 118 179<320.458 532.45> 118 47<138.973 428.236> 256 48<165.206 296.975> 389 179<295.017 507.01> 389 47<113.533 402.795> 528 48<139.765 271.535>
VStem: 30 82<444.635 502.115> 55 82<173.269 230.749>
LayerCount: 2
Fore
SplineSet
55 118 m 1,0,-1
 55 312 l 1,1,-1
 294 305 l 1,2,-1
 532 297 l 1,3,-1
 543 207 l 1,4,-1
 556 118 l 1,5,-1
 55 118 l 1,0,-1
425 183 m 128,-1,7
 437 193 437 193 437 216.5 c 128,-1,8
 437 240 437 240 422 249 c 128,-1,9
 407 258 407 258 363.5 258 c 128,-1,10
 320 258 320 258 270 256 c 0,11,12
 137 249 137 249 137 195 c 0,13,14
 137 177 137 177 167 171 c 128,-1,15
 197 165 197 165 273.5 165 c 128,-1,16
 350 165 350 165 381.5 169 c 128,-1,6
 413 173 413 173 425 183 c 128,-1,7
30 389 m 1,17,-1
 30 583 l 1,18,-1
 268 576 l 1,19,-1
 507 568 l 1,20,-1
 518 479 l 1,21,-1
 531 389 l 1,22,-1
 30 389 l 1,17,-1
399 454 m 128,-1,24
 411 464 411 464 411 481.5 c 128,-1,25
 411 499 411 499 408 507 c 128,-1,26
 405 515 405 515 397 520 c 0,27,28
 382 530 382 530 338.5 530 c 128,-1,29
 295 530 295 530 262.5 528 c 128,-1,30
 230 526 230 526 202.5 522 c 128,-1,31
 175 518 175 518 157 512 c 0,32,33
 112 498 112 498 112 467 c 0,34,35
 112 449 112 449 142 442.5 c 128,-1,36
 172 436 172 436 248 436 c 128,-1,37
 324 436 324 436 355.5 440 c 128,-1,23
 387 444 387 444 399 454 c 128,-1,24
EndSplineSet
Validated: 1
EndChar

